<svg width="165" height="44" viewBox="0 0 165 44" xmlns="http://www.w3.org/2000/svg" xmlns:xlink="http://www.w3.org/1999/xlink"><title>Page 1</title><defs><path id="a" d="M0 .683h44.663V43.95H.001V.683z"/><path id="c" d="M7.632.632v8.24H.39V.632h7.24z"/></defs><g fill="none" fill-rule="evenodd"><g transform="translate(0 -.633)"><mask id="b" fill="#fff"><use xlink:href="#a"/></mask><path d="M22.33 42.477c6.236 0 12.141-2.678 16.137-7.408 3.041-3.592 4.702-8.068 4.702-12.75 0-4.685-1.66-9.16-4.702-12.757-3.996-4.727-9.901-7.406-16.137-7.406-6.234 0-12.141 2.68-16.135 7.406-3.041 3.596-4.7 8.072-4.7 12.757 0 4.682 1.659 9.158 4.7 12.75 3.994 4.73 9.901 7.408 16.135 7.408m0 1.473c-6.678 0-13.006-2.873-17.287-7.935C1.781 32.155.001 27.344.001 22.319c0-5.03 1.78-9.84 5.042-13.7C9.324 3.555 15.653.684 22.33.684c6.678 0 13.01 2.87 17.287 7.937 3.266 3.859 5.046 8.669 5.046 13.7 0 5.024-1.78 9.836-5.046 13.695-4.277 5.062-10.609 7.935-17.287 7.935" fill="#FFE51B" mask="url(#b)"/></g><path d="M24.892 11.358c1.063-.663 2.272-1.146 3.538-1.208 1.055-.049 2.074.2 2.963.765.973.618 1.679 1.55 2.101 2.604.479 1.189.586 2.495.412 3.757-.212 1.522-.83 2.96-1.69 4.235-1.094 1.616-2.571 2.962-4.192 4.052l-.222.147-.629-.747.196-.177c1.113-.994 2.276-1.99 2.87-3.341.671-1.523 1.112-3.3 1.085-4.966-.02-1.208-.305-2.688-1.311-3.494-.602-.485-1.347-.622-2.107-.565-1.177.09-2.408.641-3.422 1.21l-.03.018-.033.01c-.287.077-.578.14-.878.147-1.196.025-2.005-.91-2.603-1.814-1.01-1.146-2.883-2.939-4.606-2.404-1.295.402-2.023 1.959-2.395 3.133-.305.962-.486 1.979-.588 2.982a24.617 24.617 0 0 0-.094 3.637c.125 2.825.646 5.685 1.465 8.39.896 2.97 2.56 5.651 4.26 8.263l.152.236-.856.515-.152-.236c-1.433-2.185-2.753-4.451-3.892-6.798-.933-1.93-1.747-3.93-2.371-5.978-.506-1.673-.889-3.394-1.068-5.128-.149-1.41-.167-2.85.012-4.26.263-2.073.981-4.227 2.427-5.799.562-.61 1.23-1.127 1.99-1.469a4.918 4.918 0 0 1 2.214-.447c1.04.036 2.002.415 2.818 1.042.977.748 1.683 1.791 2.169 2.903l.007.013.005.014c.115.358.303.74.646.939.536.307 1.293.053 1.81-.181" fill="#FFE51B"/><g transform="translate(156.677 32.592)"><mask id="d" fill="#fff"><use xlink:href="#c"/></mask><path d="M1.194 2.507c.32-.41.705-.756 1.157-1.016A5.828 5.828 0 0 1 3.64.935c.41-.118.83-.203 1.258-.244.345-.034.695-.06 1.045-.06h1.69v1.087H5.685c-.444 0-.9.038-1.329.154a5.029 5.029 0 0 0-.988.374 3.155 3.155 0 0 0-.676.457c-.142.136-.29.283-.41.438-.189.24-.34.506-.433.797-.091.28-.138.569-.138.862a2.488 2.488 0 0 0 .565 1.593l.004.003h.002c.24.311.535.565.883.751.337.175.693.32 1.06.418.332.088.677.152 1.018.183.275.02.553.037.827.037h1.563v1.087h-1.69a8.416 8.416 0 0 1-1.772-.168A6.772 6.772 0 0 1 2.82 8.27a4.751 4.751 0 0 1-.974-.589 4.347 4.347 0 0 1-.647-.632 3.513 3.513 0 0 1-.613-1.082A3.65 3.65 0 0 1 .39 4.8c0-.408.067-.808.194-1.198.134-.4.34-.763.609-1.095" fill="#B8B8B8" mask="url(#d)"/></g><path fill="#B8B8B8" d="M153.914 41.463h1.32v-8.239h-1.32zm-8.614-8.058a4.17 4.17 0 0 1 .966-.268 6.464 6.464 0 0 1 1.017-.077c.34 0 .678.023 1.012.077.333.052.66.14.972.268.42.168.848.38 1.2.667.286.236.538.51.722.827.17.294.286.61.344.942.05.308.076.619.076.93v4.692h-1.318v-4.626c0-.506-.094-.996-.31-1.457-.234-.497-.767-.799-1.264-.986a4.178 4.178 0 0 0-1.434-.247 4.158 4.158 0 0 0-1.434.247c-.5.187-1.032.49-1.266.986a3.396 3.396 0 0 0-.308 1.457v4.626h-1.32v-4.692c0-.311.027-.622.078-.93.052-.332.174-.648.34-.942.186-.318.436-.591.722-.827.352-.286.78-.499 1.204-.667m-5.972 8.058h1.32v-8.239h-1.32zm-4.308 0h1.318V30.672h-1.318zm-9.192-6.365c.32-.409.702-.756 1.155-1.015a5.769 5.769 0 0 1 1.291-.556 6.95 6.95 0 0 1 1.257-.245c.344-.034.696-.059 1.044-.059h1.69v1.087h-1.948c-.444 0-.9.038-1.329.154a5.029 5.029 0 0 0-.988.373 3.045 3.045 0 0 0-.672.458 3.79 3.79 0 0 0-.414.438c-.188.24-.339.506-.433.797a2.837 2.837 0 0 0-.138.862c0 .286.047.566.138.834.092.28.24.531.43.758l.001.004h.002c.24.311.535.565.885.75.334.176.69.32 1.059.419.333.088.676.152 1.017.182.274.02.551.038.827.038h1.563v1.087h-1.69a8.404 8.404 0 0 1-1.772-.168 6.81 6.81 0 0 1-1.352-.435 4.8 4.8 0 0 1-.974-.588c-.234-.19-.459-.4-.647-.633a3.583 3.583 0 0 1-.611-1.081 3.552 3.552 0 0 1-.194-1.167c0-.408.063-.808.192-1.198.134-.4.344-.763.611-1.096m-9.406 6.365h1.32v-10.82h-1.32zm-4.074 0V37.77c0-.56-.09-1.119-.341-1.625a3.25 3.25 0 0 0-.896-1.124 3.834 3.834 0 0 0-1.296-.656 5.467 5.467 0 0 0-1.55-.218 5.47 5.47 0 0 0-1.79.279 4.39 4.39 0 0 0-1.369.748c-.36.297-.658.648-.874 1.059a2.608 2.608 0 0 0-.303 1.208c0 .425.104.824.31 1.194.222.392.522.715.887.985.412.304.883.518 1.373.67.569.177 1.17.25 1.766.25.602 0 1.204-.074 1.775-.271a6.045 6.045 0 0 0 1.554-.824l.4-.29v1.34l-.11.074a6.421 6.421 0 0 1-1.53.751c-.652.227-1.357.307-2.044.307a7.745 7.745 0 0 1-2.074-.278 6.23 6.23 0 0 1-1.81-.81 4.486 4.486 0 0 1-1.305-1.305 3.237 3.237 0 0 1-.512-1.793c0-.565.147-1.101.401-1.605a4.481 4.481 0 0 1 1.148-1.412c.53-.44 1.142-.758 1.791-.989.758-.271 1.561-.375 2.36-.375.66 0 1.312.087 1.946.263.62.173 1.197.443 1.714.824.517.382.926.867 1.23 1.43.34.634.469 1.347.469 2.06v3.826h-1.32z"/><path d="M99.038 33.224v-2.122h-1.32v7.532c0 .308.027.617.078.923a2 2 0 0 0 .426.945c.254.32.615.542.99.697.52.215 1.16.263 1.717.263h1.712v-1.085h-1.712a5.03 5.03 0 0 1-.939-.086c-.274-.05-.49-.2-.669-.41a1.007 1.007 0 0 1-.25-.573 7.666 7.666 0 0 1-.033-.706V34.31h3.603v-1.085h-3.603zm-9.703.181c.312-.129.638-.216.97-.268a6.457 6.457 0 0 1 1.015-.077c.338 0 .678.023 1.014.077.333.052.66.14.97.268.422.168.85.38 1.202.667.287.236.537.51.722.827.17.294.286.61.342.942.051.308.078.619.078.93v4.692h-1.32v-4.626c0-.506-.096-.996-.31-1.457-.232-.497-.765-.799-1.262-.986a4.198 4.198 0 0 0-1.436-.247 4.138 4.138 0 0 0-1.432.247c-.5.187-1.035.49-1.266.986a3.396 3.396 0 0 0-.308 1.457v4.626h-1.322v-4.692c0-.311.027-.622.078-.93.055-.332.172-.648.341-.942a3.11 3.11 0 0 1 .723-.827c.35-.286.78-.499 1.2-.667m-6.52 1.616a3.504 3.504 0 0 0-1.286-.638c-.522-.137-1.075-.236-1.617-.236a5.26 5.26 0 0 0-2.008.372c-.609.25-1.13.62-1.554 1.121-.427.506-.605 1.1-.605 1.752 0 .422.098.818.294 1.194.203.395.487.727.836 1.006.388.313.839.536 1.312.69a5.43 5.43 0 0 0 1.725.26 5.51 5.51 0 0 0 1.69-.25 4.28 4.28 0 0 0 1.307-.67 3.31 3.31 0 0 0 .856-.974 2.6 2.6 0 0 0 .355-1.158l.014-.232h1.37l-.024.27a3.867 3.867 0 0 1-.468 1.557 4.234 4.234 0 0 1-1.113 1.31c-.506.4-1.084.695-1.7.9-.7.238-1.44.331-2.184.331a7.393 7.393 0 0 1-2.143-.304 5.915 5.915 0 0 1-1.78-.861 4.318 4.318 0 0 1-1.217-1.344 3.493 3.493 0 0 1-.452-1.756c0-.615.136-1.2.424-1.742a4.212 4.212 0 0 1 1.177-1.363 5.686 5.686 0 0 1 1.75-.883 7.325 7.325 0 0 1 2.181-.314c.921 0 1.822.157 2.665.53.764.337 1.44.814 1.97 1.458l.195.235-7.673 3.988-.809-.852 6.511-3.397zm-13.846-.687a5.725 5.725 0 0 0-1.456-.186 9.52 9.52 0 0 0-1.193.071 4.32 4.32 0 0 0-1.093.285c-.602.241-1.13.602-1.523 1.119a2.621 2.621 0 0 0-.551 1.623c0 .414.108.81.295 1.18.205.409.5.76.85 1.058.401.338.876.582 1.371.761.591.215 1.219.297 1.844.297.65 0 1.346-.08 1.942-.354.428-.195.87-.45 1.202-.781.207-.206.392-.436.524-.697a3.5 3.5 0 0 0 .28-.739 3.77 3.77 0 0 0 .11-.715c.013-.214.02-.43.02-.647V30.7h1.324v5.91c0 .281-.015.563-.036.842-.02.311-.077.619-.156.92a3.916 3.916 0 0 1-.388.932c-.19.334-.445.631-.72.897a4.612 4.612 0 0 1-.635.503 4.903 4.903 0 0 1-.896.463c-.364.15-.75.255-1.138.334-.463.093-.94.127-1.41.127-.811 0-1.625-.106-2.39-.374-.65-.229-1.27-.545-1.798-.985a4.357 4.357 0 0 1-1.126-1.394 3.591 3.591 0 0 1-.388-1.598c0-.83.254-1.582.757-2.25.53-.714 1.252-1.207 2.085-1.523a6.324 6.324 0 0 1 1.34-.342 9.52 9.52 0 0 1 1.39-.102c.628 0 1.257.065 1.864.222.341.086.67.204.987.35.31.14.605.308.88.506l.102.075v1.328l-.397-.28a8.923 8.923 0 0 0-.783-.476 5.215 5.215 0 0 0-1.09-.45m89.877-13.058h5.028v-7.542c0-1.11-.127-2.234-.462-3.293-.287-.895-.682-1.762-1.233-2.534a7.707 7.707 0 0 0-1.77-1.793 8.655 8.655 0 0 0-2.1-1.128 8.079 8.079 0 0 0-1.74-.422 13.733 13.733 0 0 0-1.799-.12c-.781 0-1.561.075-2.33.224a8.49 8.49 0 0 0-4.165 2.088 8.743 8.743 0 0 0-1.555 1.87 9.243 9.243 0 0 0-1.012 2.262 8.748 8.748 0 0 0-.36 2.497c0 1.22.213 2.424.75 3.529.476.985 1.113 1.866 1.943 2.592a8.287 8.287 0 0 0 2.727 1.578 9.413 9.413 0 0 0 3.117.54c.52 0 1.052-.034 1.558-.15a13.04 13.04 0 0 0 1.274-.352V16.77c-.29.072-.582.138-.877.191-.41.077-.83.13-1.246.13a4.169 4.169 0 0 1-2.145-.566c-.676-.37-1.25-.876-1.597-1.566-.292-.579-.475-1.203-.475-1.851 0-.746.186-1.446.575-2.085a4.242 4.242 0 0 1 1.494-1.473 4.219 4.219 0 0 1 2.148-.566c.725 0 1.433.143 2.07.493.853.47 1.506 1.137 1.796 2.07.276.876.386 1.793.386 2.712v7.018zm-31.033 2.232v4.565c.517.104 1.036.21 1.553.317.453.098.908.186 1.365.26.419.069.836.113 1.26.135.519.029 1.039.036 1.56.036 1.002 0 2-.117 2.982-.308 1.097-.216 2.078-.749 2.941-1.439.55-.438 1.05-.94 1.442-1.52a7.474 7.474 0 0 0 .886-1.726 8.774 8.774 0 0 0 .446-1.923c.085-.719.12-1.441.12-2.163V13.91c0-.688-.054-1.376-.138-2.059a9.191 9.191 0 0 0-.584-2.245 8.37 8.37 0 0 0-1.282-2.172c-.605-.758-1.381-1.362-2.228-1.84a8.206 8.206 0 0 0-2.301-.877 11.716 11.716 0 0 0-5.256.054 7.622 7.622 0 0 0-2.446 1.054c-1.137.746-2.01 1.748-2.662 2.926-.711 1.286-1.026 2.683-1.026 4.147 0 .83.105 1.66.344 2.458.22.74.524 1.45.925 2.111.368.612.803 1.18 1.313 1.682.456.454.968.85 1.537 1.153l.004.002.003.002a6.833 6.833 0 0 0 2.031.75c.725.145 1.463.22 2.205.22a8.7 8.7 0 0 0 1.447-.1 4.43 4.43 0 0 0 .96-.277v-4.497a6.4 6.4 0 0 1-.65.19c-.39.094-.789.15-1.191.15a3.887 3.887 0 0 1-1.527-.308 3.921 3.921 0 0 1-1.231-.817 3.818 3.818 0 0 1-.832-1.215 3.703 3.703 0 0 1-.309-1.504c0-.53.096-1.05.309-1.54.199-.458.473-.873.825-1.23a3.804 3.804 0 0 1 1.238-.84 3.876 3.876 0 0 1 1.527-.304c.442 0 .88.087 1.305.223.497.166.934.45 1.31.806.449.431.759.992.978 1.566.3.778.378 1.682.378 2.506v5.624c0 .542-.019 1.085-.057 1.627a3.324 3.324 0 0 1-.467 1.52c-.316.512-.806.864-1.351 1.105-.75.328-1.745.394-2.557.394-.495 0-.997-.018-1.487-.072a15.522 15.522 0 0 1-1.287-.196 20.271 20.271 0 0 1-1.295-.304c-.342-.09-.687-.18-1.03-.274zm-11.374-2.232h5.028v-7.542c0-1.11-.128-2.234-.464-3.293-.285-.895-.682-1.762-1.233-2.534a7.727 7.727 0 0 0-1.766-1.793 8.712 8.712 0 0 0-2.103-1.128 8.073 8.073 0 0 0-1.737-.422 13.789 13.789 0 0 0-1.803-.12c-.78 0-1.56.075-2.33.224a8.572 8.572 0 0 0-2.166.722 8.576 8.576 0 0 0-1.998 1.366 8.682 8.682 0 0 0-1.554 1.87 9.317 9.317 0 0 0-1.014 2.262 8.746 8.746 0 0 0-.357 2.497c0 1.22.21 2.424.747 3.529.479.985 1.113 1.866 1.944 2.592a8.305 8.305 0 0 0 2.727 1.578c1.006.352 2.05.54 3.117.54.52 0 1.051-.034 1.56-.15.43-.093.855-.216 1.274-.352V16.77a15.4 15.4 0 0 1-.878.191c-.408.077-.83.13-1.246.13a4.16 4.16 0 0 1-2.145-.566c-.676-.37-1.247-.876-1.597-1.566-.294-.579-.477-1.203-.477-1.851 0-.746.19-1.446.58-2.085a4.173 4.173 0 0 1 1.49-1.473 4.214 4.214 0 0 1 2.15-.566c.725 0 1.432.143 2.066.493.856.47 1.507 1.137 1.797 2.07.278.876.388 1.793.388 2.712v7.018zm-30.786 0h5.026v-9.394c0-.275.013-.552.038-.826.024-.327.102-.645.24-.945.143-.315.368-.576.645-.787.347-.257.78-.341 1.204-.341.55 0 1.03.198 1.449.545.566.474.68 1.316.68 2.007v9.74h5.024v-9.845c0-.506-.041-1.017-.101-1.518a6.347 6.347 0 0 0-.49-1.746 6.35 6.35 0 0 0-1.148-1.73c-.57-.624-1.338-1.082-2.11-1.427a6.238 6.238 0 0 0-1.41-.429 8.47 8.47 0 0 0-1.504-.136c-.562 0-1.137.061-1.673.23a6.507 6.507 0 0 0-1.67.818 7.678 7.678 0 0 0-1.45 1.224l-.235.26-.24-.26a7.782 7.782 0 0 0-1.446-1.224 6.547 6.547 0 0 0-1.672-.817c-.75-.234-1.541-.293-2.32-.23a6.843 6.843 0 0 0-2.27.564c-.766.347-1.538.805-2.106 1.427a6.275 6.275 0 0 0-1.15 1.73 6.285 6.285 0 0 0-.49 1.746c-.06.5-.102 1.012-.102 1.518v9.846h5.024v-9.74c0-.183.022-.374.04-.555.025-.293.1-.577.22-.845.135-.315.355-.574.621-.787.352-.279.805-.366 1.248-.366.426 0 .859.084 1.204.341.282.217.505.486.649.808.134.304.214.628.237.958.022.263.038.53.038.792v9.394zM62.021 17.02v4.257h5.206c.538 0 1.075-.018 1.61-.05a7.703 7.703 0 0 0 1.51-.253c.48-.13.927-.34 1.342-.62.451-.305.818-.718 1.115-1.169.502-.761.725-1.607.725-2.517a5.83 5.83 0 0 0-.13-1.242 3.035 3.035 0 0 0-.452-1.062c-.335-.495-.796-.886-1.302-1.201a15.999 15.999 0 0 0-1.79-.956l-.005-.004h-.003a12.25 12.25 0 0 0-.869-.395 7.426 7.426 0 0 1-.888-.438 3.422 3.422 0 0 1-.7-.52c-.207-.204-.341-.456-.341-.747 0-.277.089-.536.312-.717.181-.145.393-.232.622-.277a3.9 3.9 0 0 1 .66-.055h4.001V4.796h-4.28c-.443 0-.885.005-1.326.018a6.72 6.72 0 0 0-1.402.184 5.193 5.193 0 0 0-1.403.56 3.95 3.95 0 0 0-1.211 1.097c-.573.775-.823 1.653-.823 2.61 0 .487.061.968.183 1.44.116.447.306.864.573 1.243.399.563.9 1.017 1.505 1.354.605.337 1.22.653 1.842.95.234.114.466.225.703.33.233.102.461.218.675.35.2.124.388.27.544.44.185.197.28.437.28.703 0 .25-.073.491-.282.652a1.364 1.364 0 0 1-.56.234 3.238 3.238 0 0 1-.631.06h-5.01z" fill="#B8B8B8"/><path d="M139.363 30.728a.668.668 0 0 0-.27.555c0 .224.09.417.27.556.18.136.405.182.628.182.219 0 .446-.046.623-.182a.677.677 0 0 0 .27-.556.673.673 0 0 0-.27-.555c-.177-.138-.404-.182-.623-.182-.223 0-.448.044-.628.182zm14.316.552a.67.67 0 0 0 .27.557c.178.135.403.183.626.183.223 0 .447-.048.625-.183a.673.673 0 0 0 .27-.556.67.67 0 0 0-.27-.554c-.178-.136-.402-.182-.625-.182-.223 0-.448.046-.626.182a.665.665 0 0 0-.27.554z" fill="#FFE51B"/></g></svg>