<?xml version="1.0" encoding="UTF-8"?>
<svg width="1073px" height="858px" viewBox="0 0 1073 858" version="1.1" xmlns="http://www.w3.org/2000/svg" xmlns:xlink="http://www.w3.org/1999/xlink">
    <!-- Generator: Sketch 45.2 (43514) - http://www.bohemiancoding.com/sketch -->
    <title>Page 1</title>
    <desc>Created with Sketch.</desc>
    <defs></defs>
    <g id="Page-1" stroke="none" stroke-width="1" fill="none" fill-rule="evenodd">
        <g id="Large-Device-Desktops-Copy-14" transform="translate(-81.000000, -673.000000)" fill="#F1F1F1">
            <g id="Page-1" transform="translate(81.000000, 673.000000)">
                <path d="M191.7996,843.929 C192.0836,844.217 192.3706,844.504 192.6656,844.787 C195.6366,847.643 199.4616,850.063 203.1966,851.771 C206.8996,853.464 210.8976,853.295 214.6946,854.585 C216.8166,855.306 218.7216,856.483 220.5676,857.746 C220.8426,857.569 221.1206,857.414 221.4046,857.283 C222.8016,854.746 225.0396,854.379 229.4136,854.71 C232.5016,854.944 235.5476,854.567 238.5246,853.812 C243.9066,849.224 245.1336,841.659 241.2506,833.864 C236.9246,825.179 230.7916,818.16 223.0666,812.387 C212.9546,804.829 201.6566,798.921 192.3296,790.268 C191.7756,789.754 190.8986,789.355 190.1516,789.318 C186.2716,789.127 178.0676,795.728 178.5396,799.603 C179.0956,804.169 176.7226,807.872 176.4896,812.115 C176.2346,816.727 176.6676,821.159 179.0666,825.086 C182.4416,830.609 186.0516,835.998 189.7566,841.307 C190.4006,842.229 191.0886,843.093 191.7996,843.929" id="Fill-1"></path>
                <path d="M0,789.1321 C3.801,778.6651 10.573,769.8221 15.762,760.1191 C18.319,755.3381 19.774,749.9721 21.797,744.8991 C24.402,738.3701 28.384,733.1691 34.962,729.9711 C37.877,728.5531 40.219,725.9571 42.819,723.8921 C45.039,722.1301 47.331,720.5261 50.111,719.7011 C52.973,718.8531 54.241,719.7191 53.918,722.7801 C53.423,727.4731 51.808,731.8231 49.791,736.0161 C46.481,742.8981 44.336,750.1431 41.947,757.3801 C36.191,774.8161 24.573,787.6621 7.555,795.2431 C4.782,796.4781 2.179,796.8121 0,794.1321 L0,789.1321 Z" id="Fill-3"></path>
                <path d="M1073,25.1321 C1071.516,28.1751 1070.261,31.3601 1068.497,34.2311 C1065.293,39.4431 1058.936,39.5741 1055.28,34.6641 C1054.085,33.0601 1053.364,31.2241 1052.818,29.2761 C1050.451,20.8411 1055.233,6.6331 1062.191,1.4251 C1064.542,-0.3349 1066.333,-0.9309 1067.934,2.3901 C1069.885,6.4361 1071.952,10.3911 1072.087,15.0121 C1073.235,17.6241 1071.661,20.5421 1073,23.1321 L1073,25.1321 Z" id="Fill-5"></path>
                <path d="M1073,23.1321 C1071.115,20.6031 1072.299,17.7291 1072.087,15.0121 C1072.382,15.1211 1072.687,15.1611 1073,15.1321 L1073,23.1321 Z" id="Fill-8"></path>
                <path d="M923.784864,89.7103079 C924.779864,93.5633079 922.967864,95.2403079 919.514864,96.1733079 C912.473864,98.0753079 906.290864,97.3223079 900.363864,92.5023079 C894.696864,87.8943079 890.268864,82.4133079 886.288864,76.4383079 C882.124864,70.1883079 877.593864,64.3513079 871.690864,59.5033079 C864.479864,53.5793079 864.395864,44.7033079 869.891864,37.2563079 C874.205864,31.4123079 878.195864,25.8313079 885.958864,24.2683079 C888.319864,23.7933079 890.015864,23.8643079 891.941864,25.1773079 C896.750864,28.4563079 900.117864,32.9273079 902.934864,37.9033079 C906.042864,43.3933079 909.903864,48.5933079 912.127864,54.4193079 C916.561864,66.0333079 923.944864,76.7263079 923.784864,89.7103079" id="Fill-10"></path>
                <path d="M346.8772,749.2254 C347.1602,744.6124 349.0832,741.5324 352.8082,738.1234 C360.0602,731.4854 368.4372,728.0824 377.2332,724.5224 C381.0912,722.9614 382.5532,723.7124 384.5222,726.0674 C386.6182,728.5734 387.2022,731.7674 387.8482,734.8424 C388.7192,738.9834 390.0292,742.7764 393.1392,745.8894 C394.3702,747.1214 395.2042,748.9544 395.7122,750.6644 C397.5592,756.8824 399.6012,762.6734 404.6732,767.4494 C408.4812,771.0354 407.9872,777.1754 409.4752,782.1284 C410.4342,785.3184 406.9182,787.7004 403.5472,786.2754 C400.2012,784.8604 397.2392,784.5584 394.1102,786.4384 C392.8692,787.1844 391.5162,787.2824 390.3422,786.4054 C381.7752,780.0014 371.0572,777.5714 362.4642,771.1384 C357.6242,767.5154 352.9082,763.9314 349.7752,758.6394 C348.0542,755.7324 346.8002,752.7014 346.8772,749.2254" id="Fill-12"></path>
                <path d="M212.5148,678.6461 C210.4468,674.5341 208.5048,670.3641 206.9098,666.0041 C206.1538,663.9371 205.3818,661.8671 204.4728,659.8621 C204.4238,659.7501 204.3658,659.6411 204.3158,659.5301 C204.1978,659.8811 204.0778,660.1921 203.9998,660.3631 C202.3958,663.8631 198.9288,662.7261 197.4398,659.7951 C196.2628,657.4781 196.3438,654.7701 195.8438,652.2871 C195.2588,649.3771 194.1878,646.6261 193.4278,643.7751 C192.0068,644.1631 190.6078,645.1551 189.3518,646.8271 C185.3828,652.1111 180.4418,657.0061 178.9098,663.9761 C176.8598,673.3031 173.6398,682.4591 176.2108,691.8401 C174.4228,696.5821 176.9638,699.6851 178.8968,703.1981 C181.7348,708.3561 185.9178,711.3381 191.3478,709.5341 C198.8828,707.0311 206.0908,703.4281 210.5008,696.2961 C213.3658,691.6641 215.0418,686.3751 213.2918,681.0581 C213.0278,680.2561 212.7728,679.4501 212.5148,678.6461" id="Fill-14"></path>
                <path d="M655.473522,543.284799 C658.23425,542.52657 660.996922,541.78584 663.740153,541.006226 C663.973454,540.920682 664.179537,540.844859 664.350624,540.782646 C665.748486,540.275216 667.124961,539.72307 668.491716,539.147595 C667.111352,532.947621 657.866801,537.232582 654.991367,540.7146 C653.327153,542.732653 653.943456,543.343124 655.473522,543.284799" id="Fill-16"></path>
                <path d="M667.7143,556.0731 C666.6693,556.5171 665.6083,556.9201 664.5313,557.2861 C660.8753,559.0081 657.0663,560.3991 654.3873,560.2661 C652.4893,560.8301 650.6063,561.4561 648.7633,562.2151 C648.4233,562.4161 648.0613,562.5991 647.6573,562.7461 C635.8673,567.0171 629.9383,575.9641 627.7063,588.0351 C626.2593,595.8631 624.5523,603.7431 618.7993,609.9241 C617.3123,611.5211 617.3923,613.6221 617.9523,615.6031 C619.0243,619.3971 623.8123,621.9411 628.9763,621.4651 C631.2783,621.2531 633.5303,620.3641 635.6253,621.0031 C645.5523,621.4601 653.7453,615.3031 653.9083,606.2591 C654.2093,589.5651 660.0223,574.7601 667.9683,560.5371 C669.0573,558.5871 668.9673,557.2211 667.7143,556.0731" id="Fill-18"></path>
                <path d="M737.049771,175.204252 C736.790771,168.077252 738.767771,161.852252 743.456771,157.053252 C748.015771,152.388252 751.728771,147.073252 756.080771,142.282252 C764.173771,133.370252 774.530771,129.183252 786.347771,128.392252 C788.344771,128.258252 789.246771,127.209252 790.296771,125.879252 C791.865771,123.892252 793.921771,123.190252 795.813771,125.215252 C797.693771,127.228252 795.755771,128.560252 794.312771,129.586252 C792.678771,130.747252 792.025771,131.774252 792.371771,134.052252 C793.028771,138.373252 789.827771,140.736252 786.450771,142.329252 C783.677771,143.636252 782.206771,145.605252 780.949771,148.294252 C775.306771,160.362252 767.742771,171.342252 760.978771,182.775252 C758.365771,187.190252 748.491771,190.612252 743.591771,189.207252 C740.781771,188.401252 739.098771,186.413252 738.281771,183.733252 C737.407771,180.863252 736.820771,177.920252 737.049771,175.204252" id="Fill-20"></path>
                <path d="M958.397048,111.455893 C960.648048,111.997893 963.087048,111.139893 965.619048,110.169893 C968.251048,109.159893 971.108048,108.745893 973.956048,109.157893 C975.050048,109.316893 976.402048,109.460893 976.755048,110.860893 C977.107048,112.257893 976.111048,113.172893 975.086048,113.614893 C970.575048,115.557893 968.074048,119.636893 964.915048,122.991893 C958.971048,129.302893 953.026048,135.603893 945.579048,140.199893 C943.789048,141.304893 942.803048,143.023893 941.539048,144.540893 C937.551048,149.324893 933.154048,153.582893 927.078048,155.611893 C920.645048,157.759893 914.237048,156.008893 910.911048,151.281893 C907.822048,146.891893 908.435048,142.058893 913.062048,136.269893 C914.715048,134.201893 916.527048,132.137893 918.642048,130.583893 C927.756048,123.886893 937.319048,117.899893 947.689048,113.301893 C950.934048,111.862893 954.381048,111.376893 958.397048,111.455893" id="Fill-22"></path>
                <path d="M813.5899,217.0533 C810.6869,216.5863 808.0189,216.3563 805.4579,215.7063 C799.5889,214.2183 798.1169,209.6733 801.8939,204.8183 C805.5229,200.1513 810.5829,197.0863 815.2309,193.6483 C822.4329,188.3203 829.8979,183.3203 837.4709,178.5273 C841.8899,175.7303 846.3139,172.8453 852.0289,172.7183 C855.3439,172.6443 857.9429,169.9063 860.8049,168.2483 C862.2319,167.4213 863.9649,166.3343 865.4089,167.4773 C866.7369,168.5283 865.9239,170.3403 865.2669,171.6183 C855.5299,190.5473 845.3069,209.0553 822.6649,215.3943 C819.6509,216.2383 816.4849,216.5373 813.5899,217.0533" id="Fill-24"></path>
                <path d="M598.186,710.6261 C598.239,713.5821 597.431,716.0661 593.992,716.9171 C592.88,717.1921 591.852,717.8091 590.787,718.2731 C585.846,720.4281 581.074,723.9121 575.334,720.7291 C567.24,716.2401 559.498,711.4351 557.577,701.2291 C557.127,698.8361 557.042,696.5181 557.937,694.3781 C560.415,688.4511 563.389,682.7061 566.357,677.0541 C569.544,670.9871 579.046,671.0801 581.676,677.0381 C585.449,685.5821 591.14,692.8981 595.476,701.0411 C597.047,703.9911 598.318,707.0561 598.186,710.6261" id="Fill-26"></path>
                <path d="M656.1289,260.9107 C654.9109,267.6597 652.0469,272.6667 649.1369,277.6757 C645.1509,284.5357 641.1679,291.2857 639.5689,299.3497 C637.9149,307.6887 623.0849,314.0247 615.4489,310.2997 C609.3809,307.3397 607.3409,301.5247 611.0519,296.0037 C614.3949,291.0287 617.1029,285.7327 620.1119,280.5897 C622.6989,276.1677 626.3919,273.2067 631.1189,270.9617 C639.0499,267.1947 647.3909,264.5977 656.1289,260.9107" id="Fill-28"></path>
                <path d="M830.2166,559.0867 C823.1796,559.0607 818.1826,553.1157 820.4146,546.2637 C823.8596,535.6837 829.3626,526.3637 841.2116,523.3377 C847.9596,521.6147 853.3276,517.1667 859.7056,514.7917 C861.0656,514.2847 862.6676,513.0787 863.8196,513.9417 C865.3666,515.1007 864.6926,517.3547 863.8906,518.5757 C856.6856,529.5317 853.0846,542.5787 844.2586,552.5587 C840.5836,556.7137 835.9016,559.0777 830.2166,559.0867" id="Fill-30"></path>
                <path d="M290.1409,774.6007 C289.8199,774.5537 289.4789,774.5107 289.1159,774.4687 C288.1279,774.3557 287.1269,774.3647 285.0289,774.2637 C283.4299,773.8487 281.5209,774.8177 279.5879,776.8607 C277.6959,778.8587 275.2419,780.6097 272.6999,781.6557 C263.9769,785.2427 259.7509,791.7457 258.7309,800.9167 C258.1939,805.7547 260.7919,810.8987 265.8019,812.7897 C269.6669,814.2487 274.3349,815.1037 276.5899,810.9857 C280.2629,804.2817 284.7579,798.0517 288.5449,791.4117 C289.8119,785.9287 290.4339,780.3277 290.1409,774.6007" id="Fill-32"></path>
                <path d="M295.8423,776.6891 C296.3913,775.8221 297.2323,775.2861 298.2103,775.3851 C298.9533,775.4601 299.8083,775.9951 299.5873,776.9251 C299.3803,777.7961 298.5053,777.9961 297.6513,777.9721 C296.7653,777.9481 296.1423,777.5531 295.8423,776.6891" id="Fill-34"></path>
                <path d="M859.154302,216.360401 C859.555302,214.237401 857.437302,213.930401 855.894302,214.011401 C853.163302,214.153401 850.988302,215.350401 849.068302,217.050401 C848.958302,217.829401 848.961302,218.554401 849.226302,219.087401 C849.371302,219.380401 849.590302,219.599401 849.853302,219.767401 C850.208302,219.756401 850.579302,219.670401 850.958302,219.477401 C853.194302,218.337401 855.571302,217.804401 858.074302,217.798401 C858.172302,217.797401 858.258302,217.779401 858.350302,217.769401 C858.746302,217.374401 859.050302,216.911401 859.154302,216.360401" id="Fill-36"></path>
                <path d="M232.3872,644.7227 C233.4132,640.9637 234.9812,637.4697 236.6732,633.9437 C236.6262,632.8197 236.5122,631.6857 236.3022,630.5387 C235.8702,628.1817 232.8782,628.4107 231.7322,629.9407 C227.9162,635.0397 226.2462,641.3557 227.0632,647.6737 C227.2232,648.9107 228.0952,649.6607 229.0692,649.9297 C229.6432,647.9747 231.0182,646.3177 232.3872,644.7227" id="Fill-38"></path>
            </g>
        </g>
    </g>
</svg>