<?xml version="1.0" encoding="UTF-8"?>
<svg width="865px" height="345px" viewBox="0 0 865 345" version="1.1" xmlns="http://www.w3.org/2000/svg" xmlns:xlink="http://www.w3.org/1999/xlink">
    <!-- Generator: Sketch 45.2 (43514) - http://www.bohemiancoding.com/sketch -->
    <title>Fill 1</title>
    <desc>Created with Sketch.</desc>
    <defs></defs>
    <g id="Page-1" stroke="none" stroke-width="1" fill="none" fill-rule="evenodd">
        <g id="Large-Device-Desktops-Copy-14" transform="translate(-81.000000, -1186.000000)" fill="#D0F5E1">
            <g id="Page-1" transform="translate(81.000000, 673.000000)">
                <g id="Fill-1" transform="translate(0.000000, 513.000000)">
                    <path d="M191.7996,330.929 C192.0836,331.217 192.3706,331.504 192.6656,331.787 C195.6366,334.643 199.4616,337.063 203.1966,338.771 C206.8996,340.464 210.8976,340.295 214.6946,341.585 C216.8166,342.306 218.7216,343.483 220.5676,344.746 C220.8426,344.569 221.1206,344.414 221.4046,344.283 C222.8016,341.746 225.0396,341.379 229.4136,341.71 C232.5016,341.944 235.5476,341.567 238.5246,340.812 C243.9066,336.224 245.1336,328.659 241.2506,320.864 C236.9246,312.179 230.7916,305.16 223.0666,299.387 C212.9546,291.829 201.6566,285.921 192.3296,277.268 C191.7756,276.754 190.8986,276.355 190.1516,276.318 C186.2716,276.127 178.0676,282.728 178.5396,286.603 C179.0956,291.169 176.7226,294.872 176.4896,299.115 C176.2346,303.727 176.6676,308.159 179.0666,312.086 C182.4416,317.609 186.0516,322.998 189.7566,328.307 C190.4006,329.229 191.0886,330.093 191.7996,330.929"></path>
                    <path d="M0,276.1321 C3.801,265.6651 10.573,256.8221 15.762,247.1191 C18.319,242.3381 19.774,236.9721 21.797,231.8991 C24.402,225.3701 28.384,220.1691 34.962,216.9711 C37.877,215.5531 40.219,212.9571 42.819,210.8921 C45.039,209.1301 47.331,207.5261 50.111,206.7011 C52.973,205.8531 54.241,206.7191 53.918,209.7801 C53.423,214.4731 51.808,218.8231 49.791,223.0161 C46.481,229.8981 44.336,237.1431 41.947,244.3801 C36.191,261.8161 24.573,274.6621 7.555,282.2431 C4.782,283.4781 2.179,283.8121 0,281.1321 L0,276.1321 Z" id="Fill-3"></path>
                    <path d="M346.8772,236.2254 C347.1602,231.6124 349.0832,228.5324 352.8082,225.1234 C360.0602,218.4854 368.4372,215.0824 377.2332,211.5224 C381.0912,209.9614 382.5532,210.7124 384.5222,213.0674 C386.6182,215.5734 387.2022,218.7674 387.8482,221.8424 C388.7192,225.9834 390.0292,229.7764 393.1392,232.8894 C394.3702,234.1214 395.2042,235.9544 395.7122,237.6644 C397.5592,243.8824 399.6012,249.6734 404.6732,254.4494 C408.4812,258.0354 407.9872,264.1754 409.4752,269.1284 C410.4342,272.3184 406.9182,274.7004 403.5472,273.2754 C400.2012,271.8604 397.2392,271.5584 394.1102,273.4384 C392.8692,274.1844 391.5162,274.2824 390.3422,273.4054 C381.7752,267.0014 371.0572,264.5714 362.4642,258.1384 C357.6242,254.5154 352.9082,250.9314 349.7752,245.6394 C348.0542,242.7324 346.8002,239.7014 346.8772,236.2254" id="Fill-12"></path>
                    <path d="M212.5148,165.6461 C210.4468,161.5341 208.5048,157.3641 206.9098,153.0041 C206.1538,150.9371 205.3818,148.8671 204.4728,146.8621 C204.4238,146.7501 204.3658,146.6411 204.3158,146.5301 C204.1978,146.8811 204.0778,147.1921 203.9998,147.3631 C202.3958,150.8631 198.9288,149.7261 197.4398,146.7951 C196.2628,144.4781 196.3438,141.7701 195.8438,139.2871 C195.2588,136.3771 194.1878,133.6261 193.4278,130.7751 C192.0068,131.1631 190.6078,132.1551 189.3518,133.8271 C185.3828,139.1111 180.4418,144.0061 178.9098,150.9761 C176.8598,160.3031 173.6398,169.4591 176.2108,178.8401 C174.4228,183.5821 176.9638,186.6851 178.8968,190.1981 C181.7348,195.3561 185.9178,198.3381 191.3478,196.5341 C198.8828,194.0311 206.0908,190.4281 210.5008,183.2961 C213.3658,178.6641 215.0418,173.3751 213.2918,168.0581 C213.0278,167.2561 212.7728,166.4501 212.5148,165.6461" id="Fill-14"></path>
                    <path d="M655.473522,30.2847986 C658.23425,29.5265705 660.996922,28.7858398 663.740153,28.0062258 C663.973454,27.9206821 664.179537,27.8448592 664.350624,27.7826457 C665.748486,27.275216 667.124961,26.7230704 668.491716,26.1475946 C667.111352,19.9476212 657.866801,24.2325825 654.991367,27.7145995 C653.327153,29.732653 653.943456,30.3431239 655.473522,30.2847986" id="Fill-16"></path>
                    <path d="M667.7143,43.0731 C666.6693,43.5171 665.6083,43.9201 664.5313,44.2861 C660.8753,46.0081 657.0663,47.3991 654.3873,47.2661 C652.4893,47.8301 650.6063,48.4561 648.7633,49.2151 C648.4233,49.4161 648.0613,49.5991 647.6573,49.7461 C635.8673,54.0171 629.9383,62.9641 627.7063,75.0351 C626.2593,82.8631 624.5523,90.7431 618.7993,96.9241 C617.3123,98.5211 617.3923,100.6221 617.9523,102.6031 C619.0243,106.3971 623.8123,108.9411 628.9763,108.4651 C631.2783,108.2531 633.5303,107.3641 635.6253,108.0031 C645.5523,108.4601 653.7453,102.3031 653.9083,93.2591 C654.2093,76.5651 660.0223,61.7601 667.9683,47.5371 C669.0573,45.5871 668.9673,44.2211 667.7143,43.0731" id="Fill-18"></path>
                    <path d="M598.186,197.6261 C598.239,200.5821 597.431,203.0661 593.992,203.9171 C592.88,204.1921 591.852,204.8091 590.787,205.2731 C585.846,207.4281 581.074,210.9121 575.334,207.7291 C567.24,203.2401 559.498,198.4351 557.577,188.2291 C557.127,185.8361 557.042,183.5181 557.937,181.3781 C560.415,175.4511 563.389,169.7061 566.357,164.0541 C569.544,157.9871 579.046,158.0801 581.676,164.0381 C585.449,172.5821 591.14,179.8981 595.476,188.0411 C597.047,190.9911 598.318,194.0561 598.186,197.6261" id="Fill-26"></path>
                    <path d="M830.2166,46.0867 C823.1796,46.0607 818.1826,40.1157 820.4146,33.2637 C823.8596,22.6837 829.3626,13.3637 841.2116,10.3377 C847.9596,8.6147 853.3276,4.1667 859.7056,1.7917 C861.0656,1.2847 862.6676,0.0787 863.8196,0.9417 C865.3666,2.1007 864.6926,4.3547 863.8906,5.5757 C856.6856,16.5317 853.0846,29.5787 844.2586,39.5587 C840.5836,43.7137 835.9016,46.0777 830.2166,46.0867" id="Fill-30"></path>
                    <path d="M290.1409,261.6007 C289.8199,261.5537 289.4789,261.5107 289.1159,261.4687 C288.1279,261.3557 287.1269,261.3647 285.0289,261.2637 C283.4299,260.8487 281.5209,261.8177 279.5879,263.8607 C277.6959,265.8587 275.2419,267.6097 272.6999,268.6557 C263.9769,272.2427 259.7509,278.7457 258.7309,287.9167 C258.1939,292.7547 260.7919,297.8987 265.8019,299.7897 C269.6669,301.2487 274.3349,302.1037 276.5899,297.9857 C280.2629,291.2817 284.7579,285.0517 288.5449,278.4117 C289.8119,272.9287 290.4339,267.3277 290.1409,261.6007" id="Fill-32"></path>
                    <path d="M295.8423,263.6891 C296.3913,262.8221 297.2323,262.2861 298.2103,262.3851 C298.9533,262.4601 299.8083,262.9951 299.5873,263.9251 C299.3803,264.7961 298.5053,264.9961 297.6513,264.9721 C296.7653,264.9481 296.1423,264.5531 295.8423,263.6891" id="Fill-34"></path>
                    <path d="M232.3872,131.7227 C233.4132,127.9637 234.9812,124.4697 236.6732,120.9437 C236.6262,119.8197 236.5122,118.6857 236.3022,117.5387 C235.8702,115.1817 232.8782,115.4107 231.7322,116.9407 C227.9162,122.0397 226.2462,128.3557 227.0632,134.6737 C227.2232,135.9107 228.0952,136.6607 229.0692,136.9297 C229.6432,134.9747 231.0182,133.3177 232.3872,131.7227" id="Fill-38"></path>
                </g>
            </g>
        </g>
    </g>
</svg>