<?xml version="1.0" encoding="UTF-8"?>
<svg width="617px" height="291px" viewBox="0 0 617 291" version="1.1" xmlns="http://www.w3.org/2000/svg" xmlns:xlink="http://www.w3.org/1999/xlink">
    <!-- Generator: Sketch 45.2 (43514) - http://www.bohemiancoding.com/sketch -->
    <title>Fill 33</title>
    <desc>Created with Sketch.</desc>
    <defs></defs>
    <g id="Page-1" stroke="none" stroke-width="1" fill="none" fill-rule="evenodd">
        <g id="Large-Device-Desktops-Copy-14" transform="translate(-603.000000, -2617.000000)" fill="#D0F5E1">
            <g id="Page-1" transform="translate(127.000000, 2616.000000)">
                <g id="Fill-33" transform="translate(476.000000, 0.000000)">
                    <path d="M337.152967,214.687517 C336.714984,214.649927 336.449417,214.653196 336.195289,214.601715 C330.130539,213.375152 329.97937,211.565952 332.666098,206.941623 C333.524903,205.462557 334.811068,204.299733 336.192837,203.301159 C337.989709,202.003504 339.829889,200.761415 341.688863,199.554464 C343.883678,198.129331 346.026197,196.651899 347.899879,194.80511 C348.448991,194.264147 349.081451,193.777118 349.749047,193.392234 C353.237381,191.384463 355.839128,188.500693 357.945692,185.138064 C359.053723,183.369722 360.063697,181.54091 361.120248,179.741516 C361.78049,178.616282 362.440732,177.491048 363.109146,176.369899 C366.387477,170.86712 371.295168,167.323081 377.104973,164.959027 C379.154338,164.124703 381.296857,163.529808 383.146842,162.260753 C384.092263,161.611925 385.079358,161.590679 386.122835,161.984551 C387.102575,162.354727 387.538923,163.114689 387.345263,164.136143 C387.094404,165.457497 386.3835,166.568839 385.630105,167.62298 C384.092263,169.774572 383.116608,172.163958 382.284769,174.651404 C380.878485,178.853259 379.430529,183.042857 377.902493,187.20222 C376.506015,191.003665 374.74428,194.63514 372.545379,198.055786 C367.895902,205.29177 361.372742,209.651338 352.836987,210.756143 C350.473026,211.061762 348.266771,211.674635 346.061333,212.484444 C343.616476,213.382507 341.122591,214.138383 338.529833,214.505289 C338.014223,214.578017 337.496979,214.641756 337.152967,214.687517"></path>
                    <path d="M134.939133,147.669673 C134.939133,144.906591 134.755383,142.13004 134.973766,139.384275 C135.6318,131.093106 139.67717,124.59717 145.991025,119.392339 C146.819339,118.710228 147.863151,118.235924 148.546198,117.44125 C151.407299,114.108619 155.220817,112.647226 159.336415,111.790016 C161.801157,111.27723 164.081187,109.725401 166.768159,110.409437 C167.560878,112.836754 166.782589,115.262148 166.689272,117.676958 C166.09377,133.030727 162.111895,147.645621 156.831269,161.96612 C156.195361,163.691122 155.445934,165.403617 155.069777,167.190192 C154.313615,170.781621 152.09708,172.921277 148.675111,173.618782 C144.96453,174.374974 141.602208,173.407126 139.227898,170.264986 C137.06235,167.399924 135.842486,164.087497 135.312403,160.542248 C134.67361,156.274479 134.368644,151.986507 134.939133,147.669673" id="Fill-37" transform="translate(150.879385, 142.050585) rotate(27.000000) translate(-150.879385, -142.050585) "></path>
                    <path d="M343.018255,82.0357158 C343.179877,74.8490093 345.214587,69.315149 349.749634,64.9636799 C352.098931,62.7085741 354.049944,60.1850492 356.058679,57.6692208 C357.686447,55.6325063 359.375786,53.6304264 361.193076,51.7630372 C364.124405,48.7498156 367.607945,46.5832208 371.648504,45.2882667 C373.82752,44.5897997 375.929573,43.6479274 378.055677,42.7907178 C380.060564,41.9825741 382.049097,41.270638 384.277177,41.9229254 C385.574004,42.3029454 386.666879,41.8863665 387.483649,40.737648 C387.924263,40.1180711 388.439915,39.5273566 389.017138,39.0347737 C390.168697,38.0534564 391.529019,38.138119 392.754655,39.1704264 C393.607021,39.8890971 393.7292,40.7530412 393.097141,41.5794643 C393.003823,41.701648 392.925898,41.8363386 392.823922,41.9498635 C391.453018,43.4834125 390.262977,46.0232927 390.058063,47.9782308 C389.88682,49.6127977 389.036378,50.9077518 387.831907,51.8717518 C386.524497,52.9175282 385.113188,53.9277079 383.587395,54.5742228 C382.304037,55.1177957 381.656585,55.9740432 381.143819,57.1160272 C376.289375,67.9364943 369.477185,77.6380671 363.595285,87.8716679 C362.953605,88.9867138 362.143569,89.7977438 361.027605,90.4048136 C357.920223,92.0951809 354.820536,93.7749653 351.134969,93.7537997 C347.620644,93.7345582 345.197271,92.1403985 344.236195,88.8173885 C343.514666,86.3217637 342.883569,83.762642 343.018255,82.0357158" id="Fill-55"></path>
                    <path d="M0.196864535,204.699622 C0.770239161,196.832728 3.23305634,188.549255 8.45307433,181.195147 C9.62002637,179.55096 10.9312841,178.21175 12.9534879,177.4469 C15.4201532,176.512724 17.2932412,174.590497 19.0479984,172.628824 C20.483359,171.024081 21.9090993,169.41068 23.3598525,167.819407 C24.6663001,166.384952 26.2950304,165.606632 28.2479674,165.615291 C29.1580553,165.620101 30.1604989,165.546984 30.8233431,166.325303 C31.6814809,167.335483 30.721367,167.938704 30.187436,168.62274 C29.7776078,169.147071 29.7266198,169.722393 29.9796358,170.336197 C31.1562082,173.183942 30.695392,176.048042 30.1200933,178.934269 C29.4889964,182.094688 28.9810404,185.226245 29.5467187,188.521355 C30.1258655,191.88862 29.1417007,195.255886 28.7049355,198.600061 C28.0873071,203.336361 26.817417,207.930273 24.8279225,212.290401 C23.5464879,215.0987 21.7657556,217.588552 19.8897816,220.044732 C17.567422,223.085854 14.5754839,223.462026 11.2343261,222.646185 C8.80037003,222.052584 6.73776064,220.72492 5.04457383,218.841175 C2.06129411,215.521051 0.0996987013,210.2787 0.196864535,204.699622" id="Fill-61"></path>
                    <path d="M563.445271,128.557 C563.325016,125.111807 564.454449,122.302545 566.0649,119.630861 C567.903355,116.582042 570.307488,114.000793 572.79147,111.489775 C575.920979,108.325507 579.091856,105.202609 582.229062,102.046038 C585.352799,98.9019745 589.213458,97.0201541 593.429108,96.0571162 C597.449465,95.1383337 601.573721,94.6534475 605.666231,94.0810124 C608.835184,93.6374954 612.057049,93.5249325 615.065342,92.2482579 C615.683932,91.9856112 616.189964,92.4926251 616.204395,93.1718507 C616.241914,94.9593876 615.399169,96.4198188 614.509284,97.856198 C613.059493,100.197891 611.228734,102.295216 610.105074,104.848565 C609.582687,106.033843 608.393608,106.567795 607.430608,107.311479 C602.185577,111.368553 597.349413,115.84413 593.546477,121.315455 C592.063014,123.44934 590.738288,125.705408 589.486676,127.985527 C586.125316,134.108178 580.628231,136.648058 574.01903,137.17239 C571.715911,137.355184 569.460894,136.629779 567.435804,135.435843 C564.728629,133.840721 562.97291,131.683747 563.445271,128.557" id="Fill-65"></path>
                    <path d="M490.976105,75.9639872 C492.365288,76.2699273 494.419239,75.6676679 496.412582,74.8258515 C499.072617,73.7021469 501.828856,73.8637756 504.57836,74.2014643 C505.068038,74.262075 505.64526,74.8479792 505.889618,75.3376758 C506.173419,75.9053006 505.767439,76.5133325 505.357611,76.9914842 C505.159431,77.2223824 504.955479,77.5052327 504.691881,77.6149094 C501.27376,79.0358954 499.229429,81.9952407 496.857044,84.5813006 C491.54948,90.3681868 486.210169,96.1204383 479.451853,100.292961 C478.225254,101.050115 477.460434,102.190175 476.624423,103.284055 C474.36652,106.237628 471.761321,108.82946 468.683762,110.92871 C465.394554,113.171309 461.808077,114.232478 457.795416,113.808203 C456.544767,113.675436 455.395131,113.342558 454.271471,112.830734 C449.38528,110.608339 447.524699,105.926877 449.57865,100.984694 C450.474307,98.8286818 451.834629,96.9699513 453.391206,95.2555321 C455.781871,92.6204064 458.5054,90.3729972 461.538706,88.518115 C465.859218,85.8762547 470.17011,83.216115 474.553155,80.680083 C476.534954,79.5332886 478.652399,78.6087337 480.755414,77.6899513 C483.74158,76.3844144 486.856659,75.6195641 490.976105,75.9639872" id="Fill-76"></path>
                    <path d="M513.878862,143.571077 C512.980319,147.157696 511.330424,149.906347 509.537185,152.5636 C506.152735,157.576016 501.850502,161.734107 497.141326,165.472734 C494.861296,167.284323 492.339794,168.79863 490.104018,170.658323 C486.161587,173.93804 481.518791,174.499892 476.713412,174.297856 C474.132264,174.190103 471.523217,173.98903 469.037311,173.017333 C467.567317,172.442012 466.252211,171.720455 465.26516,170.505353 C464.016435,168.968918 463.462301,167.355517 464.75528,165.489089 C465.536455,164.360574 466.082892,163.070431 466.808269,161.899584 C467.808788,160.285221 469.170072,159.014319 471.041236,158.556371 C472.591079,158.177313 473.768613,157.421121 474.871109,156.271441 C477.473422,153.558387 480.782832,151.927668 484.282726,150.707756 C487.600795,149.549417 490.962156,148.514223 494.302352,147.421305 C495.17492,147.136531 496.104249,146.952774 496.900816,146.52465 C501.66098,143.973225 506.97143,144.145437 512.09332,143.390207 C512.527199,143.325748 512.992825,143.473908 513.878862,143.571077" id="Fill-92"></path>
                    <path d="M469.066268,291.310212 C464.542766,291.359278 461.739387,287.822687 462.838034,283.622264 C462.990036,283.040208 463.291154,282.494711 463.548018,281.943442 C465.16328,278.468424 466.806441,275.006875 468.400538,271.522236 C469.678124,268.72933 471.020167,265.975869 472.72105,263.408088 C475.131917,259.768555 478.100767,256.718775 481.934488,254.561801 C484.872552,252.908954 487.754818,251.147394 490.750604,249.609034 C492.645819,248.635414 494.658402,247.821497 496.702733,247.22501 C499.204031,246.493833 501.303198,248.788384 500.49701,251.296515 C500.126626,252.44812 499.483984,253.525645 498.8779,254.586815 C495.382817,260.702731 491.751123,266.739757 488.61488,273.056747 C487.045796,276.216204 485.383394,279.334292 483.25248,282.170491 C480.223984,286.201589 476.46434,289.236939 471.586808,290.75798 C471.14908,290.894595 470.72867,291.101442 470.283246,291.195725 C469.835899,291.29097 469.367386,291.285198 469.066268,291.310212" id="Fill-96"></path>
                    <path d="M586.695804,18.0238176 C586.824717,22.4493665 585.48075,26.2765042 583.477787,30.016093 C581.108288,34.4397178 574.259539,34.5898016 571.706291,30.0237896 C569.685049,26.4092707 568.639314,22.5609673 569.419526,18.5164004 C570.236297,14.2909633 571.775557,10.2463964 574.142171,6.59339441 C574.806939,5.56782156 575.542898,4.52974172 576.452024,3.73218084 C581.183327,-0.423986826 581.140997,0.203286627 583.622093,4.86165788 C585.817464,8.98415289 586.94401,13.4443365 586.695804,18.0238176" id="Fill-102"></path>
                </g>
            </g>
        </g>
    </g>
</svg>