<?xml version="1.0" encoding="UTF-8"?>
<svg width="541px" height="257px" viewBox="0 0 541 257" version="1.1" xmlns="http://www.w3.org/2000/svg" xmlns:xlink="http://www.w3.org/1999/xlink">
    <!-- Generator: Sketch 45.2 (43514) - http://www.bohemiancoding.com/sketch -->
    <title>Fill 7</title>
    <desc>Created with Sketch.</desc>
    <defs></defs>
    <g id="Page-1" stroke="none" stroke-width="1" fill="none" fill-rule="evenodd">
        <g id="Large-Device-Desktops-Copy-14" transform="translate(-127.000000, -3126.000000)" fill="#D0F5E1">
            <g id="Page-1" transform="translate(127.000000, 2616.000000)">
                <g id="Fill-7" transform="translate(0.000000, 510.000000)">
                    <path d="M147.717851,191.491635 C148.721256,190.986545 149.703497,190.600752 150.503912,191.831248 C150.83774,192.344996 151.236985,192.816413 151.559268,193.336896 C152.57518,194.969539 153.813323,196.015315 155.911528,196.289507 C158.045328,196.567547 159.852035,197.927922 161.49231,199.351794 C162.768934,200.461068 164.005153,201.617483 165.272157,202.737339 C166.896077,204.173719 168.646986,205.555259 170.749039,206.031487 C172.809725,206.498094 174.364378,207.601595 175.943082,208.833052 C178.62332,210.923643 180.989933,213.333643 183.294014,215.814836 C185.693337,218.39801 187.593362,221.436246 190.454463,223.605727 C190.911431,223.952074 191.156751,224.597627 191.451134,225.131579 C191.785923,225.738649 191.70896,226.405367 191.146168,226.759411 C189.991723,227.484816 188.878645,228.017806 189.309638,229.824585 C189.540527,230.790509 188.459196,231.565942 187.591438,231.72276 C184.702438,232.242281 182.047213,233.468928 179.248645,234.233778 C178.237543,234.509894 177.126389,234.431966 176.059489,234.482956 C175.759333,234.497387 175.454367,234.381938 175.148439,234.35019 C172.553823,234.075036 169.820673,234.219347 167.403071,233.415052 C165.140358,232.661747 163.271118,230.797244 161.12385,229.61389 C157.601829,227.672421 153.962439,226.017651 149.746789,226.878709 C148.757814,227.080745 147.947778,226.622796 147.155058,226.162924 C145.961169,225.471192 144.816344,224.69191 143.609948,224.021343 C141.853267,223.045798 139.934001,222.085647 137.977216,222.218413 C134.873682,222.43007 132.299268,221.180333 129.630575,220.054705 C125.239834,218.201747 121.005904,216.046697 117.064435,213.352884 C114.384197,211.522054 111.959862,209.395866 109.910721,206.870417 C106.979391,203.25686 105.605601,199.167076 105.920187,194.467335 C106.052948,192.486421 106.726375,190.917275 108.176166,189.63098 C108.865947,189.0191 109.564387,188.415878 110.266675,187.817467 C111.585629,186.693762 112.43126,185.385339 112.841088,183.607423 C113.623225,180.207447 116.100473,178.11878 119.174184,176.782457 C120.590304,176.166729 122.069918,176.031076 123.531254,177.079739 C125.783385,178.696988 128.160581,180.094884 131.09191,180.165116 C131.618145,180.177623 132.263673,180.600936 132.632133,181.028098 C134.693781,183.413084 137.408652,184.867743 140.094662,186.348377 C142.5392,187.696246 144.685507,189.374106 146.468163,191.520497 C147.166603,193.796768 143.969751,192.67595 143.988991,194.359583 C146.934752,195.863307 146.934752,195.863307 147.717851,191.491635"></path>
                    <path d="M154.916396,85.0192778 C154.948143,82.8671142 155.094373,80.7495852 155.712963,78.6493737 C156.349832,76.4856651 157.323415,74.3739086 156.717331,71.9494774 C156.415251,70.7362998 157.197388,69.584695 157.909296,68.5648946 C159.533216,66.2414814 161.7536,64.6261561 164.224113,63.3254295 C166.334824,62.215194 168.089582,62.329681 169.98191,64.1730184 C174.060951,68.1444675 178.874027,71.207717 183.587051,74.3777569 C187.786347,77.2014495 191.976022,80.0424595 196.082,82.9979565 C202.930748,87.9285952 208.28449,94.1580363 211.971981,101.78345 C213.992261,105.961745 214.584876,110.254527 213.061008,114.725294 C211.029184,120.68343 204.377654,124.029529 198.532311,121.957218 C197.551994,121.608947 196.721755,120.837362 195.816478,120.270699 C195.400877,120.009976 194.861174,119.946479 194.759198,120.48428 C194.215647,123.349342 192.125138,123.080923 190.134682,122.714372 C188.796487,122.469042 187.491001,121.940863 186.229769,121.4021 C182.856864,119.962835 179.489731,118.504328 176.1707,116.948651 C172.916126,115.422799 170.249357,113.093613 168.057834,110.282428 C166.363686,108.108136 164.848476,105.791457 163.310177,103.500755 C161.600636,100.95414 160.063299,98.2843796 158.253705,95.8137689 C156.153577,92.9467828 154.778824,88.6944076 154.916396,85.0192778" id="Fill-13"></path>
                    <path d="M540.683902,244.564487 C540.268302,253.327074 531.475275,259.186116 524.240749,254.933741 C516.834019,250.579386 509.71109,245.767082 503.580022,239.645394 C498.883353,234.956236 494.852413,229.796623 491.622852,223.965481 C490.070123,221.162954 489.920045,218.574008 491.006186,215.639677 C491.918198,213.177725 492.932186,210.795625 494.447396,208.659817 C495.356521,207.376408 495.810603,206.072795 495.930858,204.454583 C496.173292,201.208539 498.014632,198.782184 500.617907,196.894591 C502.698795,195.387018 505.734025,195.602523 507.430098,197.083158 C517.655599,206.007374 527.076837,215.610815 533.870749,227.517465 C536.234476,231.659202 538.202806,235.966416 539.624698,240.516072 C540.080704,241.973617 540.401063,243.472531 540.683902,244.564487" id="Fill-23"></path>
                    <path d="M390.185569,189.183396 C390.138429,195.369544 388.87335,200.262661 387.224416,205.050913 C386.458634,207.27427 384.861651,208.976182 382.853878,210.238426 C379.886953,212.103891 376.15617,211.944186 373.431678,209.718905 C370.917873,207.665835 368.911062,205.139424 367.120709,202.445612 C361.734259,194.342047 359.122326,185.30623 358.089097,175.724917 C357.780283,172.862741 358.375784,170.248781 359.839044,167.799336 C360.388368,166.877667 360.8944,165.930985 361.442761,165.010278 C362.784804,162.757097 363.946946,160.43657 364.193228,157.769695 C364.291356,156.709488 364.668474,156.213057 365.913352,156.231336 C367.064911,156.248653 367.665223,155.136494 368.187609,154.19847 C368.861036,152.990103 369.516184,151.772115 370.591742,150.863915 C371.778897,149.861432 373.339323,149.959564 374.159941,151.225655 C380.338149,160.750206 386.438431,170.33152 389.023427,181.599352 C389.671841,184.426893 389.912351,187.346793 390.185569,189.183396" id="Fill-48" transform="translate(374.097695, 180.854296) rotate(-33.000000) translate(-374.097695, -180.854296) "></path>
                    <path d="M47.0167193,3.46199162 C46.9407183,6.74651856 45.8959451,9.79533693 44.6289411,12.7623788 C43.4263936,15.580299 42.0554895,18.3260635 40.775979,21.1112731 C39.1722617,24.6026463 37.6868751,28.1527062 37.20297,31.9923509 C36.8114206,35.0979317 35.6656334,37.8994966 34.2976154,40.6587301 C30.9776224,47.353816 26.3098142,53.0146703 20.8762238,58.0674926 C18.7424236,60.0522551 16.4508492,61.8667301 14.2275794,63.755285 C11.3472378,66.2047301 7.76172228,67.166806 4.31377822,68.4040355 C3.75772028,68.6031852 3.09776224,68.562778 2.48783017,68.5483469 C1.19004096,68.5156363 0.0913936064,67.6055126 0.0202027972,66.2932411 C-0.0461778222,65.0848739 0.0529120879,63.8409098 0.268408591,62.6469737 C0.928366633,58.9930096 2.25982717,55.5660954 4.14830769,52.376814 C6.02428172,49.2115844 7.97818082,46.0915725 9.91861139,42.9648259 C12.8345485,38.2660475 15.5003556,33.4797202 16.9376404,28.0526503 C17.5975984,25.5608739 18.8309311,23.2095605 19.9132238,20.843816 C22.022011,16.2306623 25.1919261,12.586319 29.8934056,10.4620555 C31.4701858,9.75011936 32.6534925,8.54367625 33.9772567,7.50655848 C36.0283217,5.89892974 38.0736144,4.28264232 40.1593127,2.72215529 C41.3993796,1.79567625 42.7847143,1.18956846 44.3634186,1.01543273 C46.5607133,0.773951697 47.1090749,1.23959641 47.0167193,3.46199162" id="Fill-50"></path>
                    <path d="M258.423215,53.785293 C256.765623,58.9160435 254.122905,63.552287 251.292589,68.1029058 C248.785518,72.1330415 246.102394,76.0823629 243.970518,80.3078 C242.460119,83.3027421 240.108898,84.2311453 237.283392,84.0695166 C233.020602,83.8241872 229.755445,81.7008858 227.90737,77.7101952 C226.966497,75.6773289 226.725988,73.5992451 227.698608,71.4942232 C228.345098,70.0963269 228.784749,68.6859238 228.757812,67.090802 C228.710672,64.2603749 230.219148,62.0985904 232.323125,60.4428579 C234.118288,59.0305305 236.093351,57.8250495 238.076112,56.6782551 C241.258533,54.837804 244.545817,53.1705265 246.919165,50.2256124 C247.301094,49.7522711 247.783075,49.3501234 248.454577,49.3539717 C251.5052,49.3722511 254.607772,48.9085305 257.522747,50.2246503 C257.882549,50.386279 258.108628,50.842303 258.396278,51.1617122 C259.108186,52.0285425 259.056236,52.9040315 258.423215,53.785293" id="Fill-98"></path>
                </g>
            </g>
        </g>
    </g>
</svg>