<?xml version="1.0" encoding="UTF-8"?>
<svg width="1093px" height="779px" viewBox="0 0 1093 779" version="1.1" xmlns="http://www.w3.org/2000/svg" xmlns:xlink="http://www.w3.org/1999/xlink">
    <!-- Generator: Sketch 45.2 (43514) - http://www.bohemiancoding.com/sketch -->
    <title>Page 1</title>
    <desc>Created with Sketch.</desc>
    <defs></defs>
    <g id="Page-1" stroke="none" stroke-width="1" fill="none" fill-rule="evenodd">
        <g id="Large-Device-Desktops-Copy-14" transform="translate(-127.000000, -2617.000000)" fill="#F1F1F1">
            <g id="Page-1" transform="translate(127.000000, 2616.000000)">
                <path d="M147.717851,701.491635 C148.721256,700.986545 149.703497,700.600752 150.503912,701.831248 C150.83774,702.344996 151.236985,702.816413 151.559268,703.336896 C152.57518,704.969539 153.813323,706.015315 155.911528,706.289507 C158.045328,706.567547 159.852035,707.927922 161.49231,709.351794 C162.768934,710.461068 164.005153,711.617483 165.272157,712.737339 C166.896077,714.173719 168.646986,715.555259 170.749039,716.031487 C172.809725,716.498094 174.364378,717.601595 175.943082,718.833052 C178.62332,720.923643 180.989933,723.333643 183.294014,725.814836 C185.693337,728.39801 187.593362,731.436246 190.454463,733.605727 C190.911431,733.952074 191.156751,734.597627 191.451134,735.131579 C191.785923,735.738649 191.70896,736.405367 191.146168,736.759411 C189.991723,737.484816 188.878645,738.017806 189.309638,739.824585 C189.540527,740.790509 188.459196,741.565942 187.591438,741.72276 C184.702438,742.242281 182.047213,743.468928 179.248645,744.233778 C178.237543,744.509894 177.126389,744.431966 176.059489,744.482956 C175.759333,744.497387 175.454367,744.381938 175.148439,744.35019 C172.553823,744.075036 169.820673,744.219347 167.403071,743.415052 C165.140358,742.661747 163.271118,740.797244 161.12385,739.61389 C157.601829,737.672421 153.962439,736.017651 149.746789,736.878709 C148.757814,737.080745 147.947778,736.622796 147.155058,736.162924 C145.961169,735.471192 144.816344,734.69191 143.609948,734.021343 C141.853267,733.045798 139.934001,732.085647 137.977216,732.218413 C134.873682,732.43007 132.299268,731.180333 129.630575,730.054705 C125.239834,728.201747 121.005904,726.046697 117.064435,723.352884 C114.384197,721.522054 111.959862,719.395866 109.910721,716.870417 C106.979391,713.25686 105.605601,709.167076 105.920187,704.467335 C106.052948,702.486421 106.726375,700.917275 108.176166,699.63098 C108.865947,699.0191 109.564387,698.415878 110.266675,697.817467 C111.585629,696.693762 112.43126,695.385339 112.841088,693.607423 C113.623225,690.207447 116.100473,688.11878 119.174184,686.782457 C120.590304,686.166729 122.069918,686.031076 123.531254,687.079739 C125.783385,688.696988 128.160581,690.094884 131.09191,690.165116 C131.618145,690.177623 132.263673,690.600936 132.632133,691.028098 C134.693781,693.413084 137.408652,694.867743 140.094662,696.348377 C142.5392,697.696246 144.685507,699.374106 146.468163,701.520497 C147.166603,703.796768 143.969751,702.67595 143.988991,704.359583 C146.934752,705.863307 146.934752,705.863307 147.717851,701.491635" id="Fill-7"></path>
                <path d="M154.916396,595.019278 C154.948143,592.867114 155.094373,590.749585 155.712963,588.649374 C156.349832,586.485665 157.323415,584.373909 156.717331,581.949477 C156.415251,580.7363 157.197388,579.584695 157.909296,578.564895 C159.533216,576.241481 161.7536,574.626156 164.224113,573.32543 C166.334824,572.215194 168.089582,572.329681 169.98191,574.173018 C174.060951,578.144467 178.874027,581.207717 183.587051,584.377757 C187.786347,587.20145 191.976022,590.042459 196.082,592.997956 C202.930748,597.928595 208.28449,604.158036 211.971981,611.78345 C213.992261,615.961745 214.584876,620.254527 213.061008,624.725294 C211.029184,630.68343 204.377654,634.029529 198.532311,631.957218 C197.551994,631.608947 196.721755,630.837362 195.816478,630.270699 C195.400877,630.009976 194.861174,629.946479 194.759198,630.48428 C194.215647,633.349342 192.125138,633.080923 190.134682,632.714372 C188.796487,632.469042 187.491001,631.940863 186.229769,631.4021 C182.856864,629.962835 179.489731,628.504328 176.1707,626.948651 C172.916126,625.422799 170.249357,623.093613 168.057834,620.282428 C166.363686,618.108136 164.848476,615.791457 163.310177,613.500755 C161.600636,610.95414 160.063299,608.28438 158.253705,605.813769 C156.153577,602.946783 154.778824,598.694408 154.916396,595.019278" id="Fill-13"></path>
                <path d="M540.683902,754.564487 C540.268302,763.327074 531.475275,769.186116 524.240749,764.933741 C516.834019,760.579386 509.71109,755.767082 503.580022,749.645394 C498.883353,744.956236 494.852413,739.796623 491.622852,733.965481 C490.070123,731.162954 489.920045,728.574008 491.006186,725.639677 C491.918198,723.177725 492.932186,720.795625 494.447396,718.659817 C495.356521,717.376408 495.810603,716.072795 495.930858,714.454583 C496.173292,711.208539 498.014632,708.782184 500.617907,706.894591 C502.698795,705.387018 505.734025,705.602523 507.430098,707.083158 C517.655599,716.007374 527.076837,725.610815 533.870749,737.517465 C536.234476,741.659202 538.202806,745.966416 539.624698,750.516072 C540.080704,751.973617 540.401063,753.472531 540.683902,754.564487" id="Fill-23"></path>
                <path d="M813.152967,214.687517 C812.714984,214.649927 812.449417,214.653196 812.195289,214.601715 C806.130539,213.375152 805.97937,211.565952 808.666098,206.941623 C809.524903,205.462557 810.811068,204.299733 812.192837,203.301159 C813.989709,202.003504 815.829889,200.761415 817.688863,199.554464 C819.883678,198.129331 822.026197,196.651899 823.899879,194.80511 C824.448991,194.264147 825.081451,193.777118 825.749047,193.392234 C829.237381,191.384463 831.839128,188.500693 833.945692,185.138064 C835.053723,183.369722 836.063697,181.54091 837.120248,179.741516 C837.78049,178.616282 838.440732,177.491048 839.109146,176.369899 C842.387477,170.86712 847.295168,167.323081 853.104973,164.959027 C855.154338,164.124703 857.296857,163.529808 859.146842,162.260753 C860.092263,161.611925 861.079358,161.590679 862.122835,161.984551 C863.102575,162.354727 863.538923,163.114689 863.345263,164.136143 C863.094404,165.457497 862.3835,166.568839 861.630105,167.62298 C860.092263,169.774572 859.116608,172.163958 858.284769,174.651404 C856.878485,178.853259 855.430529,183.042857 853.902493,187.20222 C852.506015,191.003665 850.74428,194.63514 848.545379,198.055786 C843.895902,205.29177 837.372742,209.651338 828.836987,210.756143 C826.473026,211.061762 824.266771,211.674635 822.061333,212.484444 C819.616476,213.382507 817.122591,214.138383 814.529833,214.505289 C814.014223,214.578017 813.496979,214.641756 813.152967,214.687517" id="Fill-33"></path>
                <path d="M610.939133,147.669673 C610.939133,144.906591 610.755383,142.13004 610.973766,139.384275 C611.6318,131.093106 615.67717,124.59717 621.991025,119.392339 C622.819339,118.710228 623.863151,118.235924 624.546198,117.44125 C627.407299,114.108619 631.220817,112.647226 635.336415,111.790016 C637.801157,111.27723 640.081187,109.725401 642.768159,110.409437 C643.560878,112.836754 642.782589,115.262148 642.689272,117.676958 C642.09377,133.030727 638.111895,147.645621 632.831269,161.96612 C632.195361,163.691122 631.445934,165.403617 631.069777,167.190192 C630.313615,170.781621 628.09708,172.921277 624.675111,173.618782 C620.96453,174.374974 617.602208,173.407126 615.227898,170.264986 C613.06235,167.399924 611.842486,164.087497 611.312403,160.542248 C610.67361,156.274479 610.368644,151.986507 610.939133,147.669673" id="Fill-37" transform="translate(626.879385, 142.050585) rotate(27.000000) translate(-626.879385, -142.050585) "></path>
                <path d="M390.185569,699.183396 C390.138429,705.369544 388.87335,710.262661 387.224416,715.050913 C386.458634,717.27427 384.861651,718.976182 382.853878,720.238426 C379.886953,722.103891 376.15617,721.944186 373.431678,719.718905 C370.917873,717.665835 368.911062,715.139424 367.120709,712.445612 C361.734259,704.342047 359.122326,695.30623 358.089097,685.724917 C357.780283,682.862741 358.375784,680.248781 359.839044,677.799336 C360.388368,676.877667 360.8944,675.930985 361.442761,675.010278 C362.784804,672.757097 363.946946,670.43657 364.193228,667.769695 C364.291356,666.709488 364.668474,666.213057 365.913352,666.231336 C367.064911,666.248653 367.665223,665.136494 368.187609,664.19847 C368.861036,662.990103 369.516184,661.772115 370.591742,660.863915 C371.778897,659.861432 373.339323,659.959564 374.159941,661.225655 C380.338149,670.750206 386.438431,680.33152 389.023427,691.599352 C389.671841,694.426893 389.912351,697.346793 390.185569,699.183396" id="Fill-48" transform="translate(374.097695, 690.854296) rotate(-33.000000) translate(-374.097695, -690.854296) "></path>
                <path d="M47.0167193,513.461992 C46.9407183,516.746519 45.8959451,519.795337 44.6289411,522.762379 C43.4263936,525.580299 42.0554895,528.326063 40.775979,531.111273 C39.1722617,534.602646 37.6868751,538.152706 37.20297,541.992351 C36.8114206,545.097932 35.6656334,547.899497 34.2976154,550.65873 C30.9776224,557.353816 26.3098142,563.01467 20.8762238,568.067493 C18.7424236,570.052255 16.4508492,571.86673 14.2275794,573.755285 C11.3472378,576.20473 7.76172228,577.166806 4.31377822,578.404036 C3.75772028,578.603185 3.09776224,578.562778 2.48783017,578.548347 C1.19004096,578.515636 0.0913936064,577.605513 0.0202027972,576.293241 C-0.0461778222,575.084874 0.0529120879,573.84091 0.268408591,572.646974 C0.928366633,568.99301 2.25982717,565.566095 4.14830769,562.376814 C6.02428172,559.211584 7.97818082,556.091572 9.91861139,552.964826 C12.8345485,548.266048 15.5003556,543.47972 16.9376404,538.05265 C17.5975984,535.560874 18.8309311,533.20956 19.9132238,530.843816 C22.022011,526.230662 25.1919261,522.586319 29.8934056,520.462055 C31.4701858,519.750119 32.6534925,518.543676 33.9772567,517.506558 C36.0283217,515.89893 38.0736144,514.282642 40.1593127,512.722155 C41.3993796,511.795676 42.7847143,511.189568 44.3634186,511.015433 C46.5607133,510.773952 47.1090749,511.239596 47.0167193,513.461992" id="Fill-50"></path>
                <path d="M819.018255,82.0357158 C819.179877,74.8490093 821.214587,69.315149 825.749634,64.9636799 C828.098931,62.7085741 830.049944,60.1850492 832.058679,57.6692208 C833.686447,55.6325063 835.375786,53.6304264 837.193076,51.7630372 C840.124405,48.7498156 843.607945,46.5832208 847.648504,45.2882667 C849.82752,44.5897997 851.929573,43.6479274 854.055677,42.7907178 C856.060564,41.9825741 858.049097,41.270638 860.277177,41.9229254 C861.574004,42.3029454 862.666879,41.8863665 863.483649,40.737648 C863.924263,40.1180711 864.439915,39.5273566 865.017138,39.0347737 C866.168697,38.0534564 867.529019,38.138119 868.754655,39.1704264 C869.607021,39.8890971 869.7292,40.7530412 869.097141,41.5794643 C869.003823,41.701648 868.925898,41.8363386 868.823922,41.9498635 C867.453018,43.4834125 866.262977,46.0232927 866.058063,47.9782308 C865.88682,49.6127977 865.036378,50.9077518 863.831907,51.8717518 C862.524497,52.9175282 861.113188,53.9277079 859.587395,54.5742228 C858.304037,55.1177957 857.656585,55.9740432 857.143819,57.1160272 C852.289375,67.9364943 845.477185,77.6380671 839.595285,87.8716679 C838.953605,88.9867138 838.143569,89.7977438 837.027605,90.4048136 C833.920223,92.0951809 830.820536,93.7749653 827.134969,93.7537997 C823.620644,93.7345582 821.197271,92.1403985 820.236195,88.8173885 C819.514666,86.3217637 818.883569,83.762642 819.018255,82.0357158" id="Fill-55"></path>
                <path d="M476.196865,204.699622 C476.770239,196.832728 479.233056,188.549255 484.453074,181.195147 C485.620026,179.55096 486.931284,178.21175 488.953488,177.4469 C491.420153,176.512724 493.293241,174.590497 495.047998,172.628824 C496.483359,171.024081 497.909099,169.41068 499.359853,167.819407 C500.6663,166.384952 502.29503,165.606632 504.247967,165.615291 C505.158055,165.620101 506.160499,165.546984 506.823343,166.325303 C507.681481,167.335483 506.721367,167.938704 506.187436,168.62274 C505.777608,169.147071 505.72662,169.722393 505.979636,170.336197 C507.156208,173.183942 506.695392,176.048042 506.120093,178.934269 C505.488996,182.094688 504.98104,185.226245 505.546719,188.521355 C506.125866,191.88862 505.141701,195.255886 504.704935,198.600061 C504.087307,203.336361 502.817417,207.930273 500.827922,212.290401 C499.546488,215.0987 497.765756,217.588552 495.889782,220.044732 C493.567422,223.085854 490.575484,223.462026 487.234326,222.646185 C484.80037,222.052584 482.737761,220.72492 481.044574,218.841175 C478.061294,215.521051 476.099699,210.2787 476.196865,204.699622" id="Fill-61"></path>
                <path d="M1039.44527,128.557 C1039.32502,125.111807 1040.45445,122.302545 1042.0649,119.630861 C1043.90335,116.582042 1046.30749,114.000793 1048.79147,111.489775 C1051.92098,108.325507 1055.09186,105.202609 1058.22906,102.046038 C1061.3528,98.9019745 1065.21346,97.0201541 1069.42911,96.0571162 C1073.44946,95.1383337 1077.57372,94.6534475 1081.66623,94.0810124 C1084.83518,93.6374954 1088.05705,93.5249325 1091.06534,92.2482579 C1091.68393,91.9856112 1092.18996,92.4926251 1092.20439,93.1718507 C1092.24191,94.9593876 1091.39917,96.4198188 1090.50928,97.856198 C1089.05949,100.197891 1087.22873,102.295216 1086.10507,104.848565 C1085.58269,106.033843 1084.39361,106.567795 1083.43061,107.311479 C1078.18558,111.368553 1073.34941,115.84413 1069.54648,121.315455 C1068.06301,123.44934 1066.73829,125.705408 1065.48668,127.985527 C1062.12532,134.108178 1056.62823,136.648058 1050.01903,137.17239 C1047.71591,137.355184 1045.46089,136.629779 1043.4358,135.435843 C1040.72863,133.840721 1038.97291,131.683747 1039.44527,128.557" id="Fill-65"></path>
                <path d="M966.976105,75.9639872 C968.365288,76.2699273 970.419239,75.6676679 972.412582,74.8258515 C975.072617,73.7021469 977.828856,73.8637756 980.57836,74.2014643 C981.068038,74.262075 981.64526,74.8479792 981.889618,75.3376758 C982.173419,75.9053006 981.767439,76.5133325 981.357611,76.9914842 C981.159431,77.2223824 980.955479,77.5052327 980.691881,77.6149094 C977.27376,79.0358954 975.229429,81.9952407 972.857044,84.5813006 C967.54948,90.3681868 962.210169,96.1204383 955.451853,100.292961 C954.225254,101.050115 953.460434,102.190175 952.624423,103.284055 C950.36652,106.237628 947.761321,108.82946 944.683762,110.92871 C941.394554,113.171309 937.808077,114.232478 933.795416,113.808203 C932.544767,113.675436 931.395131,113.342558 930.271471,112.830734 C925.38528,110.608339 923.524699,105.926877 925.57865,100.984694 C926.474307,98.8286818 927.834629,96.9699513 929.391206,95.2555321 C931.781871,92.6204064 934.5054,90.3729972 937.538706,88.518115 C941.859218,85.8762547 946.17011,83.216115 950.553155,80.680083 C952.534954,79.5332886 954.652399,78.6087337 956.755414,77.6899513 C959.74158,76.3844144 962.856659,75.6195641 966.976105,75.9639872" id="Fill-76"></path>
                <path d="M989.878862,143.571077 C988.980319,147.157696 987.330424,149.906347 985.537185,152.5636 C982.152735,157.576016 977.850502,161.734107 973.141326,165.472734 C970.861296,167.284323 968.339794,168.79863 966.104018,170.658323 C962.161587,173.93804 957.518791,174.499892 952.713412,174.297856 C950.132264,174.190103 947.523217,173.98903 945.037311,173.017333 C943.567317,172.442012 942.252211,171.720455 941.26516,170.505353 C940.016435,168.968918 939.462301,167.355517 940.75528,165.489089 C941.536455,164.360574 942.082892,163.070431 942.808269,161.899584 C943.808788,160.285221 945.170072,159.014319 947.041236,158.556371 C948.591079,158.177313 949.768613,157.421121 950.871109,156.271441 C953.473422,153.558387 956.782832,151.927668 960.282726,150.707756 C963.600795,149.549417 966.962156,148.514223 970.302352,147.421305 C971.17492,147.136531 972.104249,146.952774 972.900816,146.52465 C977.66098,143.973225 982.97143,144.145437 988.09332,143.390207 C988.527199,143.325748 988.992825,143.473908 989.878862,143.571077" id="Fill-92"></path>
                <path d="M945.066268,291.310212 C940.542766,291.359278 937.739387,287.822687 938.838034,283.622264 C938.990036,283.040208 939.291154,282.494711 939.548018,281.943442 C941.16328,278.468424 942.806441,275.006875 944.400538,271.522236 C945.678124,268.72933 947.020167,265.975869 948.72105,263.408088 C951.131917,259.768555 954.100767,256.718775 957.934488,254.561801 C960.872552,252.908954 963.754818,251.147394 966.750604,249.609034 C968.645819,248.635414 970.658402,247.821497 972.702733,247.22501 C975.204031,246.493833 977.303198,248.788384 976.49701,251.296515 C976.126626,252.44812 975.483984,253.525645 974.8779,254.586815 C971.382817,260.702731 967.751123,266.739757 964.61488,273.056747 C963.045796,276.216204 961.383394,279.334292 959.25248,282.170491 C956.223984,286.201589 952.46434,289.236939 947.586808,290.75798 C947.14908,290.894595 946.72867,291.101442 946.283246,291.195725 C945.835899,291.29097 945.367386,291.285198 945.066268,291.310212" id="Fill-96"></path>
                <path d="M258.423215,563.785293 C256.765623,568.916044 254.122905,573.552287 251.292589,578.102906 C248.785518,582.133042 246.102394,586.082363 243.970518,590.3078 C242.460119,593.302742 240.108898,594.231145 237.283392,594.069517 C233.020602,593.824187 229.755445,591.700886 227.90737,587.710195 C226.966497,585.677329 226.725988,583.599245 227.698608,581.494223 C228.345098,580.096327 228.784749,578.685924 228.757812,577.090802 C228.710672,574.260375 230.219148,572.09859 232.323125,570.442858 C234.118288,569.030531 236.093351,567.82505 238.076112,566.678255 C241.258533,564.837804 244.545817,563.170527 246.919165,560.225612 C247.301094,559.752271 247.783075,559.350123 248.454577,559.353972 C251.5052,559.372251 254.607772,558.908531 257.522747,560.22465 C257.882549,560.386279 258.108628,560.842303 258.396278,561.161712 C259.108186,562.028543 259.056236,562.904032 258.423215,563.785293" id="Fill-98"></path>
                <path d="M1062.6958,18.0238176 C1062.82472,22.4493665 1061.48075,26.2765042 1059.47779,30.016093 C1057.10829,34.4397178 1050.25954,34.5898016 1047.70629,30.0237896 C1045.68505,26.4092707 1044.63931,22.5609673 1045.41953,18.5164004 C1046.2363,14.2909633 1047.77556,10.2463964 1050.14217,6.59339441 C1050.80694,5.56782156 1051.5429,4.52974172 1052.45202,3.73218084 C1057.18333,-0.423986826 1057.141,0.203286627 1059.62209,4.86165788 C1061.81746,8.98415289 1062.94401,13.4443365 1062.6958,18.0238176" id="Fill-102"></path>
                <path d="M258.423215,563.785293 C258.414556,562.910766 258.405898,562.036239 258.396278,561.161712 C259.362164,561.611002 260.118325,561.199233 260.874487,560.617177 C261.380519,560.228499 262.016426,560.188091 262.581143,560.467093 C262.791829,560.570998 262.883223,560.950055 262.993857,561.217513 C263.142011,561.576367 263.027528,561.849596 262.681195,561.931373 C262.24924,562.033353 261.702802,562.289265 261.385329,562.127636 C259.503583,561.166523 259.189959,562.854966 258.423215,563.785293" id="Fill-117"></path>
                <path d="M264.928804,690.407751 C264.773916,690.653081 264.670978,691.029252 264.452595,691.115839 C263.954259,691.314027 263.013386,690.242274 263.146148,689.609228 C263.200984,689.349468 263.441493,689.0214 263.678155,688.928079 C264.312138,688.677939 264.942272,689.451448 264.928804,690.407751" id="Fill-131"></path>
                <path d="M621.919352,259.062969 C621.104506,258.647352 620.931339,257.985444 621.190127,257.158059 C621.940517,257.598689 622.066544,258.278877 621.919352,259.062969" id="Fill-147"></path>
                <path d="M979.328384,246.457274 C979.225446,246.63141 979.062862,246.99796 979.007064,246.982567 C978.633793,246.879625 978.282649,246.693945 977.924771,246.536164 C978.034443,246.450539 978.131609,246.33509 978.255712,246.286024 C978.628021,246.139789 979.025342,245.914663 979.328384,246.457274" id="Fill-151"></path>
                <path d="M221.369074,358.897868 C221.109324,358.369689 221.334441,358.066635 221.85779,358.024303 C222.044425,358.009872 222.250301,358.244619 222.447519,358.36584 C222.200275,358.512076 221.963614,358.679477 221.702902,358.793002 C221.576875,358.84784 221.407556,358.801661 221.259402,358.802623 C221.260364,358.803585 221.369074,358.897868 221.369074,358.897868" id="Fill-153"></path>
                <path d="M621.191763,257.163831 L620.773276,257.221556 L620.350942,257.219632 C620.234535,256.804977 620.337473,256.461516 620.688617,256.201755 C620.856012,256.522127 621.024368,256.84346 621.191763,257.163831" id="Fill-155"></path>
                <path d="M727.847425,776.103022 C728.023478,776.235788 728.32652,776.369517 728.318824,776.479194 C728.301507,776.702395 728.114872,776.912128 727.998465,777.127633 C727.896489,777.034311 727.709854,776.941952 727.709854,776.848631 C727.708892,776.61196 727.790665,776.375289 727.847425,776.103022" id="Fill-159"></path>
                <path d="M733.051955,779.308081 C732.981726,779.445658 732.927852,779.549562 732.873978,779.653467 C732.718127,779.545714 732.563239,779.438924 732.407389,779.331171 C732.514175,779.227267 732.619038,779.043511 732.726786,779.041586 C732.836458,779.039662 732.949017,779.216684 733.051955,779.308081" id="Fill-161"></path>
                <path d="M206.209088,351.973905 C205.882957,352.435701 205.493332,352.335645 205.106592,352.150927 C204.986338,352.093202 204.89783,351.970056 204.79393,351.876735 C205.155656,351.731461 205.509686,351.556364 205.883919,351.470739 C205.952224,351.455346 206.104226,351.806503 206.209088,351.973905" id="Fill-163"></path>
                <path d="M129.444613,720.545258 C129.397473,721.228332 128.035227,721.920065 127.311775,721.613162 C127.184786,721.559286 127.001999,721.410164 127.006809,721.312033 C127.03086,720.793474 128.590323,720.000723 129.177166,720.209494 C129.291649,720.249901 129.357067,720.429809 129.444613,720.545258" id="Fill-169"></path>
                <path d="M179.748039,729.236748 C180.23483,729.174213 180.721621,729.111678 181.209374,729.049143 C181.761584,729.154009 181.929941,729.508053 181.844319,730.026612 L181.701938,730.295993 C180.879395,730.259434 180.14536,730.059323 179.748039,729.236748" id="Fill-171"></path>
                <path d="M182.602213,730.962808 C182.757101,731.092688 182.911989,731.222568 183.066877,731.353411 C182.970673,731.331283 182.829254,731.340904 182.787886,731.281255 C182.714771,731.176389 182.704189,731.028229 182.667631,730.898349 L182.602213,730.962808 Z" id="Fill-173"></path>
                <path d="M181.844704,730.026804 C182.44213,730.060477 182.698032,730.369303 182.60279,730.962904 C182.601828,730.962904 182.667247,730.899407 182.667247,730.899407 C182.162177,730.98888 181.762931,730.910952 181.702323,730.294261 C181.702323,730.296186 181.844704,730.026804 181.844704,730.026804" id="Fill-175"></path>
                <path d="M583.59657,315.871816 C583.754344,315.535089 584.016018,315.417716 584.350808,315.581269 C584.472987,315.64188 584.542253,315.809281 584.635571,315.927616 C584.377745,316.030558 584.126653,316.159477 583.859206,316.218163 C583.79956,316.23067 583.686039,315.994 583.59657,315.871816" id="Fill-177"></path>
                <path d="M622.07145,265.057182 C621.980057,265.15339 621.862688,265.351578 621.794383,265.335222 C621.588507,265.288081 621.40091,265.157238 621.206578,265.059107 C621.304706,264.962899 621.423999,264.771446 621.497114,264.787801 C621.70299,264.834943 621.890587,264.965785 622.07145,265.057182" id="Fill-179"></path>
                <path d="M173.134509,584.665129 C172.873796,584.762299 172.627515,584.931624 172.399512,584.910458 C172.248472,584.896989 172.122445,584.608366 171.984873,584.443851 C172.221535,584.356303 172.465892,584.187939 172.691971,584.209105 C172.849745,584.224498 172.983469,584.49869 173.134509,584.665129" id="Fill-181"></path>
                <polygon id="Fill-183" points="779.792377 567.804942 779.885694 568.067589 779.63364 568.033916"></polygon>
                <path d="M312.519475,533.189838 C312.411727,533.135 312.303979,533.081123 312.19623,533.026285 C312.308789,532.873315 312.420385,532.719383 312.532944,532.565451 C312.63973,532.672241 312.746516,532.778069 312.85234,532.88486 C312.741706,532.98684 312.630109,533.087858 312.519475,533.189838" id="Fill-185"></path>
                <path d="M921.391284,25.9156244 C921.036292,25.7443749 920.964139,25.4817281 921.24313,25.1892571 C921.428803,24.9949178 921.680857,24.8650375 921.90405,24.7053329 C921.967544,24.9699038 922.147445,25.2845026 922.061824,25.4865385 C921.976203,25.6876124 921.626021,25.7780475 921.391284,25.9156244" id="Fill-189"></path>
                <path d="M756.458918,308.124412 C756.560894,308.231202 756.661908,308.338954 756.763884,308.445745 C756.646515,308.535218 756.523375,308.702619 756.413702,308.69396 C756.304992,308.685302 756.20975,308.501545 756.107774,308.393793 C756.225143,308.30432 756.341549,308.213885 756.458918,308.124412" id="Fill-197"></path>
                <path d="M530.398754,534.617655 C529.888874,534.272269 530.772987,534.30498 530.163055,534.387719 C530.117839,534.394453 530.08032,534.45795 530.039914,534.494509 C530.179409,534.51375 530.318905,534.532992 530.461287,534.552234 C530.464173,534.550309 530.398754,534.617655 530.398754,534.617655" id="Fill-199"></path>
            </g>
        </g>
    </g>
</svg>