<?xml version="1.0" encoding="UTF-8"?>
<svg width="464px" height="312px" viewBox="0 0 464 312" version="1.1" xmlns="http://www.w3.org/2000/svg" xmlns:xlink="http://www.w3.org/1999/xlink">
    <!-- Generator: Sketch 45.2 (43514) - http://www.bohemiancoding.com/sketch -->
    <title>Fill 8</title>
    <desc>Created with Sketch.</desc>
    <defs></defs>
    <g id="Page-1" stroke="none" stroke-width="1" fill="none" fill-rule="evenodd">
        <g id="Large-Device-Desktops-Copy-14" transform="translate(-690.000000, -673.000000)" fill="#D0F5E1">
            <g id="Page-1" transform="translate(81.000000, 673.000000)">
                <g id="Fill-8" transform="translate(609.000000, 0.000000)">
                    <path d="M464,23.1321 C462.115,20.6031 463.299,17.7291 463.087,15.0121 C463.382,15.1211 463.687,15.1611 464,15.1321 L464,23.1321 Z"></path>
                    <g id="Fill-5">
                        <path d="M464,25.1321 C462.516,28.1751 461.261,31.3601 459.497,34.2311 C456.293,39.4431 449.936,39.5741 446.28,34.6641 C445.085,33.0601 444.364,31.2241 443.818,29.2761 C441.451,20.8411 446.233,6.6331 453.191,1.4251 C455.542,-0.3349 457.333,-0.9309 458.934,2.3901 C460.885,6.4361 462.952,10.3911 463.087,15.0121 C464.235,17.6241 462.661,20.5421 464,23.1321 L464,25.1321 Z"></path>
                        <path d="M314.784864,89.7103079 C315.779864,93.5633079 313.967864,95.2403079 310.514864,96.1733079 C303.473864,98.0753079 297.290864,97.3223079 291.363864,92.5023079 C285.696864,87.8943079 281.268864,82.4133079 277.288864,76.4383079 C273.124864,70.1883079 268.593864,64.3513079 262.690864,59.5033079 C255.479864,53.5793079 255.395864,44.7033079 260.891864,37.2563079 C265.205864,31.4123079 269.195864,25.8313079 276.958864,24.2683079 C279.319864,23.7933079 281.015864,23.8643079 282.941864,25.1773079 C287.750864,28.4563079 291.117864,32.9273079 293.934864,37.9033079 C297.042864,43.3933079 300.903864,48.5933079 303.127864,54.4193079 C307.561864,66.0333079 314.944864,76.7263079 314.784864,89.7103079" id="Fill-10"></path>
                        <path d="M128.049771,175.204252 C127.790771,168.077252 129.767771,161.852252 134.456771,157.053252 C139.015771,152.388252 142.728771,147.073252 147.080771,142.282252 C155.173771,133.370252 165.530771,129.183252 177.347771,128.392252 C179.344771,128.258252 180.246771,127.209252 181.296771,125.879252 C182.865771,123.892252 184.921771,123.190252 186.813771,125.215252 C188.693771,127.228252 186.755771,128.560252 185.312771,129.586252 C183.678771,130.747252 183.025771,131.774252 183.371771,134.052252 C184.028771,138.373252 180.827771,140.736252 177.450771,142.329252 C174.677771,143.636252 173.206771,145.605252 171.949771,148.294252 C166.306771,160.362252 158.742771,171.342252 151.978771,182.775252 C149.365771,187.190252 139.491771,190.612252 134.591771,189.207252 C131.781771,188.401252 130.098771,186.413252 129.281771,183.733252 C128.407771,180.863252 127.820771,177.920252 128.049771,175.204252" id="Fill-20"></path>
                        <path d="M349.397048,111.455893 C351.648048,111.997893 354.087048,111.139893 356.619048,110.169893 C359.251048,109.159893 362.108048,108.745893 364.956048,109.157893 C366.050048,109.316893 367.402048,109.460893 367.755048,110.860893 C368.107048,112.257893 367.111048,113.172893 366.086048,113.614893 C361.575048,115.557893 359.074048,119.636893 355.915048,122.991893 C349.971048,129.302893 344.026048,135.603893 336.579048,140.199893 C334.789048,141.304893 333.803048,143.023893 332.539048,144.540893 C328.551048,149.324893 324.154048,153.582893 318.078048,155.611893 C311.645048,157.759893 305.237048,156.008893 301.911048,151.281893 C298.822048,146.891893 299.435048,142.058893 304.062048,136.269893 C305.715048,134.201893 307.527048,132.137893 309.642048,130.583893 C318.756048,123.886893 328.319048,117.899893 338.689048,113.301893 C341.934048,111.862893 345.381048,111.376893 349.397048,111.455893" id="Fill-22"></path>
                        <path d="M204.5899,217.0533 C201.6869,216.5863 199.0189,216.3563 196.4579,215.7063 C190.5889,214.2183 189.1169,209.6733 192.8939,204.8183 C196.5229,200.1513 201.5829,197.0863 206.2309,193.6483 C213.4329,188.3203 220.8979,183.3203 228.4709,178.5273 C232.8899,175.7303 237.3139,172.8453 243.0289,172.7183 C246.3439,172.6443 248.9429,169.9063 251.8049,168.2483 C253.2319,167.4213 254.9649,166.3343 256.4089,167.4773 C257.7369,168.5283 256.9239,170.3403 256.2669,171.6183 C246.5299,190.5473 236.3069,209.0553 213.6649,215.3943 C210.6509,216.2383 207.4849,216.5373 204.5899,217.0533" id="Fill-24"></path>
                        <path d="M47.1289,260.9107 C45.9109,267.6597 43.0469,272.6667 40.1369,277.6757 C36.1509,284.5357 32.1679,291.2857 30.5689,299.3497 C28.9149,307.6887 14.0849,314.0247 6.4489,310.2997 C0.3809,307.3397 -1.6591,301.5247 2.0519,296.0037 C5.3949,291.0287 8.1029,285.7327 11.1119,280.5897 C13.6989,276.1677 17.3919,273.2067 22.1189,270.9617 C30.0499,267.1947 38.3909,264.5977 47.1289,260.9107" id="Fill-28"></path>
                        <path d="M250.154302,216.360401 C250.555302,214.237401 248.437302,213.930401 246.894302,214.011401 C244.163302,214.153401 241.988302,215.350401 240.068302,217.050401 C239.958302,217.829401 239.961302,218.554401 240.226302,219.087401 C240.371302,219.380401 240.590302,219.599401 240.853302,219.767401 C241.208302,219.756401 241.579302,219.670401 241.958302,219.477401 C244.194302,218.337401 246.571302,217.804401 249.074302,217.798401 C249.172302,217.797401 249.258302,217.779401 249.350302,217.769401 C249.746302,217.374401 250.050302,216.911401 250.154302,216.360401" id="Fill-36"></path>
                    </g>
                </g>
            </g>
        </g>
    </g>
</svg>