<svg width="865" height="345" viewBox="0 0 865 345" xmlns="http://www.w3.org/2000/svg"><title>Fill 1</title><path d="M191.8 330.929c.284.288.57.575.866.858 2.97 2.856 6.796 5.276 10.53 6.984 3.704 1.693 7.702 1.524 11.499 2.814 2.122.721 4.027 1.898 5.873 3.161.275-.177.553-.332.837-.463 1.397-2.537 3.635-2.904 8.009-2.573 3.088.234 6.134-.143 9.11-.898 5.383-4.588 6.61-12.153 2.727-19.948-4.326-8.685-10.46-15.704-18.184-21.477-10.112-7.558-21.41-13.466-30.737-22.119-.554-.514-1.431-.913-2.178-.95-3.88-.191-12.084 6.41-11.612 10.285.556 4.566-1.817 8.269-2.05 12.512-.255 4.612.178 9.044 2.577 12.971 3.375 5.523 6.985 10.912 10.69 16.221a34.859 34.859 0 0 0 2.043 2.622M0 276.132c3.801-10.467 10.573-19.31 15.762-29.013 2.557-4.78 4.012-10.147 6.035-15.22 2.605-6.529 6.587-11.73 13.165-14.928 2.915-1.418 5.257-4.014 7.857-6.079 2.22-1.762 4.512-3.366 7.292-4.19 2.862-.849 4.13.017 3.807 3.078-.495 4.693-2.11 9.043-4.127 13.236-3.31 6.882-5.455 14.127-7.844 21.364-5.756 17.436-17.374 30.282-34.392 37.863-2.773 1.235-5.376 1.57-7.555-1.11v-5zm346.877-39.907c.283-4.613 2.206-7.693 5.931-11.102 7.252-6.638 15.63-10.04 24.425-13.6 3.858-1.562 5.32-.81 7.29 1.544 2.095 2.506 2.68 5.7 3.325 8.775.871 4.141 2.181 7.934 5.291 11.047 1.231 1.232 2.065 3.065 2.573 4.775 1.847 6.218 3.89 12.01 8.961 16.785 3.808 3.586 3.314 9.726 4.802 14.68.96 3.19-2.557 5.571-5.928 4.146-3.346-1.415-6.308-1.717-9.437.163-1.24.746-2.594.844-3.768-.033-8.567-6.404-19.285-8.834-27.878-15.267-4.84-3.623-9.556-7.207-12.689-12.499-1.72-2.907-2.975-5.938-2.898-9.414m-134.362-70.579c-2.068-4.112-4.01-8.282-5.605-12.642-.756-2.067-1.528-4.137-2.437-6.142-.05-.112-.107-.22-.157-.332a9.774 9.774 0 0 1-.316.833c-1.604 3.5-5.071 2.363-6.56-.568-1.177-2.317-1.096-5.025-1.596-7.508-.585-2.91-1.656-5.66-2.416-8.512-1.421.388-2.82 1.38-4.076 3.052-3.97 5.284-8.91 10.18-10.442 17.15-2.05 9.326-5.27 18.482-2.7 27.863-1.787 4.742.754 7.845 2.687 11.358 2.838 5.158 7.02 8.14 12.45 6.336 7.536-2.503 14.744-6.106 19.154-13.238 2.865-4.632 4.54-9.92 2.79-15.238-.263-.802-.518-1.608-.776-2.412M655.474 30.285c2.76-.758 5.523-1.5 8.266-2.279l.61-.223a88.448 88.448 0 0 0 4.142-1.635c-1.38-6.2-10.625-1.915-13.5 1.567-1.665 2.018-1.049 2.628.482 2.57m12.24 12.788a45.905 45.905 0 0 1-3.183 1.213c-3.656 1.722-7.465 3.113-10.144 2.98-1.898.564-3.78 1.19-5.624 1.95a6.58 6.58 0 0 1-1.106.53c-11.79 4.271-17.719 13.218-19.95 25.29-1.448 7.827-3.155 15.707-8.908 21.888-1.487 1.597-1.407 3.698-.847 5.68 1.072 3.793 5.86 6.337 11.024 5.861 2.302-.212 4.554-1.1 6.65-.462 9.926.457 18.12-5.7 18.282-14.744.301-16.694 6.114-31.499 14.06-45.722 1.09-1.95 1-3.316-.254-4.464m-69.528 154.553c.053 2.956-.755 5.44-4.194 6.291-1.112.275-2.14.892-3.205 1.356-4.941 2.155-9.713 5.64-15.453 2.456-8.094-4.489-15.836-9.294-17.757-19.5-.45-2.393-.535-4.71.36-6.85 2.478-5.928 5.452-11.673 8.42-17.325 3.187-6.067 12.689-5.974 15.319-.016 3.773 8.544 9.464 15.86 13.8 24.003 1.571 2.95 2.842 6.015 2.71 9.585M830.217 46.087c-7.037-.026-12.034-5.971-9.802-12.823 3.445-10.58 8.948-19.9 20.797-22.926 6.748-1.723 12.116-6.171 18.494-8.546 1.36-.507 2.962-1.713 4.114-.85 1.547 1.159.873 3.413.07 4.634-7.204 10.956-10.805 24.003-19.631 33.983-3.675 4.155-8.357 6.519-14.042 6.528M290.14 261.6c-.32-.046-.661-.09-1.024-.131-.988-.113-1.99-.104-4.087-.205-1.6-.415-3.508.554-5.441 2.597-1.892 1.998-4.346 3.749-6.888 4.795-8.723 3.587-12.95 10.09-13.97 19.26-.536 4.839 2.062 9.983 7.072 11.874 3.865 1.459 8.533 2.314 10.788-1.804 3.673-6.704 8.168-12.934 11.955-19.574 1.267-5.483 1.889-11.084 1.596-16.811m5.701 2.089c.55-.868 1.39-1.404 2.368-1.305.743.075 1.598.61 1.377 1.54-.207.871-1.082 1.071-1.936 1.047-.886-.024-1.509-.419-1.809-1.283m-63.455-131.966c1.026-3.76 2.594-7.253 4.286-10.78a24.538 24.538 0 0 0-.37-3.404c-.433-2.357-3.425-2.128-4.57-.598a24.295 24.295 0 0 0-4.67 17.733c.16 1.237 1.032 1.987 2.006 2.256.574-1.955 1.95-3.612 3.318-5.207" fill="#D0F5E1" fill-rule="evenodd"/></svg>