<svg width="464" height="312" viewBox="0 0 464 312" xmlns="http://www.w3.org/2000/svg"><title>Fill 8</title><g fill="#D0F5E1" fill-rule="evenodd"><path d="M464 23.132c-1.885-2.529-.701-5.403-.913-8.12.295.11.6.15.913.12v8z"/><path d="M464 25.132c-1.484 3.043-2.739 6.228-4.503 9.1-3.204 5.211-9.561 5.342-13.217.432-1.195-1.604-1.916-3.44-2.462-5.388-2.367-8.435 2.415-22.643 9.373-27.85 2.351-1.76 4.142-2.357 5.743.964 1.951 4.046 4.018 8.001 4.153 12.622 1.148 2.612-.426 5.53.913 8.12v2zM314.785 89.71c.995 3.853-.817 5.53-4.27 6.463-7.041 1.902-13.224 1.15-19.151-3.67-5.667-4.609-10.095-10.09-14.075-16.065-4.164-6.25-8.695-12.087-14.598-16.935-7.211-5.924-7.295-14.8-1.8-22.247 4.315-5.844 8.305-11.425 16.068-12.988 2.36-.475 4.057-.404 5.983.91 4.809 3.278 8.176 7.75 10.993 12.725 3.108 5.49 6.969 10.69 9.193 16.516 4.434 11.614 11.817 22.307 11.657 35.291M128.05 175.204c-.26-7.127 1.718-13.352 6.407-18.15 4.559-4.666 8.272-9.98 12.624-14.772 8.093-8.912 18.45-13.099 30.267-13.89 1.997-.134 2.899-1.183 3.949-2.513 1.569-1.987 3.625-2.689 5.517-.664 1.88 2.013-.058 3.345-1.501 4.371-1.634 1.161-2.287 2.188-1.941 4.466.657 4.321-2.544 6.684-5.921 8.277-2.773 1.307-4.244 3.276-5.501 5.965-5.643 12.068-13.207 23.048-19.971 34.481-2.613 4.415-12.487 7.837-17.387 6.432-2.81-.806-4.493-2.794-5.31-5.474-.874-2.87-1.461-5.813-1.232-8.529m221.347-63.748c2.251.542 4.69-.316 7.222-1.286 2.632-1.01 5.489-1.424 8.337-1.012 1.094.159 2.446.303 2.799 1.703.352 1.397-.644 2.312-1.669 2.754-4.511 1.943-7.012 6.022-10.171 9.377-5.944 6.31-11.889 12.612-19.336 17.208-1.79 1.105-2.776 2.824-4.04 4.34-3.988 4.785-8.385 9.043-14.461 11.072-6.433 2.148-12.841.397-16.167-4.33-3.089-4.39-2.476-9.223 2.151-15.012 1.653-2.068 3.465-4.132 5.58-5.686 9.114-6.697 18.677-12.684 29.047-17.282 3.245-1.44 6.692-1.925 10.708-1.846M204.59 217.053c-2.903-.467-5.571-.697-8.132-1.347-5.87-1.488-7.341-6.033-3.564-10.888 3.629-4.667 8.689-7.732 13.337-11.17 7.202-5.328 14.667-10.328 22.24-15.12 4.419-2.798 8.843-5.683 14.558-5.81 3.315-.074 5.914-2.812 8.776-4.47 1.427-.827 3.16-1.914 4.604-.77 1.328 1.05.515 2.862-.142 4.14-9.737 18.93-19.96 37.437-42.602 43.776-3.014.844-6.18 1.143-9.075 1.66M47.129 260.91c-1.218 6.75-4.082 11.757-6.992 16.766-3.986 6.86-7.97 13.61-9.568 21.674-1.654 8.339-16.484 14.675-24.12 10.95-6.068-2.96-8.108-8.775-4.397-14.296 3.343-4.975 6.05-10.271 9.06-15.414 2.587-4.422 6.28-7.383 11.007-9.628 7.93-3.767 16.272-6.364 25.01-10.051m203.025-44.551c.401-2.123-1.717-2.43-3.26-2.349-2.73.142-4.906 1.34-6.826 3.04-.11.778-.107 1.503.158 2.036.145.293.364.512.627.68a2.587 2.587 0 0 0 1.105-.29c2.236-1.14 4.613-1.673 7.116-1.679.098 0 .184-.019.276-.029.396-.395.7-.858.804-1.409"/></g></svg>