<svg width="541" height="257" viewBox="0 0 541 257" xmlns="http://www.w3.org/2000/svg"><title>Fill 7</title><path d="M147.718 191.492c1.003-.505 1.985-.891 2.786.34.334.513.733.984 1.055 1.505 1.016 1.633 2.254 2.678 4.353 2.953 2.133.278 3.94 1.638 5.58 3.062 1.277 1.11 2.513 2.265 3.78 3.385 1.624 1.437 3.375 2.818 5.477 3.294 2.06.467 3.615 1.57 5.194 2.802 2.68 2.09 5.047 4.5 7.351 6.982 2.4 2.583 4.3 5.621 7.16 7.79.457.347.703.993.997 1.527.335.607.258 1.273-.305 1.627-1.154.726-2.267 1.259-1.836 3.066.23.966-.85 1.74-1.719 1.898-2.889.52-5.544 1.746-8.342 2.51-1.011.277-2.123.199-3.19.25-.3.014-.605-.101-.91-.133-2.595-.275-5.328-.13-7.746-.935-2.263-.753-4.132-2.618-6.28-3.801-3.521-1.942-7.16-3.596-11.376-2.735-.99.202-1.8-.256-2.592-.716-1.194-.692-2.339-1.471-3.545-2.142-1.757-.975-3.676-1.935-5.633-1.803-3.103.212-5.678-1.038-8.346-2.163-4.391-1.853-8.625-4.008-12.567-6.702-2.68-1.83-5.104-3.957-7.153-6.483-2.932-3.613-4.305-7.703-3.99-12.403.132-1.98.805-3.55 2.255-4.836a144.37 144.37 0 0 1 2.09-1.814c1.32-1.123 2.165-2.432 2.575-4.21.782-3.4 3.26-5.488 6.333-6.825 1.416-.615 2.896-.75 4.357.298 2.252 1.617 4.63 3.015 7.56 3.085.527.013 1.173.436 1.541.863 2.062 2.385 4.777 3.84 7.463 5.32 2.444 1.348 4.59 3.026 6.373 5.172.699 2.277-2.498 1.156-2.479 2.84 2.946 1.503 2.946 1.503 3.729-2.868m7.198-106.472c.032-2.153.178-4.27.797-6.37.637-2.164 1.61-4.276 1.004-6.7-.302-1.214.48-2.365 1.192-3.385 1.624-2.324 3.845-3.939 6.315-5.24 2.11-1.11 3.866-.995 5.758.848 4.079 3.971 8.892 7.035 13.605 10.205 4.2 2.823 8.389 5.664 12.495 8.62 6.849 4.93 12.202 11.16 15.89 18.785 2.02 4.179 2.613 8.472 1.089 12.942-2.032 5.958-8.683 9.305-14.529 7.232-.98-.348-1.81-1.12-2.716-1.686-.415-.261-.955-.325-1.057.213-.543 2.865-2.634 2.597-4.624 2.23-1.339-.245-2.644-.773-3.905-1.312-3.373-1.44-6.74-2.898-10.06-4.453-3.254-1.526-5.92-3.855-8.112-6.667-1.694-2.174-3.21-4.49-4.748-6.781-1.71-2.547-3.247-5.217-5.056-7.687-2.1-2.867-3.475-7.12-3.338-10.795m385.768 159.545c-.416 8.763-9.209 14.622-16.443 10.37-7.407-4.355-14.53-9.167-20.661-15.289-4.697-4.689-8.728-9.848-11.957-15.68-1.553-2.802-1.703-5.391-.617-8.325.912-2.462 1.926-4.844 3.441-6.98.91-1.284 1.364-2.587 1.484-4.205.242-3.246 2.084-5.673 4.687-7.56 2.08-1.508 5.116-1.292 6.812.188 10.226 8.924 19.647 18.528 26.44 30.434 2.364 4.142 4.333 8.45 5.755 13 .456 1.457.776 2.956 1.059 4.047m-148.558-65.486c3.33 5.213 4.934 10.006 6.16 14.92.568 2.282.155 4.579-.841 6.73-1.472 3.181-4.688 5.08-8.185 4.697-3.227-.353-6.286-1.379-9.254-2.663-8.931-3.862-16.043-10.018-22.128-17.49-1.818-2.233-2.742-4.75-2.849-7.6-.041-1.073-.132-2.142-.174-3.213-.102-2.62-.39-5.2-1.637-7.57-.495-.943-.449-1.565.605-2.228.975-.612.873-1.872.8-2.943-.093-1.38-.207-2.759.2-4.106.45-1.488 1.812-2.255 3.19-1.64 10.369 4.623 20.703 9.336 29.008 17.378 2.084 2.018 3.876 4.336 5.105 5.728M47.017 3.462c-.076 3.285-1.121 6.333-2.388 9.3-1.203 2.818-2.574 5.564-3.853 8.35-1.604 3.49-3.09 7.04-3.573 10.88-.392 3.106-1.537 5.907-2.905 8.667-3.32 6.695-7.988 12.356-13.422 17.408-2.134 1.985-4.425 3.8-6.648 5.688-2.88 2.45-6.466 3.412-9.914 4.649-.556.2-1.216.159-1.826.144C1.19 68.516.09 67.606.02 66.293a15.83 15.83 0 0 1 .248-3.646c.66-3.654 1.992-7.08 3.88-10.27 1.876-3.165 3.83-6.285 5.77-9.412 2.917-4.699 5.582-9.485 7.02-14.912.66-2.492 1.893-4.843 2.975-7.21 2.109-4.612 5.279-8.257 9.98-10.38 1.577-.713 2.76-1.92 4.084-2.956 2.051-1.608 4.097-3.224 6.182-4.785 1.24-.926 2.626-1.532 4.204-1.707 2.198-.241 2.746.225 2.654 2.447m211.406 50.323c-1.657 5.131-4.3 9.767-7.13 14.318-2.507 4.03-5.19 7.98-7.322 12.205-1.51 2.995-3.862 3.923-6.688 3.762-4.262-.246-7.528-2.37-9.376-6.36-.94-2.033-1.181-4.11-.208-6.216.646-1.398 1.086-2.808 1.059-4.403-.047-2.83 1.461-4.992 3.565-6.648 1.795-1.412 3.77-2.618 5.753-3.765 3.183-1.84 6.47-3.507 8.843-6.452.382-.474.864-.876 1.536-.872 3.05.018 6.153-.445 9.068.87.36.162.586.618.873.938.712.867.66 1.742.027 2.623" fill="#D0F5E1" fill-rule="evenodd"/></svg>