<svg width="1093" height="779" viewBox="0 0 1093 779" xmlns="http://www.w3.org/2000/svg"><title>Page 1</title><g fill="#F1F1F1" fill-rule="evenodd"><path d="M147.718 700.492c1.003-.505 1.985-.891 2.786.34.334.513.733.984 1.055 1.505 1.016 1.633 2.254 2.678 4.353 2.953 2.133.278 3.94 1.638 5.58 3.062 1.277 1.11 2.513 2.265 3.78 3.385 1.624 1.437 3.375 2.818 5.477 3.294 2.06.467 3.615 1.57 5.194 2.802 2.68 2.09 5.047 4.5 7.351 6.982 2.4 2.583 4.3 5.621 7.16 7.79.457.347.703.993.997 1.527.335.607.258 1.273-.305 1.627-1.154.726-2.267 1.259-1.836 3.066.23.966-.85 1.74-1.719 1.898-2.889.52-5.544 1.746-8.342 2.51-1.011.277-2.123.199-3.19.25-.3.014-.605-.101-.91-.133-2.595-.275-5.328-.13-7.746-.935-2.263-.753-4.132-2.618-6.28-3.801-3.521-1.942-7.16-3.596-11.376-2.735-.99.202-1.8-.256-2.592-.716-1.194-.692-2.339-1.471-3.545-2.142-1.757-.975-3.676-1.935-5.633-1.803-3.103.212-5.678-1.038-8.346-2.163-4.391-1.853-8.625-4.008-12.567-6.702-2.68-1.83-5.104-3.957-7.153-6.483-2.932-3.613-4.305-7.703-3.99-12.403.132-1.98.805-3.55 2.255-4.836a144.37 144.37 0 0 1 2.09-1.814c1.32-1.123 2.165-2.432 2.575-4.21.782-3.4 3.26-5.488 6.333-6.825 1.416-.615 2.896-.75 4.357.298 2.252 1.617 4.63 3.015 7.56 3.085.527.013 1.173.436 1.541.863 2.062 2.385 4.777 3.84 7.463 5.32 2.444 1.348 4.59 3.026 6.373 5.172.699 2.277-2.498 1.156-2.479 2.84 2.946 1.503 2.946 1.503 3.729-2.868m7.198-106.472c.032-2.153.178-4.27.797-6.37.637-2.164 1.61-4.276 1.004-6.7-.302-1.214.48-2.365 1.192-3.385 1.624-2.324 3.845-3.939 6.315-5.24 2.11-1.11 3.866-.995 5.758.848 4.079 3.971 8.892 7.035 13.605 10.205 4.2 2.823 8.389 5.664 12.495 8.62 6.849 4.93 12.202 11.16 15.89 18.785 2.02 4.179 2.613 8.472 1.089 12.942-2.032 5.958-8.683 9.305-14.529 7.232-.98-.348-1.81-1.12-2.716-1.686-.415-.261-.955-.325-1.057.213-.543 2.865-2.634 2.597-4.624 2.23-1.339-.245-2.644-.773-3.905-1.312-3.373-1.44-6.74-2.898-10.06-4.453-3.254-1.526-5.92-3.855-8.112-6.667-1.694-2.174-3.21-4.49-4.748-6.781-1.71-2.547-3.247-5.217-5.056-7.687-2.1-2.867-3.475-7.12-3.338-10.795m385.768 159.545c-.416 8.763-9.209 14.622-16.443 10.37-7.407-4.355-14.53-9.167-20.661-15.289-4.697-4.689-8.728-9.848-11.957-15.68-1.553-2.802-1.703-5.391-.617-8.325.912-2.462 1.926-4.844 3.441-6.98.91-1.284 1.364-2.587 1.484-4.205.242-3.246 2.084-5.673 4.687-7.56 2.08-1.508 5.116-1.292 6.812.188 10.226 8.924 19.647 18.528 26.44 30.434 2.364 4.142 4.333 8.45 5.755 13 .456 1.457.776 2.956 1.059 4.047m272.469-539.876c-.438-.038-.704-.035-.958-.086-6.064-1.227-6.216-3.036-3.529-7.66.859-1.48 2.145-2.642 3.527-3.64a134.183 134.183 0 0 1 5.496-3.748c2.195-1.425 4.337-2.902 6.21-4.749a9.25 9.25 0 0 1 1.85-1.413c3.488-2.008 6.09-4.891 8.197-8.254 1.108-1.768 2.118-3.597 3.174-5.396.66-1.126 1.32-2.251 1.99-3.372 3.277-5.503 8.185-9.047 13.995-11.411 2.05-.834 4.192-1.43 6.042-2.698.945-.65 1.932-.67 2.976-.276.98.37 1.416 1.13 1.222 2.151-.25 1.321-.962 2.433-1.715 3.487-1.538 2.152-2.513 4.541-3.345 7.028a456.847 456.847 0 0 1-4.383 12.551c-1.396 3.802-3.158 7.433-5.357 10.854-4.65 7.236-11.172 11.595-19.708 12.7-2.364.306-4.57.919-6.776 1.728-2.445.899-4.938 1.654-7.531 2.021-.516.073-1.033.137-1.377.183M610.126 138.82c1.254-2.461 2.35-5.019 3.792-7.366 4.35-7.089 10.904-11.04 18.892-12.811 1.048-.232 2.194-.18 3.163-.579 4.062-1.67 8.123-1.241 12.18-.136 2.429.662 5.165.314 7.248 2.143-.395 2.523-2.19 4.33-3.37 6.44-7.5 13.41-17.683 24.624-28.89 34.987-1.35 1.248-2.795 2.433-3.941 3.855-2.304 2.856-5.25 3.756-8.616 2.824-3.65-1.01-6.206-3.4-6.895-7.277-.629-3.536-.212-7.041.925-10.44 1.368-4.093 3.043-8.052 5.512-11.64m-218 549.258c3.33 5.213 4.934 10.006 6.16 14.92.568 2.282.155 4.579-.841 6.73-1.472 3.181-4.688 5.08-8.185 4.697-3.227-.353-6.286-1.379-9.254-2.663-8.931-3.862-16.043-10.018-22.128-17.49-1.818-2.233-2.742-4.75-2.849-7.6-.041-1.073-.132-2.142-.174-3.213-.102-2.62-.39-5.2-1.637-7.57-.495-.943-.449-1.565.605-2.228.975-.612.873-1.872.8-2.943-.093-1.38-.207-2.759.2-4.106.45-1.488 1.812-2.255 3.19-1.64 10.369 4.623 20.703 9.336 29.008 17.378 2.084 2.018 3.876 4.336 5.105 5.728M47.017 512.462c-.076 3.285-1.121 6.333-2.388 9.3-1.203 2.818-2.574 5.564-3.853 8.35-1.604 3.49-3.09 7.04-3.573 10.88-.392 3.106-1.537 5.907-2.905 8.667-3.32 6.695-7.988 12.356-13.422 17.408-2.134 1.985-4.425 3.8-6.648 5.688-2.88 2.45-6.466 3.412-9.914 4.649-.556.2-1.216.159-1.826.144-1.298-.032-2.397-.942-2.468-2.255a15.83 15.83 0 0 1 .248-3.646c.66-3.654 1.992-7.08 3.88-10.27 1.876-3.165 3.83-6.285 5.77-9.412 2.917-4.699 5.582-9.485 7.02-14.912.66-2.492 1.893-4.843 2.975-7.21 2.109-4.612 5.279-8.257 9.98-10.38 1.577-.713 2.76-1.92 4.084-2.956 2.051-1.608 4.097-3.224 6.182-4.785 1.24-.926 2.626-1.532 4.204-1.707 2.198-.241 2.746.225 2.654 2.447M819.018 81.036c.162-7.187 2.197-12.72 6.732-17.072 2.349-2.255 4.3-4.779 6.309-7.295 1.627-2.036 3.317-4.039 5.134-5.906a25.037 25.037 0 0 1 10.456-6.475c2.179-.698 4.28-1.64 6.407-2.497 2.005-.808 3.993-1.52 6.221-.868 1.297.38 2.39-.037 3.207-1.185.44-.62.956-1.21 1.533-1.703 1.152-.982 2.512-.897 3.738.135.852.72.974 1.583.342 2.41-.093.122-.171.256-.273.37-1.371 1.533-2.561 4.073-2.766 6.028-.171 1.635-1.022 2.93-2.226 3.894-1.308 1.046-2.719 2.056-4.245 2.702-1.283.544-1.93 1.4-2.443 2.542-4.855 10.82-11.667 20.522-17.549 30.756-.641 1.115-1.451 1.926-2.567 2.533-3.108 1.69-6.207 3.37-9.893 3.349-3.514-.02-5.938-1.614-6.899-4.937-.721-2.495-1.352-5.054-1.218-6.781M476.197 203.7c.573-7.867 3.036-16.15 8.256-23.505 1.167-1.644 2.478-2.983 4.5-3.748 2.467-.934 4.34-2.857 6.095-4.818 1.435-1.605 2.861-3.218 4.312-4.81 1.306-1.434 2.935-2.212 4.888-2.204.91.005 1.912-.068 2.575.71.858 1.01-.102 1.614-.636 2.298-.41.524-.46 1.1-.207 1.713 1.176 2.848.715 5.712.14 8.598-.631 3.16-1.139 6.292-.573 9.587.579 3.368-.405 6.735-.842 10.08-.618 4.735-1.888 9.33-3.877 13.69-1.282 2.808-3.062 5.298-4.938 7.754-2.323 3.04-5.315 3.417-8.656 2.601-2.434-.593-4.496-1.921-6.19-3.805-2.983-3.32-4.944-8.562-4.847-14.141m563.248-76.143c-.12-3.445 1.01-6.254 2.62-8.926 1.838-3.049 4.242-5.63 6.726-8.141 3.13-3.164 6.3-6.287 9.438-9.444 3.124-3.144 6.984-5.026 11.2-5.989 4.02-.919 8.145-1.404 12.237-1.976 3.17-.444 6.391-.556 9.4-1.833.618-.262 1.124.245 1.138.924.038 1.787-.805 3.248-1.695 4.684-1.45 2.342-3.28 4.44-4.404 6.993-.522 1.185-1.711 1.719-2.674 2.462-5.245 4.058-10.082 8.533-13.885 14.004-1.483 2.134-2.808 4.39-4.06 6.67-3.36 6.123-8.858 8.663-15.467 9.187-2.303.183-4.558-.542-6.583-1.736-2.707-1.595-4.463-3.752-3.99-6.879m-72.47-52.593c1.39.306 3.443-.296 5.437-1.138 2.66-1.124 5.416-.962 8.165-.625.49.061 1.067.647 1.312 1.137.283.567-.123 1.175-.532 1.653-.199.231-.403.514-.666.624-3.418 1.42-5.463 4.38-7.835 6.966-5.308 5.787-10.647 11.54-17.405 15.712-1.227.757-1.992 1.897-2.828 2.991-2.257 2.954-4.863 5.545-7.94 7.645-3.29 2.242-6.876 3.303-10.889 2.88-1.25-.134-2.4-.466-3.524-.978-4.886-2.223-6.746-6.904-4.692-11.846.895-2.156 2.256-4.015 3.812-5.73a37.049 37.049 0 0 1 8.148-6.737c4.32-2.642 8.631-5.302 13.014-7.838 1.982-1.147 4.1-2.071 6.202-2.99 2.987-1.306 6.102-2.07 10.221-1.726m22.903 67.607c-.899 3.587-2.549 6.335-4.342 8.993-3.384 5.012-7.686 9.17-12.396 12.909-2.28 1.811-4.801 3.326-7.037 5.185-3.942 3.28-8.585 3.842-13.39 3.64-2.582-.108-5.19-.309-7.677-1.28-1.47-.576-2.785-1.298-3.772-2.513-1.249-1.536-1.803-3.15-.51-5.016.781-1.128 1.328-2.419 2.053-3.59 1-1.614 2.362-2.885 4.233-3.343 1.55-.379 2.728-1.135 3.83-2.285 2.602-2.713 5.912-4.343 9.412-5.563 3.318-1.159 6.68-2.194 10.02-3.287.872-.284 1.801-.468 2.598-.896 4.76-2.552 10.07-2.38 15.192-3.135.434-.064.9.084 1.786.181M945.066 290.31c-4.523.05-7.327-3.487-6.228-7.688.152-.582.453-1.127.71-1.679 1.615-3.475 3.258-6.936 4.853-10.42 1.277-2.794 2.62-5.547 4.32-8.115 2.41-3.64 5.38-6.69 9.213-8.846 2.939-1.653 5.82-3.415 8.817-4.953a33.868 33.868 0 0 1 5.952-2.384c2.501-.731 4.6 1.563 3.794 4.072-.37 1.151-1.013 2.229-1.62 3.29-3.494 6.116-7.126 12.153-10.262 18.47-1.57 3.16-3.232 6.277-5.363 9.113-3.028 4.032-6.788 7.067-11.665 8.588-.438.137-.858.343-1.304.438-.447.095-.916.09-1.217.114M258.423 562.785c-1.657 5.131-4.3 9.767-7.13 14.318-2.507 4.03-5.19 7.98-7.322 12.205-1.51 2.995-3.862 3.923-6.688 3.762-4.262-.246-7.528-2.37-9.376-6.36-.94-2.033-1.181-4.11-.208-6.216.646-1.398 1.086-2.808 1.059-4.403-.047-2.83 1.461-4.992 3.565-6.648 1.795-1.412 3.77-2.618 5.753-3.765 3.183-1.84 6.47-3.507 8.843-6.452.382-.474.864-.876 1.536-.872 3.05.018 6.153-.445 9.068.87.36.162.586.618.873.938.712.867.66 1.742.027 2.623m804.273-545.761c.129 4.425-1.215 8.253-3.218 11.992-2.37 4.424-9.218 4.574-11.772.008-2.02-3.615-3.067-7.463-2.286-11.508.816-4.225 2.356-8.27 4.722-11.923.665-1.025 1.4-2.063 2.31-2.86 4.731-4.157 4.689-3.53 7.17 1.129 2.195 4.122 3.322 8.582 3.074 13.162"/><path d="M258.423 562.785c-.008-.874-.017-1.749-.027-2.623.966.449 1.722.037 2.478-.545.507-.389 1.142-.429 1.707-.15.21.104.302.483.413.75.148.36.034.633-.313.714-.432.102-.978.358-1.296.197-1.881-.961-2.195.727-2.962 1.657m6.506 126.623c-.155.245-.258.621-.476.708-.499.198-1.44-.874-1.307-1.507.055-.26.295-.588.532-.68.634-.251 1.264.522 1.25 1.479M621.92 258.063c-.815-.416-.989-1.078-.73-1.905.75.44.877 1.12.73 1.905m357.408-12.606c-.103.174-.265.541-.32.526-.374-.103-.725-.29-1.083-.447.11-.085.207-.2.33-.25.373-.146.77-.371 1.073.171M221.37 357.898c-.26-.528-.036-.831.488-.874.186-.014.392.22.59.342-.248.146-.484.313-.745.427-.126.055-.295.009-.444.01l.11.095"/><path d="M621.192 256.164l-.419.058-.422-.002c-.116-.415-.014-.758.338-1.018l.503.962m106.655 518.939c.176.133.48.267.472.376-.017.223-.204.433-.32.649-.103-.094-.29-.186-.29-.28 0-.236.082-.473.138-.745m5.205 3.205c-.07.138-.124.242-.178.345l-.467-.322c.107-.104.212-.287.32-.29.11-.001.222.176.325.267M206.21 350.974c-.327.462-.717.362-1.103.177-.12-.058-.21-.18-.313-.274.362-.146.716-.32 1.09-.406.068-.016.22.336.325.503m-76.764 368.571c-.048.683-1.41 1.375-2.133 1.068-.127-.054-.31-.203-.305-.301.024-.519 1.583-1.311 2.17-1.103.115.04.18.22.268.336m50.303 8.692l1.461-.188c.553.105.72.46.635.978l-.142.269c-.823-.037-1.557-.237-1.954-1.06m2.854 1.727l.465.39c-.096-.022-.238-.012-.28-.072-.072-.105-.083-.253-.12-.383l-.065.065z"/><path d="M181.845 729.027c.597.033.853.342.758.936l.064-.064c-.505.09-.904.012-.965-.605l.143-.267m401.752-414.155c.157-.337.419-.454.754-.29.122.06.191.227.285.346-.258.103-.51.231-.777.29-.06.013-.173-.224-.262-.346m38.474-50.815c-.09.096-.208.295-.277.278-.205-.047-.393-.178-.587-.276.098-.096.217-.288.29-.271.206.047.394.178.574.27M173.135 583.665c-.261.097-.507.267-.735.245-.152-.013-.278-.302-.415-.466.237-.088.48-.256.707-.235.158.015.291.29.443.456m606.657-16.86l.094.263-.252-.034zM312.52 532.19l-.324-.164.337-.46.32.319-.334.305M921.391 24.916c-.355-.172-.427-.434-.148-.727.186-.194.438-.324.661-.484.064.265.243.58.158.782-.086.2-.436.291-.67.429M756.459 307.124l.305.322c-.117.09-.24.257-.35.248-.109-.009-.204-.192-.306-.3l.35-.27M530.399 533.618c-.51-.346.374-.313-.236-.23-.045.006-.083.07-.123.107l.421.057-.062.066"/></g></svg>