<svg width="617" height="291" viewBox="0 0 617 291" xmlns="http://www.w3.org/2000/svg"><title>Fill 33</title><path d="M337.153 213.688c-.438-.038-.704-.035-.958-.086-6.064-1.227-6.216-3.036-3.529-7.66.859-1.48 2.145-2.642 3.527-3.64a134.183 134.183 0 0 1 5.496-3.748c2.195-1.425 4.337-2.902 6.21-4.749a9.25 9.25 0 0 1 1.85-1.413c3.488-2.008 6.09-4.891 8.197-8.254 1.108-1.768 2.118-3.597 3.174-5.396.66-1.126 1.32-2.251 1.99-3.372 3.277-5.503 8.185-9.047 13.995-11.411 2.05-.834 4.192-1.43 6.042-2.698.945-.65 1.932-.67 2.976-.276.98.37 1.416 1.13 1.222 2.151-.25 1.321-.962 2.433-1.715 3.487-1.538 2.152-2.513 4.541-3.345 7.028a456.847 456.847 0 0 1-4.383 12.551c-1.396 3.802-3.158 7.433-5.357 10.854-4.65 7.236-11.172 11.595-19.708 12.7-2.364.306-4.57.919-6.776 1.728-2.445.899-4.938 1.654-7.531 2.021-.516.073-1.033.137-1.377.183M134.126 138.82c1.254-2.461 2.35-5.019 3.792-7.366 4.35-7.089 10.904-11.04 18.892-12.811 1.048-.232 2.194-.18 3.163-.579 4.062-1.67 8.123-1.241 12.18-.136 2.429.662 5.165.314 7.248 2.143-.395 2.523-2.19 4.33-3.37 6.44-7.5 13.41-17.683 24.624-28.89 34.987-1.35 1.248-2.795 2.433-3.941 3.855-2.304 2.856-5.25 3.756-8.616 2.824-3.65-1.01-6.206-3.4-6.895-7.277-.629-3.536-.212-7.041.925-10.44 1.368-4.093 3.043-8.052 5.512-11.64m208.892-57.784c.162-7.187 2.197-12.72 6.732-17.072 2.349-2.255 4.3-4.779 6.309-7.295 1.627-2.036 3.317-4.039 5.134-5.906a25.037 25.037 0 0 1 10.456-6.475c2.179-.698 4.28-1.64 6.407-2.497 2.005-.808 3.993-1.52 6.221-.868 1.297.38 2.39-.037 3.207-1.185.44-.62.956-1.21 1.533-1.703 1.152-.982 2.512-.897 3.738.135.852.72.974 1.583.342 2.41-.093.122-.171.256-.273.37-1.371 1.533-2.561 4.073-2.766 6.028-.171 1.635-1.022 2.93-2.226 3.894-1.308 1.046-2.719 2.056-4.245 2.702-1.283.544-1.93 1.4-2.443 2.542-4.855 10.82-11.667 20.522-17.549 30.756-.641 1.115-1.451 1.926-2.567 2.533-3.108 1.69-6.207 3.37-9.893 3.349-3.514-.02-5.938-1.614-6.899-4.937-.721-2.495-1.352-5.054-1.218-6.781M.197 203.7c.573-7.867 3.036-16.15 8.256-23.505 1.167-1.644 2.478-2.983 4.5-3.748 2.467-.934 4.34-2.857 6.095-4.818 1.435-1.605 2.861-3.218 4.312-4.81 1.306-1.434 2.935-2.212 4.888-2.204.91.005 1.912-.068 2.575.71.858 1.01-.102 1.614-.636 2.298-.41.524-.46 1.1-.207 1.713 1.176 2.848.715 5.712.14 8.598-.631 3.16-1.139 6.292-.573 9.587.579 3.368-.405 6.735-.842 10.08-.618 4.735-1.888 9.33-3.877 13.69-1.282 2.808-3.062 5.298-4.938 7.754-2.323 3.04-5.315 3.417-8.656 2.601-2.434-.593-4.496-1.921-6.19-3.805C2.062 214.521.1 209.28.198 203.7m563.247-76.143c-.12-3.445 1.01-6.254 2.62-8.926 1.838-3.049 4.242-5.63 6.726-8.141 3.13-3.164 6.3-6.287 9.438-9.444 3.124-3.144 6.984-5.026 11.2-5.989 4.02-.919 8.145-1.404 12.237-1.976 3.17-.444 6.391-.556 9.4-1.833.618-.262 1.124.245 1.138.924.038 1.787-.805 3.248-1.695 4.684-1.45 2.342-3.28 4.44-4.404 6.993-.522 1.185-1.711 1.719-2.674 2.462-5.245 4.058-10.082 8.533-13.885 14.004-1.483 2.134-2.808 4.39-4.06 6.67-3.36 6.123-8.858 8.663-15.467 9.187-2.303.183-4.558-.542-6.583-1.736-2.707-1.595-4.463-3.752-3.99-6.879m-72.47-52.593c1.39.306 3.443-.296 5.437-1.138 2.66-1.124 5.416-.962 8.165-.625.49.061 1.067.647 1.312 1.137.283.567-.123 1.175-.532 1.653-.199.231-.403.514-.666.624-3.418 1.42-5.463 4.38-7.835 6.966-5.308 5.787-10.647 11.54-17.405 15.712-1.227.757-1.992 1.897-2.828 2.991-2.257 2.954-4.863 5.545-7.94 7.645-3.29 2.242-6.876 3.303-10.889 2.88-1.25-.134-2.4-.466-3.524-.978-4.886-2.223-6.746-6.904-4.692-11.846.895-2.156 2.256-4.015 3.812-5.73a37.049 37.049 0 0 1 8.148-6.737c4.32-2.642 8.631-5.302 13.014-7.838 1.982-1.147 4.1-2.071 6.202-2.99 2.987-1.306 6.102-2.07 10.221-1.726m22.903 67.607c-.899 3.587-2.549 6.335-4.342 8.993-3.384 5.012-7.686 9.17-12.396 12.909-2.28 1.811-4.801 3.326-7.037 5.185-3.942 3.28-8.585 3.842-13.39 3.64-2.582-.108-5.19-.309-7.677-1.28-1.47-.576-2.785-1.298-3.772-2.513-1.249-1.536-1.803-3.15-.51-5.016.781-1.128 1.328-2.419 2.053-3.59 1-1.614 2.362-2.885 4.233-3.343 1.55-.379 2.728-1.135 3.83-2.285 2.602-2.713 5.912-4.343 9.412-5.563 3.318-1.159 6.68-2.194 10.02-3.287.872-.284 1.801-.468 2.598-.896 4.76-2.552 10.07-2.38 15.192-3.135.434-.064.9.084 1.786.181M469.066 290.31c-4.523.05-7.327-3.487-6.228-7.688.152-.582.453-1.127.71-1.679 1.615-3.475 3.258-6.936 4.853-10.42 1.277-2.794 2.62-5.547 4.32-8.115 2.41-3.64 5.38-6.69 9.213-8.846 2.939-1.653 5.82-3.415 8.817-4.953a33.868 33.868 0 0 1 5.952-2.384c2.501-.731 4.6 1.563 3.794 4.072-.37 1.151-1.013 2.229-1.62 3.29-3.494 6.116-7.126 12.153-10.262 18.47-1.57 3.16-3.232 6.277-5.363 9.113-3.028 4.032-6.788 7.067-11.665 8.588-.438.137-.858.343-1.304.438-.447.095-.916.09-1.217.114m117.63-273.286c.129 4.425-1.215 8.253-3.218 11.992-2.37 4.424-9.218 4.574-11.772.008-2.021-3.615-3.067-7.463-2.286-11.508.816-4.225 2.356-8.27 4.722-11.923.665-1.025 1.4-2.063 2.31-2.86 4.731-4.157 4.689-3.53 7.17 1.129 2.195 4.122 3.322 8.582 3.074 13.162" fill="#D0F5E1" fill-rule="evenodd"/></svg>