<svg width="1073" height="858" viewBox="0 0 1073 858" xmlns="http://www.w3.org/2000/svg"><title>Page 1</title><g fill="#F1F1F1" fill-rule="evenodd"><path d="M191.8 843.929c.284.288.57.575.866.858 2.97 2.856 6.796 5.276 10.53 6.984 3.704 1.693 7.702 1.524 11.499 2.814 2.122.721 4.027 1.898 5.873 3.161.275-.177.553-.332.837-.463 1.397-2.537 3.635-2.904 8.009-2.573 3.088.234 6.134-.143 9.11-.898 5.383-4.588 6.61-12.153 2.727-19.948-4.326-8.685-10.46-15.704-18.184-21.477-10.112-7.558-21.41-13.466-30.737-22.119-.554-.514-1.431-.913-2.178-.95-3.88-.191-12.084 6.41-11.612 10.285.556 4.566-1.817 8.269-2.05 12.512-.255 4.612.178 9.044 2.577 12.971 3.375 5.523 6.985 10.912 10.69 16.221a34.859 34.859 0 0 0 2.043 2.622M0 789.132c3.801-10.467 10.573-19.31 15.762-29.013 2.557-4.78 4.012-10.147 6.035-15.22 2.605-6.529 6.587-11.73 13.165-14.928 2.915-1.418 5.257-4.014 7.857-6.079 2.22-1.762 4.512-3.366 7.292-4.19 2.862-.849 4.13.017 3.807 3.078-.495 4.693-2.11 9.043-4.127 13.236-3.31 6.882-5.455 14.127-7.844 21.364-5.756 17.436-17.374 30.282-34.392 37.863-2.773 1.235-5.376 1.57-7.555-1.11v-5zm1073-764c-1.484 3.043-2.739 6.228-4.503 9.1-3.204 5.211-9.561 5.342-13.217.432-1.195-1.604-1.916-3.44-2.462-5.388-2.367-8.435 2.415-22.643 9.373-27.85 2.351-1.76 4.142-2.357 5.743.964 1.951 4.046 4.018 8.001 4.153 12.622 1.148 2.612-.426 5.53.913 8.12v2z"/><path d="M1073 23.132c-1.885-2.529-.701-5.403-.913-8.12.295.11.6.15.913.12v8zM923.785 89.71c.995 3.853-.817 5.53-4.27 6.463-7.041 1.902-13.224 1.15-19.151-3.67-5.667-4.609-10.095-10.09-14.075-16.065-4.164-6.25-8.695-12.087-14.598-16.935-7.211-5.924-7.295-14.8-1.8-22.247 4.315-5.844 8.305-11.425 16.068-12.988 2.36-.475 4.057-.404 5.983.91 4.809 3.278 8.176 7.75 10.993 12.725 3.108 5.49 6.969 10.69 9.193 16.516 4.434 11.614 11.817 22.307 11.657 35.291M346.877 749.225c.283-4.613 2.206-7.693 5.931-11.102 7.252-6.638 15.63-10.04 24.425-13.6 3.858-1.562 5.32-.81 7.29 1.544 2.095 2.506 2.68 5.7 3.325 8.775.871 4.141 2.181 7.934 5.291 11.047 1.231 1.232 2.065 3.065 2.573 4.775 1.847 6.218 3.89 12.01 8.961 16.785 3.808 3.586 3.314 9.726 4.802 14.68.96 3.19-2.557 5.571-5.928 4.146-3.346-1.415-6.308-1.717-9.437.163-1.24.746-2.594.844-3.768-.033-8.567-6.404-19.285-8.834-27.878-15.267-4.84-3.623-9.556-7.207-12.689-12.499-1.72-2.907-2.975-5.938-2.898-9.414m-134.362-70.579c-2.068-4.112-4.01-8.282-5.605-12.642-.756-2.067-1.528-4.137-2.437-6.142-.05-.112-.107-.22-.157-.332a9.774 9.774 0 0 1-.316.833c-1.604 3.5-5.071 2.363-6.56-.568-1.177-2.317-1.096-5.025-1.596-7.508-.585-2.91-1.656-5.66-2.416-8.512-1.421.388-2.82 1.38-4.076 3.052-3.97 5.284-8.91 10.18-10.442 17.15-2.05 9.326-5.27 18.482-2.7 27.863-1.787 4.742.754 7.845 2.687 11.358 2.838 5.158 7.02 8.14 12.45 6.336 7.536-2.503 14.744-6.106 19.154-13.238 2.865-4.632 4.54-9.92 2.79-15.238-.263-.802-.518-1.608-.776-2.412m442.959-135.361c2.76-.758 5.523-1.5 8.266-2.279l.61-.223a88.449 88.449 0 0 0 4.142-1.635c-1.38-6.2-10.625-1.915-13.5 1.567-1.665 2.018-1.049 2.628.482 2.57m12.24 12.788a45.905 45.905 0 0 1-3.183 1.213c-3.656 1.722-7.465 3.113-10.144 2.98-1.898.564-3.78 1.19-5.624 1.95a6.58 6.58 0 0 1-1.106.53c-11.79 4.271-17.719 13.218-19.95 25.29-1.448 7.827-3.155 15.707-8.908 21.888-1.487 1.597-1.407 3.698-.847 5.68 1.072 3.793 5.86 6.337 11.024 5.861 2.302-.212 4.554-1.1 6.65-.462 9.926.457 18.12-5.7 18.282-14.744.301-16.694 6.114-31.499 14.06-45.722 1.09-1.95 1-3.316-.254-4.464m69.336-380.869c-.26-7.127 1.718-13.352 6.407-18.15 4.559-4.666 8.272-9.98 12.624-14.772 8.093-8.912 18.45-13.099 30.267-13.89 1.997-.134 2.899-1.183 3.949-2.513 1.569-1.987 3.625-2.689 5.517-.664 1.88 2.013-.058 3.345-1.501 4.371-1.634 1.161-2.287 2.188-1.941 4.466.657 4.321-2.544 6.684-5.921 8.277-2.773 1.307-4.244 3.276-5.501 5.965-5.643 12.068-13.207 23.048-19.971 34.481-2.613 4.415-12.487 7.837-17.387 6.432-2.81-.806-4.493-2.794-5.31-5.474-.874-2.87-1.461-5.813-1.232-8.529m221.347-63.748c2.251.542 4.69-.316 7.222-1.286 2.632-1.01 5.489-1.424 8.337-1.012 1.094.159 2.446.303 2.799 1.703.352 1.397-.644 2.312-1.669 2.754-4.511 1.943-7.012 6.022-10.171 9.377-5.944 6.31-11.889 12.612-19.336 17.208-1.79 1.105-2.776 2.824-4.04 4.34-3.988 4.785-8.385 9.043-14.461 11.072-6.433 2.148-12.841.397-16.167-4.33-3.089-4.39-2.476-9.223 2.151-15.012 1.653-2.068 3.465-4.132 5.58-5.686 9.114-6.697 18.677-12.684 29.047-17.282 3.245-1.44 6.692-1.925 10.708-1.846M813.59 217.053c-2.903-.467-5.571-.697-8.132-1.347-5.87-1.488-7.341-6.033-3.564-10.888 3.629-4.667 8.689-7.732 13.337-11.17 7.202-5.328 14.667-10.328 22.24-15.12 4.419-2.798 8.843-5.683 14.558-5.81 3.315-.074 5.914-2.812 8.776-4.47 1.427-.827 3.16-1.914 4.604-.77 1.328 1.05.515 2.862-.142 4.14-9.737 18.93-19.96 37.437-42.602 43.776-3.014.844-6.18 1.143-9.075 1.66M598.186 710.626c.053 2.956-.755 5.44-4.194 6.291-1.112.275-2.14.892-3.205 1.356-4.941 2.155-9.713 5.64-15.453 2.456-8.094-4.489-15.836-9.294-17.757-19.5-.45-2.393-.535-4.71.36-6.85 2.478-5.928 5.452-11.673 8.42-17.325 3.187-6.067 12.689-5.974 15.319-.016 3.773 8.544 9.464 15.86 13.8 24.003 1.571 2.95 2.842 6.015 2.71 9.585m57.943-449.716c-1.218 6.75-4.082 11.757-6.992 16.766-3.986 6.86-7.97 13.61-9.568 21.674-1.654 8.339-16.484 14.675-24.12 10.95-6.068-2.96-8.108-8.775-4.397-14.296 3.343-4.975 6.05-10.271 9.06-15.414 2.587-4.422 6.28-7.383 11.007-9.628 7.93-3.767 16.272-6.364 25.01-10.051m174.088 298.176c-7.037-.026-12.034-5.971-9.802-12.823 3.445-10.58 8.948-19.9 20.797-22.926 6.748-1.723 12.116-6.171 18.494-8.546 1.36-.507 2.962-1.713 4.114-.85 1.547 1.159.873 3.413.07 4.634-7.204 10.956-10.805 24.003-19.631 33.983-3.675 4.155-8.357 6.519-14.042 6.528M290.14 774.6c-.32-.046-.661-.09-1.024-.131-.988-.113-1.99-.104-4.087-.205-1.6-.415-3.508.554-5.441 2.597-1.892 1.998-4.346 3.749-6.888 4.795-8.723 3.587-12.95 10.09-13.97 19.26-.536 4.839 2.062 9.983 7.072 11.874 3.865 1.459 8.533 2.314 10.788-1.804 3.673-6.704 8.168-12.934 11.955-19.574 1.267-5.483 1.889-11.084 1.596-16.811m5.701 2.089c.55-.868 1.39-1.404 2.368-1.305.743.075 1.598.61 1.377 1.54-.207.871-1.082 1.071-1.936 1.047-.886-.024-1.509-.419-1.809-1.283M859.154 216.36c.401-2.123-1.717-2.43-3.26-2.349-2.73.142-4.906 1.34-6.826 3.04-.11.778-.107 1.503.158 2.036.145.293.364.512.627.68a2.587 2.587 0 0 0 1.105-.29c2.236-1.14 4.613-1.673 7.116-1.679.098 0 .184-.019.276-.029.396-.395.7-.858.804-1.409M232.387 644.723c1.026-3.76 2.594-7.253 4.286-10.78a24.538 24.538 0 0 0-.37-3.404c-.433-2.357-3.425-2.128-4.57-.598a24.295 24.295 0 0 0-4.67 17.733c.16 1.237 1.032 1.987 2.006 2.256.574-1.955 1.95-3.612 3.318-5.207"/></g></svg>