<?xml version="1.0" encoding="UTF-8"?>
<svg width="165px" height="44px" viewBox="0 0 165 44" version="1.1" xmlns="http://www.w3.org/2000/svg" xmlns:xlink="http://www.w3.org/1999/xlink">
    <!-- Generator: Sketch 45.2 (43514) - http://www.bohemiancoding.com/sketch -->
    <title>Page 1</title>
    <desc>Created with Sketch.</desc>
    <defs>
        <polygon id="path-1" points="0.000725274725 0.683370113 44.6631429 0.683370113 44.6631429 43.9498317 0.000725274725 43.9498317 0.000725274725 0.683370113"></polygon>
        <polygon id="path-3" points="7.63186665 0.631529319 7.63186665 8.87197699 0.39072379 8.87197699 0.39072379 0.631529319 7.63186665 0.631529319"></polygon>
    </defs>
    <g id="Symbols" stroke="none" stroke-width="1" fill="none" fill-rule="evenodd">
        <g id="Menu" transform="translate(0.000000, -1.000000)">
            <g id="Page-1">
                <g>
                    <g>
                        <g id="Group-3" transform="translate(0.000000, 0.366619)">
                            <mask id="mask-2" fill="white">
                                <use xlink:href="#path-1"></use>
                            </mask>
                            <g id="Clip-2"></g>
                            <path d="M22.3301209,42.4769187 C28.5656703,42.4769187 34.4712198,39.7992201 38.4674835,35.0694533 C41.5081978,31.4765467 43.1690769,27.0006072 43.1690769,22.3191034 C43.1690769,17.6340246 41.5081978,13.1580851 38.4674835,9.5616034 C34.4712198,4.83541173 28.5656703,2.1559256 22.3301209,2.1559256 C16.0963846,2.1559256 10.189022,4.83541173 6.19457143,9.5616034 C3.15385714,13.1580851 1.49479121,17.6340246 1.49479121,22.3191034 C1.49479121,27.0006072 3.15385714,31.4765467 6.19457143,35.0694533 C10.189022,39.7992201 16.0963846,42.4769187 22.3301209,42.4769187 M22.3301209,43.9498317 C15.6521538,43.9498317 9.32413187,41.0772938 5.0431978,36.0150492 C1.78127473,32.1558026 0.000725274725,27.3438102 0.000725274725,22.3191034 C0.000725274725,17.289034 1.78127473,12.4788291 5.0431978,8.6195826 C9.32413187,3.55376293 15.6521538,0.68301261 22.3301209,0.68301261 C29.0080879,0.68301261 35.3397363,3.55376293 39.617044,8.6195826 C42.8825934,12.4788291 44.6631429,17.289034 44.6631429,22.3191034 C44.6631429,27.3438102 42.8825934,32.1558026 39.617044,36.0150492 C35.3397363,41.0772938 29.0080879,43.9498317 22.3301209,43.9498317" id="Fill-1" fill="#FFE51B" mask="url(#mask-2)"></path>
                        </g>
                        <path d="M24.8923352,12.3579931 C25.9548626,11.6948247 27.1642582,11.2121955 28.4298626,11.1496324 C29.4851374,11.1013695 30.5041484,11.3498342 31.3926099,11.9146892 C32.3662912,12.5331696 33.0716209,13.4644653 33.4940934,14.5190996 C33.9727747,15.7077976 34.0797527,17.0144716 33.9056868,18.2764578 C33.693544,19.7976337 33.0752473,21.2365839 32.2157967,22.5110826 C31.1224451,24.1269968 29.6446978,25.4729962 28.0237088,26.5633808 L27.8025,26.7099571 L27.1733242,25.9627755 L27.3691484,25.7858115 C28.4824451,24.7919527 29.6446978,23.7963064 30.2394231,22.4449445 C30.9103022,20.9219811 31.3509066,19.1451904 31.3237088,17.4792257 C31.3037637,16.2708651 31.0190934,14.790802 30.0127747,13.9846324 C29.4107967,13.5002156 28.6655769,13.3625769 27.9058516,13.4197774 C26.7290934,13.5109407 25.4979396,14.0614956 24.4843681,14.6299256 L24.453544,14.6478008 L24.4209066,14.6585259 C24.1344231,14.735389 23.8425,14.7979521 23.5433242,14.8051021 C22.3466209,14.8301274 21.5379396,13.8952566 20.9395879,12.9907736 C19.9296429,11.844976 18.0566209,10.0520977 16.3340934,10.5865649 C15.039478,10.988756 14.3105769,12.5456822 13.9388736,13.7200801 C13.6342582,14.6817636 13.4529396,15.69886 13.3514011,16.7016564 C13.2226648,17.9082295 13.2063462,19.1291028 13.2571154,20.3392509 C13.3822253,23.1635259 13.9026099,26.0235511 14.7221703,28.7298499 C15.6178846,31.6989136 17.2823901,34.3801873 18.9813462,36.9917478 L19.1336538,37.2276999 L18.2778297,37.7425044 L18.125522,37.5065523 C16.6931044,35.3222081 15.3731044,33.0556381 14.2344231,30.7086299 C13.3006319,28.7781129 12.486511,26.7796702 11.8627747,24.7311772 C11.3568956,23.0580624 10.9743132,21.3366847 10.7948077,19.6027945 C10.6461264,18.1924445 10.6279945,16.7534943 10.8075,15.3431444 C11.0704121,13.2696261 11.7884341,11.1156696 13.233544,9.54444325 C13.7956319,8.93311286 14.4646978,8.41652081 15.2244231,8.0751053 C15.9188736,7.76050252 16.6731593,7.5996261 17.4383242,7.62822636 C18.4772802,7.66397667 19.4400824,8.04293001 20.2560165,8.67034805 C21.2333242,9.41752963 21.9386538,10.4614388 22.4245879,11.5732736 L22.4318407,11.5857863 L22.4372802,11.6000864 C22.551511,11.9575895 22.7400824,12.3401179 23.0827747,12.5385322 C23.619478,12.8459849 24.3755769,12.5921576 24.8923352,12.3579931" id="Fill-4" fill="#FFE51B"></path>
                        <g id="Group-8" transform="translate(156.677309, 33.591714)">
                            <mask id="mask-4" fill="white">
                                <use xlink:href="#path-3"></use>
                            </mask>
                            <g id="Clip-7"></g>
                            <path d="M1.19396555,2.50663335 C1.51489961,2.09729224 1.89929522,1.75051419 2.35077873,1.4913244 C2.75693258,1.25715984 3.18847104,1.06589565 3.63995456,0.935406999 C4.04973478,0.817430958 4.47039412,0.731630202 4.89830621,0.690517339 C5.2428117,0.65655454 5.59275676,0.631529319 5.94270181,0.631529319 L7.63259192,0.631529319 L7.63259192,1.7183389 L5.68522928,1.7183389 C5.24099851,1.7183389 4.78407544,1.75587673 4.35616335,1.87206526 C4.02072379,1.96322856 3.67803148,2.08477963 3.36797654,2.24565605 C3.12682269,2.37078216 2.89110841,2.52093348 2.69165786,2.70326009 C2.55022928,2.83911129 2.40154797,2.98568758 2.28187764,3.14120145 C2.09330621,3.38072856 1.9428117,3.64706841 1.84852599,3.93843348 C1.75786665,4.21728594 1.71072379,4.50686349 1.71072379,4.80001608 C1.71072379,5.0860186 1.75424027,5.36665858 1.84852599,5.63478594 C1.9428117,5.9136384 2.08967983,6.16567812 2.27643808,6.39269262 L2.28006445,6.39626765 L2.28187764,6.39626765 C2.5212183,6.7072954 2.81676775,6.96112264 3.16489961,7.14702427 C3.50215236,7.32220082 3.85753698,7.4669896 4.2256139,7.56530296 C4.55742709,7.65289124 4.90193258,7.7172418 5.2428117,7.74762957 C5.5184161,7.76729224 5.79583368,7.7851674 6.06962489,7.7851674 L7.63259192,7.7851674 L7.63259192,8.87197699 L5.94270181,8.87197699 C5.35160291,8.87197699 4.74962489,8.82907661 4.1712183,8.7039505 C3.71066884,8.60206211 3.24830621,8.46621091 2.81858093,8.26958417 C2.47588862,8.11049527 2.13863588,7.91744357 1.84489961,7.68149149 C1.61099851,7.49201482 1.38616335,7.28108796 1.19759192,7.04871091 C0.93105346,6.72159552 0.718910603,6.36051734 0.584734779,5.96726387 C0.457811702,5.59009805 0.39072379,5.19863209 0.39072379,4.80001608 C0.39072379,4.39246248 0.457811702,3.99205895 0.584734779,3.60238052 C0.718910603,3.20197699 0.9256139,2.83911129 1.19396555,2.50663335" id="Fill-6" fill="#B8B8B8" mask="url(#mask-4)"></path>
                        </g>
                        <polygon id="Fill-11" fill="#B8B8B8" points="153.914176 42.4631548 155.234176 42.4631548 155.234176 34.2244946 153.914176 34.2244946"></polygon>
                        <path d="M145.299363,34.4050337 C145.607604,34.2763326 145.933978,34.1887443 146.265791,34.1369064 C146.603044,34.0832809 146.94211,34.0600432 147.282989,34.0600432 C147.622055,34.0600432 147.961121,34.0832809 148.294747,34.1369064 C148.628374,34.1887443 148.954747,34.2763326 149.266615,34.4050337 C149.687275,34.5730602 150.115187,34.7857746 150.466945,35.0717771 C150.753429,35.3077292 151.005462,35.5812191 151.188593,35.8993969 C151.359033,36.1925495 151.475077,36.5089398 151.533099,36.8414177 C151.582055,37.1488704 151.609253,37.4598982 151.609253,37.7709259 L151.609253,42.4631548 L150.291066,42.4631548 L150.291066,37.837064 C150.291066,37.331197 150.19678,36.8414177 149.981011,36.3802387 C149.74711,35.8833093 149.214033,35.5812191 148.71722,35.3935299 C148.486945,35.3095167 148.253044,35.2505287 148.01189,35.2076283 C147.770736,35.1665154 147.527769,35.1468528 147.282989,35.1468528 C147.038209,35.1468528 146.793429,35.1665154 146.552275,35.2076283 C146.312934,35.2505287 146.07722,35.3095167 145.848758,35.3935299 C145.348319,35.5812191 144.817055,35.8833093 144.583154,36.3802387 C144.367385,36.8414177 144.274912,37.331197 144.274912,37.837064 L144.274912,42.4631548 L142.954912,42.4631548 L142.954912,37.7709259 C142.954912,37.4598982 142.98211,37.1488704 143.032879,36.8414177 C143.085462,36.5089398 143.206945,36.1925495 143.373758,35.8993969 C143.558703,35.5812191 143.808923,35.3077292 144.095407,35.0717771 C144.447165,34.7857746 144.875077,34.5730602 145.299363,34.4050337" id="Fill-13" fill="#B8B8B8"></path>
                        <polygon id="Fill-15" fill="#B8B8B8" points="139.327088 42.4631548 140.647088 42.4631548 140.647088 34.2244946 139.327088 34.2244946"></polygon>
                        <polygon id="Fill-16" fill="#B8B8B8" points="135.018956 42.4631548 136.337143 42.4631548 136.337143 31.6719221 135.018956 31.6719221"></polygon>
                        <path d="M125.827005,36.0983474 C126.146126,35.6890063 126.528709,35.3422282 126.982005,35.0830385 C127.386346,34.8488739 127.819698,34.6576097 128.272995,34.5271211 C128.682775,34.409145 129.103434,34.3233443 129.529533,34.2822314 C129.874038,34.2482686 130.225797,34.2232434 130.573929,34.2232434 L132.263819,34.2232434 L132.263819,35.310053 L130.316456,35.310053 C129.872225,35.310053 129.415302,35.3475908 128.98739,35.4637793 C128.651951,35.5549426 128.309258,35.6764937 127.999203,35.8373701 C127.758049,35.9624962 127.522335,36.1126475 127.326511,36.2949741 C127.179643,36.4308253 127.034588,36.5774016 126.913104,36.7329155 C126.724533,36.9724426 126.574038,37.2387825 126.479753,37.5301475 C126.390907,37.809 126.341951,38.0985776 126.341951,38.3917301 C126.341951,38.6777327 126.389093,38.9583726 126.479753,39.2265 C126.572225,39.5053525 126.720907,39.7573922 126.909478,39.9844067 L126.911291,39.9879817 L126.913104,39.9879817 C127.152445,40.2990095 127.447995,40.5528367 127.79794,40.7387383 C128.131566,40.9139149 128.488764,41.0587037 128.856841,41.157017 C129.190467,41.2446053 129.533159,41.3089559 129.874038,41.3393436 C130.14783,41.3590063 130.425247,41.3768815 130.700852,41.3768815 L132.263819,41.3768815 L132.263819,42.463691 L130.573929,42.463691 C129.981016,42.463691 129.380852,42.4207907 128.802445,42.2956646 C128.343709,42.1937762 127.879533,42.057925 127.449808,41.8612982 C127.107115,41.7022093 126.771676,41.5091576 126.476126,41.2732055 C126.242225,41.0837289 126.01739,40.872802 125.828819,40.640425 C125.564093,40.3133096 125.353764,39.9522314 125.217775,39.5589779 C125.087225,39.1818121 125.023764,38.7903462 125.023764,38.3917301 C125.023764,37.9841765 125.087225,37.583773 125.215962,37.1940946 C125.350137,36.793691 125.560467,36.4308253 125.827005,36.0983474" id="Fill-17" fill="#B8B8B8"></path>
                        <polygon id="Fill-18" fill="#B8B8B8" points="116.421099 42.4631548 117.741099 42.4631548 117.741099 31.6433219 116.421099 31.6433219"></polygon>
                        <path d="M112.346868,42.462976 L112.346868,38.7699685 C112.346868,38.210476 112.256209,37.6509836 112.005989,37.1451166 C111.79022,36.7089628 111.496484,36.3264344 111.110275,36.0207692 C110.724066,35.7186791 110.285275,35.5023897 109.813846,35.3647509 C109.30978,35.2163871 108.791209,35.146674 108.263571,35.146674 C107.657967,35.146674 107.048736,35.2271122 106.473956,35.4255265 C105.97533,35.5989155 105.509341,35.8402301 105.105,36.1744956 C104.744176,36.4712232 104.446813,36.8215763 104.231044,37.2327049 C104.03522,37.6116583 103.928242,38.0156368 103.928242,38.4410656 C103.928242,38.8664943 104.031593,39.2651103 104.238297,39.6351261 C104.459505,40.0265921 104.760495,40.3501324 105.124945,40.6200473 C105.536538,40.923925 106.007967,41.1384269 106.497527,41.2903657 C107.066868,41.4673298 107.668846,41.5406179 108.263571,41.5406179 C108.865549,41.5406179 109.467527,41.4655422 110.038681,41.2689155 C110.593516,41.0776513 111.113901,40.7898613 111.592582,40.4448707 L111.993297,40.1552932 L111.993297,41.49593 L111.882692,41.5692182 C111.41489,41.890971 110.890879,42.1322856 110.352363,42.3199748 C109.701429,42.5469893 108.996099,42.6274275 108.308901,42.6274275 C107.607198,42.6274275 106.910934,42.5362642 106.234615,42.348575 C105.590934,42.171611 104.978077,41.9070586 104.425055,41.5388304 C103.901044,41.1920523 103.458626,40.757686 103.11956,40.2339439 C102.767802,39.6905391 102.608242,39.0845712 102.608242,38.4410656 C102.608242,37.8762106 102.75511,37.3399559 103.008956,36.8358764 C103.286374,36.2871091 103.683462,35.8187799 104.156703,35.423739 C104.686154,34.9840101 105.299011,34.6658323 105.948132,34.4352427 C106.706044,34.1635404 107.509286,34.0598644 108.308901,34.0598644 C108.967088,34.0598644 109.619835,34.1474527 110.254451,34.3226293 C110.87456,34.4960183 111.451154,34.7659332 111.967912,35.146674 C112.48467,35.5292024 112.894451,36.0136192 113.197253,36.5766866 C113.538132,37.2112547 113.666868,37.9244735 113.666868,38.6376923 L113.666868,42.462976 L112.346868,42.462976 Z" id="Fill-19" fill="#B8B8B8"></path>
                        <path d="M99.0382582,34.2236009 L99.0382582,32.1018197 L97.7182582,32.1018197 L97.7182582,39.6344111 C97.7182582,39.9418638 97.745456,40.251104 97.7962253,40.5567692 C97.8524341,40.9053348 97.997489,41.2235126 98.2223242,41.5023651 C98.4761703,41.8223304 98.8369945,42.0439823 99.2123242,42.1994962 C99.7327088,42.4139981 100.372764,42.462261 100.929412,42.462261 L102.64106,42.462261 L102.64106,41.377239 L100.929412,41.377239 C100.613918,41.377239 100.302049,41.3504262 99.9901813,41.2914382 C99.7163901,41.2413878 99.5006209,41.0912364 99.3211154,40.8803096 C99.1815,40.7122831 99.0872143,40.5245939 99.0708956,40.3083045 C99.0491374,40.0723525 99.0382582,39.8381879 99.0382582,39.6022358 L99.0382582,35.308623 L102.64106,35.308623 L102.64106,34.2236009 L99.0382582,34.2236009 Z" id="Fill-20" fill="#B8B8B8"></path>
                        <path d="M89.3348077,34.4050337 C89.6466758,34.2763326 89.9730495,34.1887443 90.3048626,34.1369064 C90.6421154,34.0832809 90.9811813,34.0600432 91.3202473,34.0600432 C91.6575,34.0600432 91.9983791,34.0832809 92.3338187,34.1369064 C92.6674451,34.1887443 92.9938187,34.2763326 93.3038736,34.4050337 C93.7263462,34.5730602 94.1542582,34.7857746 94.5060165,35.0717771 C94.7925,35.3077292 95.0427198,35.5812191 95.2276648,35.8993969 C95.3981044,36.1925495 95.5141484,36.5089398 95.5703571,36.8414177 C95.6211264,37.1488704 95.6483242,37.4598982 95.6483242,37.7709259 L95.6483242,42.4631548 L94.3283242,42.4631548 L94.3283242,37.837064 C94.3283242,37.331197 94.2322253,36.8414177 94.0182692,36.3802387 C93.7861813,35.8833093 93.2531044,35.5812191 92.7562912,35.3935299 C92.5260165,35.3095167 92.2903022,35.2505287 92.0491484,35.2076283 C91.8079945,35.1665154 91.5650275,35.1468528 91.3202473,35.1468528 C91.075467,35.1468528 90.8325,35.1665154 90.589533,35.2076283 C90.3501923,35.2505287 90.1162912,35.3095167 89.8878297,35.3935299 C89.3873901,35.5812191 88.8525,35.8833093 88.6222253,36.3802387 C88.406456,36.8414177 88.3139835,37.331197 88.3139835,37.837064 L88.3139835,42.4631548 L86.9921703,42.4631548 L86.9921703,37.7709259 C86.9921703,37.4598982 87.0193681,37.1488704 87.0701374,36.8414177 C87.124533,36.5089398 87.2423901,36.1925495 87.4110165,35.8993969 C87.5959615,35.5812191 87.8479945,35.3077292 88.134478,35.0717771 C88.4844231,34.7857746 88.9141484,34.5730602 89.3348077,34.4050337" id="Fill-21" fill="#B8B8B8"></path>
                        <path d="M82.8135,36.0214842 C82.4327308,35.7247566 82.0084451,35.5084672 81.5279505,35.3833411 C81.0057527,35.2457024 80.4527308,35.147389 79.9105879,35.147389 C79.2233901,35.147389 78.5452582,35.2564275 77.9033901,35.5191923 C77.2941593,35.7694445 76.7737747,36.1394603 76.349489,36.6399647 C75.9215769,37.1458317 75.7438846,37.7392869 75.7438846,38.3917301 C75.7438846,38.8135839 75.8417967,39.2104124 76.0376209,39.5857907 C76.2406978,39.9808317 76.5253681,40.3133096 76.8735,40.592162 C77.261522,40.9049773 77.7130055,41.1284168 78.1862473,41.2821431 C78.7428956,41.4680448 79.3267418,41.5413329 79.9105879,41.5413329 C80.4817418,41.5413329 81.0547088,41.4680448 81.600478,41.2910807 C82.0682802,41.1391419 82.5179505,40.92464 82.9077857,40.6225498 C83.2541044,40.3544224 83.5460275,40.0290946 83.7636099,39.6483537 C83.9721264,39.2890631 84.0936099,38.9029596 84.1189945,38.4900435 L84.1335,38.2576665 L85.502456,38.2576665 L85.4788846,38.5275813 C85.4353681,39.0763487 85.2758077,39.6000908 85.0110824,40.0845076 C84.735478,40.5993121 84.3528956,41.0318909 83.8977857,41.3947566 C83.3919066,41.7951602 82.8135,42.0901003 82.1988297,42.2956646 C81.4971264,42.5334042 80.7573462,42.626355 80.0139396,42.626355 C79.290478,42.626355 78.5688297,42.5334042 77.8707527,42.3224773 C77.2361374,42.1312131 76.6287198,41.8523607 76.0902033,41.4608947 C75.5933901,41.098029 75.1763571,40.647575 74.8735549,40.1166828 C74.5635,39.5714905 74.4220714,38.9816103 74.4220714,38.3613424 C74.4220714,37.7464369 74.5580604,37.1619193 74.8463571,36.6185145 C75.1382802,36.0804723 75.5335549,35.6264433 76.0231154,35.2564275 C76.5471264,34.856024 77.145478,34.571809 77.7728407,34.3733947 C78.4781703,34.1535303 79.2161374,34.0587919 79.9541044,34.0587919 C80.8752033,34.0587919 81.7763571,34.2160933 82.619489,34.5896841 C83.3828407,34.9257371 84.0591593,35.4030038 84.5886099,36.0465095 L84.7844341,36.2824615 L77.1110275,40.2704092 L76.3023462,39.4177642 L82.8135,36.0214842 Z" id="Fill-22" fill="#B8B8B8"></path>
                        <path d="M68.9683681,35.3338269 C68.4896868,35.2087008 68.0055659,35.1479253 67.5123791,35.1479253 C67.113478,35.1479253 66.7163901,35.1693755 66.3193022,35.2194259 C65.9439725,35.2641138 65.579522,35.3624272 65.2259505,35.5036409 C64.6239725,35.7449555 64.0963352,36.1060337 63.7028736,36.6226258 C63.3384231,37.1034675 63.1516648,37.6432973 63.1516648,38.2456901 C63.1516648,38.6603938 63.260456,39.0554347 63.4472143,39.4254505 C63.6521044,39.8347916 63.9476538,40.1851447 64.2975989,40.4836598 C64.6983132,40.8215003 65.1733681,41.06639 65.6683681,41.2451416 C66.259467,41.4596434 66.8868297,41.5418692 67.5123791,41.5418692 C68.1615,41.5418692 68.8577637,41.461431 69.4543022,41.187941 C69.8822143,40.9931018 70.3246319,40.7374871 70.6564451,40.4067967 C70.8631484,40.2012323 71.0480934,39.9706428 71.180456,39.7096655 C71.2983132,39.4737134 71.3980385,39.2270363 71.4596868,38.9714215 C71.5177088,38.7354694 71.5575989,38.4977298 71.5702912,38.2564152 C71.5829835,38.0419133 71.5902363,37.8256239 71.5902363,37.6093345 L71.5902363,31.6998074 L72.9138626,31.6998074 L72.9138626,37.6093345 C72.9138626,37.8899745 72.8993571,38.172402 72.8775989,38.4512544 C72.8576538,38.7622822 72.8014451,39.0697349 72.7216648,39.371825 C72.6364451,39.6971529 72.500456,40.0081806 72.3336429,40.3031207 C72.1432582,40.6373862 71.8894121,40.9341138 71.6138077,41.2004537 C71.4216099,41.3881428 71.2004011,41.5525943 70.9791923,41.7027456 C70.6999615,41.8886472 70.3953462,42.0405861 70.083478,42.1657122 C69.7190275,42.3158635 69.3328187,42.4213269 68.9447967,42.4999776 C68.4824341,42.5929284 68.0055659,42.6268912 67.5341374,42.6268912 C66.7236429,42.6268912 65.909522,42.5214278 65.1443571,42.2533004 C64.4952363,42.0244984 63.8751264,41.7081081 63.347489,41.2683793 C62.8815,40.8822759 62.4952912,40.4175218 62.2215,39.874117 C61.9749066,39.3736125 61.833478,38.8391453 61.833478,38.2760779 C61.833478,37.4466706 62.0873242,36.6941264 62.5895769,36.0255955 C63.1208407,35.3123767 63.842489,34.8190224 64.6747418,34.5026321 C65.1080934,34.3363931 65.5577637,34.2291422 66.0146868,34.1612166 C66.4752363,34.093291 66.9412253,34.0593282 67.4054011,34.0593282 C68.0327637,34.0593282 68.6619396,34.1236788 69.2693571,34.2809801 C69.6102363,34.3667809 69.9384231,34.4847569 70.2557308,34.6313332 C70.5657857,34.7707595 70.8613352,34.9387859 71.1351264,35.1372002 L71.238478,35.2122759 L71.238478,36.5404001 L70.8413901,36.2597601 C70.5947967,36.0863711 70.3210055,35.9308572 70.0580934,35.7842809 C69.7135879,35.5930167 69.3473242,35.4428654 68.9683681,35.3338269" id="Fill-23" fill="#B8B8B8"></path>
                        <path d="M158.845137,22.2765605 L163.873104,22.2765605 L163.873104,14.7350315 C163.873104,13.6249842 163.746181,12.5006368 163.410742,11.4424275 C163.124258,10.5468821 162.728984,9.67993695 162.177775,8.90773014 C161.686401,8.22132409 161.100742,7.61178121 160.408104,7.11485183 C159.760797,6.65009773 159.060907,6.25863178 158.308434,5.98692938 C157.746346,5.77957755 157.1625,5.64372636 156.567775,5.56507566 C155.973049,5.48642497 155.371071,5.44531211 154.769093,5.44531211 C153.98761,5.44531211 153.20794,5.52038777 152.439148,5.66875158 C151.684863,5.81175284 150.957775,6.05306747 150.270577,6.39090794 C149.541676,6.75019861 148.87261,7.20780265 148.274258,7.75656999 C147.668654,8.30712484 147.148269,8.93275536 146.718544,9.62631148 C146.27794,10.3323802 145.944313,11.0920744 145.706786,11.8893064 C145.465632,12.7026261 145.347775,13.537396 145.347775,14.386466 C145.347775,15.6055517 145.559918,16.8103373 146.096621,17.9150221 C146.573489,18.8999433 147.209918,19.7811885 148.040357,20.5069199 C148.841786,21.2058386 149.757445,21.7313682 150.76739,22.0852963 C151.773709,22.4374369 152.818104,22.6251261 153.884258,22.6251261 C154.404643,22.6251261 154.935907,22.5911633 155.441786,22.4749748 C155.873324,22.382024 156.29761,22.2586854 156.716456,22.1228342 L156.716456,17.7702333 C156.426346,17.8417339 156.134423,17.907872 155.838874,17.9614975 C155.429093,18.0383607 155.008434,18.0901986 154.593214,18.0901986 C153.828049,18.0901986 153.106401,17.911447 152.448214,17.5253436 C151.771896,17.1553279 151.198929,16.6494609 150.850797,15.9594798 C150.558874,15.3803247 150.375742,14.7564817 150.375742,14.1076135 C150.375742,13.3622194 150.5625,12.6615132 150.950522,12.0233701 C151.325852,11.4084647 151.822665,10.9151103 152.444588,10.5504571 C153.106401,10.1679288 153.824423,9.98381463 154.593214,9.98381463 C155.318489,9.98381463 156.025632,10.1268159 156.663874,10.477169 C157.516071,10.9472856 158.168819,11.614029 158.458929,12.5471122 C158.734533,13.422995 158.845137,14.3399905 158.845137,15.2587736 L158.845137,22.2765605 Z M127.812445,24.5091677 L127.812445,29.074483 C128.329203,29.1781589 128.847775,29.2836223 129.364533,29.3908733 C129.81783,29.4891866 130.27294,29.5767749 130.729863,29.6500631 C131.148709,29.7197762 131.565742,29.7644641 131.990027,29.7859142 C132.508599,29.8145145 133.028984,29.8216646 133.549368,29.8216646 C134.55206,29.8216646 135.549313,29.705476 136.53206,29.5142119 C137.629038,29.2979224 138.609973,28.7652427 139.473049,28.0752617 C140.022445,27.6373203 140.522885,27.1350284 140.914533,26.5558733 C141.28261,26.0196185 141.583599,25.4386759 141.801181,24.829133 C142.024203,24.20529 142.169258,23.5617844 142.247225,22.9057661 C142.332445,22.1871847 142.366896,21.4650284 142.366896,20.742872 L142.366896,14.9102081 C142.366896,14.2220145 142.3125,13.5338209 142.229093,12.8509899 C142.132995,12.0805706 141.931731,11.329814 141.645247,10.6058701 C141.337005,9.81936318 140.894588,9.09720681 140.363324,8.43403846 C139.75772,7.67613178 138.981676,7.07195145 138.134918,6.59468474 C137.416896,6.18355612 136.642665,5.89755359 135.833984,5.7170145 C135.001731,5.53290038 134.153159,5.44531211 133.300962,5.44531211 C132.383489,5.44531211 131.469643,5.55435057 130.577555,5.77063997 C129.699973,5.97977932 128.878599,6.33191992 128.131566,6.82527427 C126.994698,7.57066835 126.122555,8.57346469 125.469808,9.75143758 C124.759038,11.0366614 124.443544,12.4344987 124.443544,13.8984741 C124.443544,14.7278815 124.548709,15.5572888 124.788049,16.3563083 C125.007445,17.0963398 125.31206,17.8059836 125.712775,18.4673644 C126.080852,19.0786948 126.516016,19.6471248 127.025522,20.1494168 C127.482445,20.6034458 127.993764,20.9984868 128.563104,21.3023644 L128.566731,21.304152 L128.570357,21.3059395 C129.203159,21.6634426 129.884918,21.9136948 130.601126,22.0566961 C131.326401,22.2014849 132.064368,22.2765605 132.805962,22.2765605 C133.28283,22.2765605 133.783269,22.2568979 134.252885,22.1764596 C134.582885,22.1228342 134.905632,22.0245208 135.21206,21.8993947 L135.21206,17.402005 C134.998104,17.4770807 134.782335,17.5396438 134.56294,17.5914817 C134.173104,17.6862201 133.774203,17.741633 133.371676,17.741633 C132.844038,17.741633 132.329093,17.6397446 131.844973,17.4341803 C131.384423,17.2393411 130.96739,16.9658512 130.613819,16.6172856 C130.254808,16.2687201 129.981016,15.8558039 129.781566,15.4017749 C129.571236,14.9245082 129.473324,14.4168537 129.473324,13.8984741 C129.473324,13.367582 129.569423,12.8474149 129.781566,12.3576356 C129.981016,11.9000315 130.254808,11.4853279 130.606566,11.1278247 C130.961951,10.764959 131.378984,10.4861066 131.844973,10.2876923 C132.329093,10.082128 132.844038,9.98381463 133.371676,9.98381463 C133.814093,9.98381463 134.252885,10.0714029 134.67717,10.2072541 C135.173984,10.3734931 135.610962,10.6577081 135.986291,11.0134237 C136.435962,11.444215 136.746016,12.005495 136.965412,12.5792875 C137.264588,13.3568569 137.342555,14.2613398 137.342555,15.0853846 L137.342555,20.7089092 C137.342555,21.2505265 137.324423,21.7939313 137.286346,22.3355485 C137.250082,22.8771658 137.101401,23.3901828 136.818544,23.8567245 C136.503049,24.367954 136.013489,24.7200946 135.46772,24.9614092 C134.71706,25.2885246 133.723434,25.3546627 132.911126,25.3546627 C132.416126,25.3546627 131.913874,25.3367875 131.424313,25.283162 C130.992775,25.2348991 130.561236,25.1705485 130.136951,25.0865353 C129.703599,24.998947 129.270247,24.8988462 128.842335,24.7826576 C128.499643,24.6932818 128.155137,24.6021185 127.812445,24.5091677 L127.812445,24.5091677 Z M116.438324,22.2765605 L121.466291,22.2765605 L121.466291,14.7350315 C121.466291,13.6249842 121.337555,12.5006368 121.002115,11.4424275 C120.717445,10.5468821 120.320357,9.67993695 119.769148,8.90773014 C119.279588,8.22132409 118.692115,7.61178121 118.003104,7.11485183 C117.353984,6.65009773 116.65228,6.25863178 115.899808,5.98692938 C115.33772,5.77957755 114.755687,5.64372636 114.162775,5.56507566 C113.564423,5.48642497 112.966071,5.44531211 112.360467,5.44531211 C111.580797,5.44531211 110.799313,5.52038777 110.030522,5.66875158 C109.279863,5.81175284 108.554588,6.05306747 107.863764,6.39090794 C107.133049,6.75019861 106.46761,7.20780265 105.865632,7.75656999 C105.260027,8.30712484 104.739643,8.93275536 104.311731,9.62631148 C103.87294,10.3323802 103.535687,11.0920744 103.298159,11.8893064 C103.057005,12.7026261 102.940962,13.537396 102.940962,14.386466 C102.940962,15.6055517 103.151291,16.8103373 103.687995,17.9150221 C104.166676,18.8999433 104.801291,19.7811885 105.631731,20.5069199 C106.433159,21.2058386 107.350632,21.7313682 108.358764,22.0852963 C109.365082,22.4374369 110.409478,22.6251261 111.475632,22.6251261 C111.996016,22.6251261 112.52728,22.5911633 113.036786,22.4749748 C113.466511,22.382024 113.890797,22.2586854 114.309643,22.1228342 L114.309643,17.7702333 C114.01772,17.8417339 113.723984,17.907872 113.43206,17.9614975 C113.024093,18.0383607 112.601621,18.0901986 112.186401,18.0901986 C111.421236,18.0901986 110.695962,17.911447 110.041401,17.5253436 C109.365082,17.1553279 108.793929,16.6494609 108.443984,15.9594798 C108.150247,15.3803247 107.967115,14.7564817 107.967115,14.1076135 C107.967115,13.3622194 108.1575,12.6615132 108.547335,12.0233701 C108.917225,11.4084647 109.414038,10.9151103 110.037775,10.5504571 C110.695962,10.1679288 111.419423,9.98381463 112.186401,9.98381463 C112.911676,9.98381463 113.618819,10.1268159 114.253434,10.477169 C115.109258,10.9472856 115.760192,11.614029 116.050302,12.5471122 C116.32772,13.422995 116.438324,14.3399905 116.438324,15.2587736 L116.438324,22.2765605 Z M85.6522253,22.2765605 L90.6783791,22.2765605 L90.6783791,12.8831652 C90.6783791,12.6078878 90.6910714,12.3308228 90.716456,12.0573329 C90.7400275,11.7302175 90.8179945,11.4120397 90.9557967,11.1117371 C91.0990385,10.7971343 91.3238736,10.536157 91.6012912,10.3252301 C91.9476099,10.0678279 92.3809615,9.98381463 92.8052473,9.98381463 C93.3546429,9.98381463 93.8351374,10.1822289 94.2539835,10.5290069 C94.8196978,11.0026986 94.9339286,11.8446185 94.9339286,12.5363871 L94.9339286,22.2765605 L99.9582692,22.2765605 L99.9582692,12.4309237 C99.9582692,11.9250567 99.9165659,11.4138272 99.8567308,10.9133228 C99.7860165,10.3091425 99.6046978,9.72283733 99.3671703,9.16691992 C99.0897527,8.52698928 98.6872253,7.95140921 98.2194231,7.43660467 C97.6482692,6.81276166 96.8812912,6.35515763 96.1088736,6.01016709 C95.6573901,5.81175284 95.1859615,5.66875158 94.6982143,5.5811633 C94.2014011,5.49178752 93.7009615,5.44531211 93.1950824,5.44531211 C92.6329945,5.44531211 92.0582143,5.50608764 91.521511,5.67590164 C90.9249725,5.86359079 90.3646978,6.1478058 89.8515659,6.49279634 C89.3203022,6.84136192 88.8307418,7.25070303 88.4028297,7.71724464 L88.1671154,7.97643443 L87.9277747,7.71724464 C87.4998626,7.25070303 87.008489,6.84136192 86.4808516,6.49279634 C85.9640934,6.14959332 85.4038187,5.86001576 84.8090934,5.67590164 C84.0584341,5.44173707 83.2678846,5.38274905 82.4882143,5.44531211 C81.7012912,5.50787516 80.9379396,5.68841425 80.2199176,6.01016709 C79.4529396,6.35694515 78.680522,6.81454918 78.1129945,7.43660467 C77.6415659,7.95140921 77.2408516,8.52698928 76.9634341,9.16691992 C76.7222802,9.72283733 76.5464011,10.3091425 76.4738736,10.9133228 C76.4122253,11.4138272 76.370522,11.9250567 76.370522,12.4309237 L76.370522,22.2765605 L81.3948626,22.2765605 L81.3948626,12.5363871 C81.3948626,12.3540605 81.4166209,12.1627963 81.4347527,11.9822573 C81.4601374,11.6891047 81.534478,11.4048897 81.6541484,11.1367623 C81.7901374,10.8221595 82.009533,10.5629697 82.2760714,10.3502554 C82.6278297,10.0714029 83.0811264,9.98381463 83.523544,9.98381463 C83.9496429,9.98381463 84.3829945,10.0678279 84.7275,10.3252301 C85.0103571,10.5415195 85.2333791,10.8114344 85.3766209,11.1331873 C85.5107967,11.4370649 85.5905769,11.7606053 85.6141484,12.0912957 C85.6359066,12.3540605 85.6522253,12.6204004 85.6522253,12.8831652 L85.6522253,22.2765605 Z M62.0209615,18.0204855 L62.0209615,22.2765605 L67.2266209,22.2765605 C67.7651374,22.2765605 68.3018407,22.2586854 68.8367308,22.2265101 C69.3480495,22.1925473 69.8539286,22.108534 70.3471154,21.9744704 C70.8276099,21.8439817 71.2736538,21.6330549 71.6888736,21.3542024 C72.1403571,21.0485372 72.5066209,20.6356211 72.8039835,20.1851671 C73.3062363,19.4236854 73.5292582,18.5781904 73.5292582,17.6683449 C73.5292582,17.2500662 73.4875549,16.833575 73.3987088,16.4260214 C73.313489,16.0452806 73.1684341,15.6877774 72.9472253,15.3642371 C72.6117857,14.8690952 72.1512363,14.4776293 71.6453571,14.1630265 C71.0687637,13.8090984 70.4740385,13.485558 69.8557418,13.2067055 L69.8503022,13.2031305 L69.8466758,13.2031305 C69.5638187,13.0601293 69.2737088,12.9296406 68.9781593,12.8080895 C68.6753571,12.6829634 68.3761813,12.5363871 68.0896978,12.3701482 C67.839478,12.2253594 67.5946978,12.0537579 67.3898077,11.8499811 C67.1831044,11.6462043 67.0489286,11.3941646 67.0489286,11.1027995 C67.0489286,10.8257346 67.1377747,10.5665448 67.3607967,10.3860057 C67.5421154,10.2412169 67.7542582,10.1536286 67.9827198,10.1089407 C68.2003022,10.0714029 68.4233242,10.0535277 68.6427198,10.0535277 L69.2084341,10.0535277 L72.6444231,10.0535277 L72.6444231,5.7956652 L68.363489,5.7956652 C67.9210714,5.7956652 67.4786538,5.80102774 67.0380495,5.81354035 C66.5666209,5.82426545 66.0970055,5.88861602 65.636456,5.99765448 C65.1432692,6.11205549 64.6718407,6.3068947 64.2330495,6.55714691 C63.7489286,6.83063682 63.3500275,7.21495271 63.0218407,7.65468159 C62.4488736,8.43046343 62.1986538,9.30813367 62.1986538,10.2644546 C62.1986538,10.7524464 62.2603022,11.2332881 62.3817857,11.7051923 C62.4978297,12.1520712 62.6882143,12.5685624 62.9547527,12.9475158 C63.3536538,13.5105832 63.8540934,13.9646122 64.4596978,14.3024527 C65.0653022,14.6385057 65.6799725,14.954896 66.3018956,15.2516236 C66.5357967,15.3660246 66.7678846,15.4768506 67.0054121,15.582314 C67.2375,15.6842024 67.4659615,15.8003909 67.6799176,15.9326671 C67.8793681,16.0560057 68.0679396,16.202582 68.2238736,16.372396 C68.4088187,16.5690227 68.5049176,16.8085498 68.5049176,17.0748897 C68.5049176,17.3251419 68.4305769,17.5664565 68.2220604,17.7273329 C68.0606868,17.848884 67.8630495,17.9221721 67.6617857,17.9614975 C67.4550824,18.0026103 67.2429396,18.0204855 67.0307967,18.0204855 L66.4487637,18.0204855 L62.0209615,18.0204855 Z" id="Fill-24" fill="#B8B8B8"></path>
                        <path d="M139.36332,31.7276967 C139.182022,31.8650686 139.093187,32.057746 139.093187,32.2825364 C139.093187,32.5073268 139.183835,32.7000042 139.36332,32.8391602 C139.542804,32.974748 139.767612,33.0211334 139.990608,33.0211334 C140.209978,33.0211334 140.436599,32.974748 140.61427,32.8391602 C140.793754,32.7000042 140.884403,32.5073268 140.884403,32.2825364 C140.884403,32.057746 140.793754,31.8650686 140.61427,31.7276967 C140.436599,31.5903248 140.209978,31.5457235 139.990608,31.5457235 C139.767612,31.5457235 139.542804,31.5903248 139.36332,31.7276967 Z" id="Fill-25" fill="#FFE51B"></path>
                        <path d="M153.679005,32.2809315 C153.679005,32.5054504 153.766028,32.6978952 153.949138,32.8368831 C154.12681,32.9723072 154.351618,33.0204183 154.574614,33.0204183 C154.797609,33.0204183 155.022418,32.9723072 155.200089,32.8368831 C155.381386,32.6978952 155.470222,32.5054504 155.470222,32.2809315 C155.470222,32.0581945 155.381386,31.8639679 155.200089,31.7267619 C155.022418,31.5913378 154.797609,31.5450085 154.574614,31.5450085 C154.351618,31.5450085 154.12681,31.5913378 153.949138,31.7267619 C153.766028,31.8639679 153.679005,32.0581945 153.679005,32.2809315 Z" id="Fill-26" fill="#FFE51B"></path>
                    </g>
                </g>
            </g>
        </g>
    </g>
</svg>