<?xml version="1.0" encoding="UTF-8"?>
<svg width="125px" height="113px" viewBox="0 0 125 113" version="1.1" xmlns="http://www.w3.org/2000/svg" xmlns:xlink="http://www.w3.org/1999/xlink">
    <!-- Generator: Sketch 45.2 (43514) - http://www.bohemiancoding.com/sketch -->
    <title>Group</title>
    <desc>Created with Sketch.</desc>
    <defs></defs>
    <g id="Page-1" stroke="none" stroke-width="1" fill="none" fill-rule="evenodd">
        <g id="Large-Device-Desktops-Copy-7" transform="translate(-588.000000, -340.000000)">
            <g id="noun_1006434_cc" transform="translate(588.000000, 340.000000)">
                <g id="Group">
                    <g transform="translate(0.000000, 0.026529)" id="Shape">
                        <path d="M89.7994366,0.0300978872 C78.8667915,0.0300978872 69.0668164,5.12276792 62.7198009,13.0462885 L3.41716587,13.0462885 C1.8633319,13.0462924 0.603701554,14.3020578 0.60369767,15.8511242 L0.60369767,85.9719601 C0.603701554,87.5210265 1.8633319,88.776792 3.41716587,88.7767958 L21.0013428,88.7767958 L28.9581826,110.558168 C29.3674986,111.657492 30.4195849,112.386949 31.595809,112.386949 C32.772033,112.386949 33.8241194,111.657492 34.2334354,110.558168 L42.1902752,88.7767958 L105.185589,88.7767958 C106.739423,88.776792 107.999054,87.5210265 107.999058,85.9719601 L107.999058,63.8838791 C117.841526,57.7912151 124.396302,46.9402174 124.396302,34.5646372 C124.396302,15.5335046 108.88914,0.0300978872 89.7994351,0.0300978872 L89.7994366,0.0300978872 Z M89.7994366,5.63976925 C105.849949,5.63976925 118.769365,18.5633722 118.769365,34.5646372 C118.769365,50.5659023 105.849948,63.4456236 89.7994351,63.4456236 C73.7641969,63.4456236 60.7855415,50.5659023 60.7855415,34.5646372 C60.7855415,18.5633722 73.7641969,5.63976925 89.7994351,5.63976925 L89.7994366,5.63976925 Z M6.23063407,18.6559598 L59.1150448,18.6559598 C56.6186263,23.4228061 55.1586051,28.8247514 55.1586051,34.5646372 C55.1586051,53.5957419 70.7225832,69.0552949 89.7994351,69.0552949 C94.2392005,69.0552949 98.4680683,68.2135637 102.372121,66.6887148 L102.372121,83.1671245 L40.2120553,83.1671245 C39.0327865,83.1689625 37.9798036,83.9037889 37.5744289,85.0077979 L31.595809,101.398556 L25.6171891,85.0077979 C25.2118144,83.9037889 24.1588315,83.1689625 22.9795626,83.1671245 L6.23063407,83.1671245 L6.23063407,18.6559598 Z" fill="#FFE51B"></path>
                        <path d="M106.792784,21.2024561 C106.062063,21.2237324 105.36834,21.5277174 104.858525,22.0500354 L85.7326527,41.1045183 L74.7231957,30.1288457 C74.0161531,29.40264 72.971523,29.1124694 71.9896674,29.369544 C71.0078118,29.6266185 70.24101,30.3910675 69.9831442,31.3699106 C69.7252785,32.3487536 70.0163421,33.3901784 70.7447829,34.0950516 L83.7430102,47.0533925 C84.8414071,48.1484007 86.622124,48.1487773 87.7209869,47.054234 L108.836066,26.0179663 C109.668517,25.2118415 109.91906,23.9788643 109.466936,22.9133114 C109.014813,21.8477585 107.952805,21.1682958 106.792784,21.2024141 L106.792784,21.2024561 Z" fill="#000000"></path>
                    </g>
                </g>
            </g>
        </g>
    </g>
</svg>