<?xml version="1.0" encoding="UTF-8"?>
<svg width="57px" height="71px" viewBox="0 0 57 71" version="1.1" xmlns="http://www.w3.org/2000/svg" xmlns:xlink="http://www.w3.org/1999/xlink">
    <!-- Generator: Sketch 45.2 (43514) - http://www.bohemiancoding.com/sketch -->
    <title>Fill 1</title>
    <desc>Created with Sketch.</desc>
    <defs></defs>
    <g id="Page-1" stroke="none" stroke-width="1" fill="none" fill-rule="evenodd">
        <g id="Large-Device-Desktops-Copy" transform="translate(-404.000000, -1672.000000)" fill="#D2D2D2">
            <g id="Poslugy" transform="translate(80.000000, 1538.000000)">
                <g transform="translate(0.000000, 94.000000)" id="2">
                    <g transform="translate(292.000000, 0.000000)">
                        <path d="M84.7341034,66.5573398 C84.5924859,67.9703332 83.6269121,69.1649549 82.2622345,69.524626 C79.3783875,70.2696589 76.5589121,70.8348563 73.8295569,71.2715997 L73.8295569,68.8952016 C73.8295569,68.0987872 73.2759613,67.3922905 72.490628,67.2124549 C72.2975132,67.1739188 67.6627591,66.107751 59.5648138,66.107751 C51.492617,66.107751 47.0252291,67.1867641 46.8321143,67.2124549 C46.0596553,67.4179813 45.5060597,68.0987872 45.5060597,68.8952016 L45.5060597,71.0018464 C42.879699,70.5394122 40.4979504,69.9870602 38.4251854,69.4218628 C37.2278739,69.100728 36.3652946,68.0730964 36.2494258,66.8399385 C36.0176881,64.3350865 35.8889449,61.6632444 35.8760706,58.7601852 C35.850322,55.7800536 35.9275679,52.3631786 37.0991307,49.3958924 C38.0775788,46.8781951 39.6224968,45.2725207 41.8111307,44.4632609 C42.9955679,44.0265174 44.2958739,43.8466819 45.6605515,43.8466819 C49.8833274,43.8466819 54.7498192,45.6193464 58.5348684,47.3791655 C54.8399395,49.5243464 52.4453165,49.8326359 50.9132728,48.4196424 C50.1279395,47.7003003 48.9048793,47.7388365 48.1839176,48.5224056 C47.4500815,49.3059747 47.5015788,50.5262872 48.2869121,51.2456293 C53.114781,55.7158266 60.0540378,51.0786391 62.6675242,49.3316655 C68.8214477,45.2339845 74.074169,43.7439188 78.2711963,44.9256951 C84.4379941,46.646978 84.9658411,53.4678826 84.9915897,60.9182115 C85.004464,62.755103 84.9143438,64.6562214 84.7341034,66.5573398 L84.7341034,66.5573398 Z M70.3534914,80.4432115 L48.9821252,80.4432115 L48.9821252,75.5362707 L48.9821252,71.541353 L48.9821252,70.3338859 C50.7974039,70.0384418 54.4022127,69.588853 59.5648138,69.588853 C64.7789121,69.588853 68.4995897,70.0384418 70.3534914,70.3467313 L70.3534914,71.7468793 L70.3534914,75.6775701 L70.3534914,80.4432115 Z M76.674781,84.6950372 L75.6834586,87.5724056 L44.3731198,92.1582115 L43.3689231,89.2679977 L76.674781,84.6950372 Z M73.507699,93.7638859 L46.3042673,97.707422 L45.2485733,94.6630635 L74.7178848,90.3341655 L73.507699,93.7638859 Z M71.8855351,98.8635076 L56.281863,98.8635076 L72.5936225,96.8210898 L71.8855351,98.8635076 Z M59.2172072,107.482767 C58.3031307,107.469922 55.7797646,105.221978 53.3207701,102.34461 L65.1136444,102.34461 C62.6546498,105.221978 60.1312837,107.469922 59.2172072,107.482767 L59.2172072,107.482767 Z M41.5278957,83.9885405 L47.2569668,83.9114681 L63.272617,83.9114681 L42.4934695,86.7631457 L41.5278957,83.9885405 Z M79.314016,41.213376 C74.4346498,39.8389188 68.7442017,41.1106128 62.3585405,44.9642313 C55.8312619,41.6115832 47.063852,38.4259253 40.4722017,40.8537049 C37.2407482,42.0483266 34.8847482,44.4504155 33.494322,47.982899 C32.0910214,51.5796095 31.9880269,55.4460734 32.0009012,58.7730306 C32.0266498,61.6375536 32.1425187,64.2580141 32.3613821,66.7500207 C32.3871307,66.955547 32.4128793,67.2638365 32.438628,67.5207444 L32.438628,67.5335898 C32.4643766,67.7904977 32.4901252,67.9831786 32.4901252,67.9831786 C32.644617,69.1906457 33.1595897,70.3081951 33.9320487,71.1945273 C34.7045078,72.0808595 35.7215788,72.7488201 36.906016,73.0828003 C36.9832619,73.0956457 37.0733821,73.1213365 37.150628,73.1470273 C39.5709996,73.8149878 42.3647263,74.4829484 45.5060597,75.0096095 L45.5060597,80.4817477 L39.0817755,80.5588201 C38.5153056,80.5716655 38.0003329,80.8285734 37.678475,81.303853 C37.356617,81.7405964 37.2793711,82.3443299 37.4596116,82.8453003 L43.8838957,101.162833 C44.1285078,101.882175 44.7850979,102.34461 45.5318083,102.34461 L48.8662564,102.34461 C50.9647701,105.106369 55.7797646,110.951024 59.2172072,110.951024 C62.6546498,110.951024 67.4696444,105.106369 69.568158,102.34461 L72.8768575,102.34461 C73.6106936,102.34461 74.2672837,101.882175 74.5118957,101.175679 L81.0005515,82.8581457 C81.1807919,82.3443299 81.103546,81.7405964 80.7816881,81.303853 C80.4598302,80.8285734 79.9448575,80.5716655 79.3912619,80.5588201 L73.8295569,80.4817477 L73.8295569,75.2151359 C77.0095132,74.7270109 80.3053384,74.0462049 83.704158,73.1470273 C83.9358957,73.0828003 84.1547591,73.0314188 84.3864968,72.9671918 C86.5107591,72.389149 88.0814258,70.5907938 88.416158,68.419922 L88.416158,68.3556951 C88.416158,68.3556951 88.4676553,67.9446424 88.4934039,67.7391161 C88.4934039,67.7134253 88.4934039,67.6748891 88.5062783,67.6491984 C88.738016,65.3627181 88.8538848,63.114774 88.8538848,60.9053661 C88.8281362,54.5340503 88.8023875,43.8595273 79.314016,41.213376 L79.314016,41.213376 Z" id="Fill-1"></path>
                    </g>
                </g>
            </g>
        </g>
    </g>
</svg>