<?xml version="1.0" encoding="UTF-8"?>
<svg width="110px" height="60px" viewBox="0 0 110 60" version="1.1" xmlns="http://www.w3.org/2000/svg" xmlns:xlink="http://www.w3.org/1999/xlink">
    <!-- Generator: Sketch 45.2 (43514) - http://www.bohemiancoding.com/sketch -->
    <title>Fill 1</title>
    <desc>Created with Sketch.</desc>
    <defs></defs>
    <g id="Page-1" stroke="none" stroke-width="1" fill="none" fill-rule="evenodd">
        <g id="Large-Device-Desktops-Copy" transform="translate(-700.000000, -1684.000000)" fill="#D2D2D2">
            <g id="Poslugy" transform="translate(80.000000, 1538.000000)">
                <g transform="translate(0.000000, 94.000000)" id="3">
                    <g transform="translate(585.000000, 0.000000)">
                        <path d="M115.68634,79.7095319 L111.082936,79.7095319 L111.082936,75.5682553 C111.082936,74.3325106 112.088894,73.3265532 113.324638,73.3265532 L118.627617,73.3265532 C119.863362,73.3265532 120.870596,74.3325106 120.870596,75.5682553 L120.870596,87.6793191 C120.870596,88.9163404 119.863362,89.9222979 118.627617,89.9222979 L113.324638,89.9222979 C112.088894,89.9222979 111.082936,88.9163404 111.082936,87.6793191 L111.082936,83.5393191 L115.68634,83.5393191 C116.743362,83.5393191 117.601234,82.6827234 117.601234,81.6244255 C117.601234,80.5661277 116.743362,79.7095319 115.68634,79.7095319 M119.062936,107.534213 C111.824638,108.484 104.142085,105.462298 99.4901702,99.831234 C96.1914468,95.8380426 94.0046383,90.484 92.8250638,83.5393191 L107.253149,83.5393191 L107.253149,87.6793191 C107.253149,91.0278298 109.976128,93.7520851 113.324638,93.7520851 L118.627617,93.7520851 C121.976128,93.7520851 124.700383,91.0278298 124.700383,87.6793191 L124.700383,75.5682553 C124.700383,72.2210213 121.976128,69.496766 118.627617,69.496766 L113.324638,69.496766 C109.976128,69.496766 107.253149,72.2210213 107.253149,75.5682553 L107.253149,79.7095319 L92.300383,79.7095319 C91.9952766,76.9188936 91.8293191,73.9495319 91.8114468,70.6431489 C91.7948511,67.6852766 91.874,64.2831489 93.0293191,61.3354894 C94.0059149,58.8435745 95.5365532,57.2427234 97.7093191,56.4397447 C98.8748511,56.0095319 100.164213,55.8244255 101.521234,55.8244255 C105.711021,55.8244255 110.535277,57.5886809 114.282085,59.3350638 C110.616979,61.4695319 108.245064,61.7797447 106.722085,60.3691064 C105.945915,59.650383 104.735702,59.697617 104.015702,60.4737872 C103.296979,61.2499574 103.344213,62.4614468 104.120383,63.1801702 C108.912723,67.6163404 115.793574,63.0129362 118.383787,61.2805957 C124.483362,57.2005957 129.690596,55.7248511 133.853574,56.8929362 C139.971021,58.6086809 140.496979,65.3925106 140.518681,72.7916596 C140.560809,87.5095319 134.968043,105.441872 119.062936,107.534213 M62.3348511,83.5393191 L67.2280426,83.5393191 L67.2280426,87.6793191 C67.2280426,88.9163404 66.2220851,89.9222979 64.9863404,89.9222979 L59.6833617,89.9222979 C58.447617,89.9222979 57.4416596,88.9163404 57.4416596,87.6793191 L57.4416596,75.5682553 C57.4416596,74.3325106 58.447617,73.3265532 59.6833617,73.3265532 L64.9863404,73.3265532 C66.2220851,73.3265532 67.2280426,74.3325106 67.2280426,75.5682553 L67.2280426,79.7095319 L62.3348511,79.7095319 C61.2778298,79.7095319 60.4199574,80.5661277 60.4199574,81.6244255 C60.4199574,82.6827234 61.2778298,83.5393191 62.3348511,83.5393191 M66.0842128,107.534213 C58.8459149,108.484 51.1633617,105.462298 46.5114468,99.831234 C42.787617,95.3248511 40.4744255,89.0937872 39.4365532,80.7857021 C39.0510213,77.6899574 38.8531489,74.3733617 38.8327234,70.6431489 C38.8161277,67.6852766 38.8952766,64.2831489 40.0505957,61.3354894 C41.0271915,58.8435745 42.5578298,57.2427234 44.7305957,56.4397447 C45.8961277,56.0095319 47.1854894,55.8244255 48.5425106,55.8244255 C52.7322979,55.8244255 57.5565532,57.5886809 61.3033617,59.3350638 C57.6382553,61.4695319 55.2663404,61.7797447 53.7433617,60.3691064 C52.9671915,59.650383 51.7569787,59.697617 51.0369787,60.4737872 C50.3182553,61.2499574 50.3654894,62.4614468 51.1416596,63.1801702 C55.934,67.6163404 62.8148511,63.0129362 65.4050638,61.2805957 C71.5046383,57.2005957 76.7118723,55.7248511 80.8748511,56.8929362 C86.9922979,58.6086809 87.5182553,65.3925106 87.5399574,72.7916596 C87.5463404,75.0448511 87.4186809,77.3733617 87.1442128,79.7095319 L71.0578298,79.7095319 L71.0578298,75.5682553 C71.0578298,72.2210213 68.3335745,69.496766 64.9863404,69.496766 L59.6833617,69.496766 C56.3361277,69.496766 53.6118723,72.2210213 53.6118723,75.5682553 L53.6118723,87.6793191 C53.6118723,91.0278298 56.3361277,93.7520851 59.6833617,93.7520851 L64.9863404,93.7520851 C68.3335745,93.7520851 71.0578298,91.0278298 71.0578298,87.6793191 L71.0578298,83.5393191 L86.5544255,83.5393191 C84.3484681,95.116766 78.2208085,105.937191 66.0842128,107.534213 M134.88634,53.2035745 C130.058255,51.8478298 124.411872,53.1014468 118.081234,56.9299574 C111.605064,53.6082553 102.90634,50.4359149 96.3791064,52.8474043 C93.1888936,54.0257021 90.8757021,56.3886809 89.4931489,59.8674043 C88.1578298,56.8444255 85.8701702,54.3142128 81.907617,53.2035745 C77.0795319,51.8478298 71.4331489,53.1014468 65.1025106,56.9299574 C58.6263404,53.6082553 49.927617,50.4359149 43.400383,52.8474043 C40.1884681,54.0346383 37.8625106,56.4193191 36.4837872,59.937617 C35.0820851,63.5159149 34.9837872,67.3508085 35.0016596,70.6635745 C35.0169787,73.5052766 35.1395319,76.1159149 35.360383,78.5874043 C35.3974043,78.9997447 35.4791064,79.8154894 35.4791064,79.8154894 L35.9948511,83.6720851 C35.9948511,83.6720851 36.0791064,84.1827234 36.1225106,84.4354894 C37.4284681,91.9342128 39.8642128,97.8027234 43.5561277,102.272085 C48.4135745,108.152085 55.7680426,111.545277 63.3191064,111.545277 C64.4042128,111.545277 65.4931489,111.475064 66.5795319,111.332085 C79.6659149,109.609957 86.7025106,99.0346383 89.654,87.2108085 C91.046766,93.3997447 93.3127234,98.3695319 96.5348511,102.272085 C101.392298,108.152085 108.746766,111.545277 116.29783,111.545277 C117.382936,111.545277 118.471872,111.475064 119.558255,111.332085 C133.603362,109.483574 140.684638,97.4401702 143.221234,84.5988936 C143.263362,84.3882553 143.342511,83.9669787 143.342511,83.9669787 L143.918255,80.1805957 C143.918255,80.1805957 143.965489,79.7733617 143.987191,79.570383 C144.236128,77.2750638 144.354851,74.9937872 144.347191,72.7788936 C144.328043,66.4457021 144.297404,55.8435745 134.88634,53.2035745" id="Fill-1"></path>
                    </g>
                </g>
            </g>
        </g>
    </g>
</svg>