<svg width="125" height="113" viewBox="0 0 125 113" xmlns="http://www.w3.org/2000/svg"><title>Group</title><g fill="none" fill-rule="evenodd"><path d="M89.8.057c-10.933 0-20.733 5.092-27.08 13.016H3.417a2.81 2.81 0 0 0-2.813 2.805v70.12a2.81 2.81 0 0 0 2.813 2.805h17.584l7.957 21.782a2.813 2.813 0 0 0 2.638 1.828 2.812 2.812 0 0 0 2.637-1.828l7.957-21.782h62.996a2.81 2.81 0 0 0 2.813-2.805V63.91c9.843-6.092 16.397-16.943 16.397-29.319C124.396 15.56 108.89.057 89.8.057zm0 5.61c16.05 0 28.97 12.923 28.97 28.924 0 16.001-12.92 28.881-28.97 28.881-16.036 0-29.014-12.88-29.014-28.88 0-16.002 12.978-28.926 29.013-28.926zM6.23 18.681h52.885c-2.496 4.767-3.956 10.17-3.956 15.91 0 19.03 15.564 34.49 34.64 34.49 4.44 0 8.67-.842 12.573-2.367v16.479h-62.16a2.813 2.813 0 0 0-2.638 1.84l-5.978 16.391-5.979-16.39a2.813 2.813 0 0 0-2.637-1.841H6.23V18.682z" fill="#FFE51B"/><path d="M106.793 21.229a2.818 2.818 0 0 0-1.934.848L85.733 41.13l-11.01-10.976a2.82 2.82 0 0 0-2.733-.759 2.81 2.81 0 0 0-2.007 2 2.8 2.8 0 0 0 .762 2.726L83.743 47.08a2.82 2.82 0 0 0 3.978 0l21.115-21.036a2.799 2.799 0 0 0 .63-3.104 2.814 2.814 0 0 0-2.673-1.711z" fill="#000"/></g></svg>