<svg width="110" height="60" viewBox="0 0 110 60" xmlns="http://www.w3.org/2000/svg"><title>Fill 1</title><path d="M80.686 27.71h-4.603v-4.142a2.245 2.245 0 0 1 2.242-2.241h5.303a2.246 2.246 0 0 1 2.243 2.241V35.68a2.246 2.246 0 0 1-2.243 2.243h-5.303a2.245 2.245 0 0 1-2.242-2.243v-4.14h4.603a1.915 1.915 0 1 0 0-3.83m3.377 27.825c-7.238.95-14.92-2.072-19.573-7.703-3.299-3.993-5.485-9.347-6.665-16.292h14.428v4.14a6.079 6.079 0 0 0 6.072 6.073h5.303A6.08 6.08 0 0 0 89.7 35.68V23.57a6.08 6.08 0 0 0-6.072-6.072h-5.303a6.078 6.078 0 0 0-6.072 6.071v4.142H57.3c-.305-2.791-.47-5.76-.489-9.067-.016-2.958.063-6.36 1.218-9.308.977-2.491 2.508-4.092 4.68-4.895 1.166-.43 2.455-.616 3.812-.616 4.19 0 9.014 1.765 12.761 3.511-3.665 2.135-6.037 2.445-7.56 1.034a1.915 1.915 0 1 0-2.602 2.811c4.793 4.436 11.674-.167 14.264-1.9 6.1-4.08 11.307-5.555 15.47-4.387 6.117 1.716 6.643 8.5 6.665 15.899.042 14.718-5.551 32.65-21.456 34.742M27.335 31.54h4.893v4.14a2.245 2.245 0 0 1-2.242 2.243h-5.303a2.245 2.245 0 0 1-2.241-2.243V23.57a2.245 2.245 0 0 1 2.241-2.242h5.303a2.245 2.245 0 0 1 2.242 2.241v4.142h-4.893a1.915 1.915 0 1 0 0 3.83m3.75 23.994c-7.24.95-14.922-2.072-19.574-7.703-3.723-4.506-6.037-10.737-7.074-19.045-.386-3.096-.584-6.413-.604-10.143-.017-2.958.062-6.36 1.218-9.308.976-2.491 2.507-4.092 4.68-4.895 1.165-.43 2.454-.616 3.812-.616 4.19 0 9.014 1.765 12.76 3.511-3.665 2.135-6.037 2.445-7.56 1.034a1.915 1.915 0 1 0-2.601 2.811c4.792 4.436 11.673-.167 14.263-1.9 6.1-4.08 11.307-5.555 15.47-4.387 6.117 1.716 6.643 8.5 6.665 15.899a58.105 58.105 0 0 1-.396 6.918H36.058v-4.142a6.08 6.08 0 0 0-6.072-6.071h-5.303a6.08 6.08 0 0 0-6.071 6.071V35.68a6.08 6.08 0 0 0 6.071 6.073h5.303a6.08 6.08 0 0 0 6.072-6.073v-4.14h15.496c-2.206 11.578-8.333 22.398-20.47 23.995m68.802-54.33C95.058-.152 89.412 1.1 83.081 4.93 76.605 1.608 67.906-1.564 61.38.847c-3.19 1.179-5.503 3.542-6.886 7.02-1.335-3.023-3.623-5.553-7.585-6.663C42.08-.152 36.433 1.1 30.103 4.93 23.626 1.608 14.928-1.564 8.4.847 5.188 2.035 2.863 4.42 1.484 7.937c-1.402 3.58-1.5 7.415-1.482 10.728.015 2.841.138 5.452.358 7.923.037.413.12 1.228.12 1.228l.515 3.857s.084.51.128.763c1.305 7.5 3.741 13.368 7.433 17.837 4.858 5.88 12.212 9.273 19.763 9.273 1.085 0 2.174-.07 3.26-.213 13.087-1.722 20.124-12.297 23.075-24.121 1.393 6.189 3.659 11.159 6.88 15.061 4.858 5.88 12.213 9.273 19.764 9.273 1.085 0 2.174-.07 3.26-.213 14.045-1.848 21.127-13.892 23.663-26.733.042-.21.122-.632.122-.632l.575-3.786.07-.61c.248-2.296.367-4.577.36-6.792-.02-6.333-.05-16.935-9.462-19.575" fill="#D2D2D2" fill-rule="evenodd"/></svg>