<svg width="57" height="71" viewBox="0 0 57 71" xmlns="http://www.w3.org/2000/svg"><title>Fill 1</title><path d="M52.734 26.557c-.142 1.413-1.107 2.608-2.472 2.968a91.395 91.395 0 0 1-8.432 1.747v-2.377c0-.796-.554-1.503-1.34-1.683-.192-.038-4.827-1.104-12.925-1.104-8.072 0-12.54 1.079-12.733 1.104-.772.206-1.326.887-1.326 1.683v2.107a79.254 79.254 0 0 1-7.08-1.58 2.951 2.951 0 0 1-2.177-2.582 91.935 91.935 0 0 1-.373-8.08c-.026-2.98.052-6.397 1.223-9.364.979-2.518 2.523-4.123 4.712-4.933 1.185-.436 2.485-.616 3.85-.616 4.222 0 9.089 1.772 12.874 3.532-3.695 2.145-6.09 2.454-7.622 1.04a1.935 1.935 0 0 0-2.73.103 1.913 1.913 0 0 0 .104 2.724c4.828 4.47 11.767-.167 14.38-1.914 6.154-4.098 11.407-5.588 15.604-4.406 6.167 1.721 6.695 8.542 6.72 15.992a55.94 55.94 0 0 1-.257 5.64zm-14.38 13.886H16.981V30.334c1.815-.296 5.42-.745 10.583-.745 5.214 0 8.935.45 10.788.758v10.096zm6.32 4.252l-.99 2.877-31.31 4.586-1.005-2.89 33.306-4.573zm-3.166 9.069l-27.204 3.943-1.055-3.044 29.469-4.329-1.21 3.43zm-1.622 5.1H24.282l16.312-2.043-.708 2.043zm-12.669 8.619c-.914-.013-3.437-2.261-5.896-5.138h11.793c-2.46 2.877-4.983 5.125-5.897 5.138zM9.527 43.989l5.73-.078h16.016l-20.78 2.852-.965-2.774zM47.315 1.213c-4.88-1.374-10.57-.102-16.955 3.751C23.83 1.612 15.064-1.574 8.472.854 5.241 2.048 2.885 4.45 1.494 7.983.091 11.58-.012 15.446.001 18.773c.026 2.865.142 5.485.36 7.977.026.206.052.514.078.77v.014c.025.256.051.45.051.45a6.07 6.07 0 0 0 1.442 3.21 6.148 6.148 0 0 0 2.974 1.889c.077.013.167.038.245.064a82.634 82.634 0 0 0 8.355 1.863v5.472l-6.424.077c-.567.013-1.082.27-1.404.745a1.69 1.69 0 0 0-.218 1.541l6.424 18.318c.245.72.901 1.182 1.648 1.182h3.334c2.099 2.761 6.914 8.606 10.351 8.606 3.438 0 8.253-5.845 10.351-8.606h3.309c.734 0 1.39-.463 1.635-1.17L49 42.859a1.712 1.712 0 0 0-.22-1.554 1.701 1.701 0 0 0-1.39-.745l-5.561-.077v-5.267a94.936 94.936 0 0 0 9.874-2.068c.232-.064.45-.116.682-.18 2.125-.578 3.695-2.376 4.03-4.547v-.064l.077-.617c0-.026 0-.064.013-.09a66.86 66.86 0 0 0 .348-6.744c-.026-6.37-.052-17.045-9.54-19.692z" fill="#D2D2D2" fill-rule="evenodd"/></svg>