<svg width="65" height="78" viewBox="0 0 65 78" xmlns="http://www.w3.org/2000/svg"><path d="M49.916 19.768c-.179.192-.358.371-.525.563a15.575 15.575 0 0 0-2.153 3.23 4.682 4.682 0 0 0-.18.359l-.269-.539a14.966 14.966 0 0 0-2.588-3.613c-.295-.295-.59-.59-.897-.86a14.336 14.336 0 0 0-2.743-1.857 13.992 13.992 0 0 0 3.64-2.717 15.55 15.55 0 0 0 2.858-4.152 15.55 15.55 0 0 0 2.857 4.152 14.13 14.13 0 0 0 3.653 2.717 13.844 13.844 0 0 0-3.653 2.717m2.833 19.325c.038 14.776-5.575 32.781-21.543 34.883-7.266.948-14.98-2.076-19.646-7.74-3.742-4.524-6.061-10.778-7.1-19.108-.397-3.114-.589-6.446-.614-10.188-.013-2.973.064-6.382 1.23-9.342.974-2.5 2.512-4.114 4.69-4.921 1.18-.423 2.474-.616 3.832-.616 4.203 0 9.048 1.769 12.802 3.525-3.678 2.14-6.048 2.46-7.586 1.038a1.935 1.935 0 0 0-2.717.102c-.718.782-.666 2 .102 2.717 4.819 4.46 11.726-.167 14.328-1.897 4.19-2.806 7.945-4.395 11.252-4.728 3.383 3.831 3.293 9.278 3.293 9.329-.013.525.244 1.025.603 1.397.371.372.922.577 1.448.577a1.91 1.91 0 0 0 1.37-.577 1.89 1.89 0 0 0 .552-1.397c0-.038-.064-2.986 1.269-6.074 2.165 3.075 2.422 7.907 2.435 13.02m9.521-23.965c-4.113 0-7.343-1.166-9.573-3.447-3.742-3.832-3.652-9.675-3.652-9.727.013-.525-.244-1.025-.602-1.397-.73-.743-2.102-.743-2.82 0a1.944 1.944 0 0 0-.55 1.397c.012.026.038 1.602-.462 3.653-.051.218-.103.435-.167.653-.692 2.486-1.884 4.127-2.473 4.819-.218.269-.359.397-.359.397-.051.064-.102.115-.166.18-2.243 2.306-5.473 3.472-9.6 3.472a1.92 1.92 0 0 0-1.921 1.923 1.92 1.92 0 0 0 1.922 1.922c2.063 0 3.909.295 5.523.884-2.268.705-4.652 1.807-7.15 3.32-6.498-3.333-15.238-6.524-21.787-4.102-3.229 1.192-5.561 3.589-6.945 7.113C.078 29.789-.012 33.634 0 36.966c.013 2.845.141 5.472.359 7.945.038.423.128 1.243.128 1.243L1 50.024s.09.513.128.77c1.307 7.522 3.755 13.417 7.458 17.902C13.47 74.591 20.851 78 28.425 78c1.09 0 2.192-.064 3.28-.218 14.098-1.845 21.21-13.943 23.748-26.835.05-.205.128-.628.128-.628l.576-3.806s.052-.41.064-.615c.257-2.294.372-4.588.372-6.818-.025-4.793-.038-12.033-4.114-16.43.09-.102.193-.217.32-.32a10.255 10.255 0 0 1 4.768-2.73c.115-.05.244-.076.359-.102 1.307-.346 2.768-.525 4.344-.525a1.92 1.92 0 0 0 1.923-1.922 1.92 1.92 0 0 0-1.923-1.923" fill="#FFF" fill-rule="evenodd"/></svg>