<svg width="82" height="108" viewBox="0 0 82 108" xmlns="http://www.w3.org/2000/svg"><title>Triangle 2 Copy</title><defs><filter x="-37.8%" y="-23.6%" width="175.5%" height="147.2%" filterUnits="objectBoundingBox" id="a"><feGaussianBlur stdDeviation="6.295" in="SourceGraphic"/></filter></defs><g transform="translate(14 13)" fill="none" fill-rule="evenodd"><path d="M27.003 83L4.805 39.095C-1.393 26.836 3.521 11.874 15.78 5.675A24.873 24.873 0 0 1 27.003 3C40.74 3 51.876 14.136 51.876 27.873c0 3.899-.917 7.743-2.676 11.222L27.003 83z" fill="#A6A6A6" filter="url(#a)"/><path d="M25.003 80L2.805 36.095C-3.393 23.836 1.521 8.874 13.78 2.675A24.873 24.873 0 0 1 25.003 0C38.74 0 49.876 11.136 49.876 24.873c0 3.899-.917 7.743-2.676 11.222L25.003 80z" fill="#343434"/><circle fill="#FFE51B" cx="25" cy="25" r="11"/></g></svg>